G04 (created by PCBNEW (2013-07-07 BZR 4022)-stable) date 12/11/2014 3:57:00 AM*
%MOIN*%
G04 Gerber Fmt 3.4, Leading zero omitted, Abs format*
%FSLAX34Y34*%
G01*
G70*
G90*
G04 APERTURE LIST*
%ADD10C,0.00590551*%
%ADD11C,0.005*%
%ADD12C,0.008*%
%ADD13C,0.055*%
%ADD14R,0.06X0.06*%
%ADD15C,0.06*%
G04 APERTURE END LIST*
G54D10*
G54D11*
X81314Y-55511D02*
G75*
G03X81314Y-55511I-1000J0D01*
G74*
G01*
X78814Y-57011D02*
X81814Y-57011D01*
X81814Y-57011D02*
X81814Y-54011D01*
X81814Y-54011D02*
X78814Y-54011D01*
X78814Y-57011D02*
X78814Y-54011D01*
G54D12*
X80848Y-55954D02*
X80791Y-55973D01*
X80695Y-55973D01*
X80657Y-55954D01*
X80638Y-55935D01*
X80619Y-55897D01*
X80619Y-55859D01*
X80638Y-55821D01*
X80657Y-55802D01*
X80695Y-55783D01*
X80772Y-55764D01*
X80810Y-55745D01*
X80829Y-55726D01*
X80848Y-55688D01*
X80848Y-55649D01*
X80829Y-55611D01*
X80810Y-55592D01*
X80772Y-55573D01*
X80676Y-55573D01*
X80619Y-55592D01*
X80486Y-55573D02*
X80391Y-55973D01*
X80314Y-55688D01*
X80238Y-55973D01*
X80143Y-55573D01*
X79781Y-55973D02*
X80010Y-55973D01*
X79895Y-55973D02*
X79895Y-55573D01*
X79934Y-55630D01*
X79972Y-55668D01*
X80010Y-55688D01*
X81619Y-55254D02*
X81562Y-55273D01*
X81467Y-55273D01*
X81429Y-55254D01*
X81410Y-55235D01*
X81391Y-55197D01*
X81391Y-55159D01*
X81410Y-55121D01*
X81429Y-55102D01*
X81467Y-55083D01*
X81543Y-55064D01*
X81581Y-55045D01*
X81600Y-55026D01*
X81619Y-54988D01*
X81619Y-54949D01*
X81600Y-54911D01*
X81581Y-54892D01*
X81543Y-54873D01*
X81448Y-54873D01*
X81391Y-54892D01*
X81257Y-54873D02*
X81162Y-55273D01*
X81086Y-54988D01*
X81010Y-55273D01*
X80914Y-54873D01*
X80857Y-55311D02*
X80553Y-55311D01*
X80457Y-55273D02*
X80457Y-54873D01*
X80305Y-54873D01*
X80267Y-54892D01*
X80248Y-54911D01*
X80229Y-54949D01*
X80229Y-55007D01*
X80248Y-55045D01*
X80267Y-55064D01*
X80305Y-55083D01*
X80457Y-55083D01*
X80057Y-54873D02*
X80057Y-55197D01*
X80038Y-55235D01*
X80019Y-55254D01*
X79981Y-55273D01*
X79905Y-55273D01*
X79867Y-55254D01*
X79848Y-55235D01*
X79829Y-55197D01*
X79829Y-54873D01*
X79657Y-55254D02*
X79600Y-55273D01*
X79505Y-55273D01*
X79467Y-55254D01*
X79448Y-55235D01*
X79429Y-55197D01*
X79429Y-55159D01*
X79448Y-55121D01*
X79467Y-55102D01*
X79505Y-55083D01*
X79581Y-55064D01*
X79619Y-55045D01*
X79638Y-55026D01*
X79657Y-54988D01*
X79657Y-54949D01*
X79638Y-54911D01*
X79619Y-54892D01*
X79581Y-54873D01*
X79486Y-54873D01*
X79429Y-54892D01*
X79257Y-55273D02*
X79257Y-54873D01*
X79257Y-55064D02*
X79029Y-55064D01*
X79029Y-55273D02*
X79029Y-54873D01*
%LPC*%
G54D13*
X81814Y-56511D03*
X81814Y-54511D03*
X78814Y-56511D03*
X78814Y-54511D03*
X83070Y-54011D03*
X83070Y-57011D03*
X77559Y-57011D03*
X77559Y-54011D03*
G54D14*
X81314Y-57874D03*
G54D15*
X80314Y-57874D03*
X79314Y-57874D03*
G54D13*
X79814Y-53149D03*
X80814Y-53149D03*
M02*
