G04 (created by PCBNEW (2013-07-07 BZR 4022)-stable) date 12/11/2014 3:57:00 AM*
%MOIN*%
G04 Gerber Fmt 3.4, Leading zero omitted, Abs format*
%FSLAX34Y34*%
G01*
G70*
G90*
G04 APERTURE LIST*
%ADD10C,0.00590551*%
%ADD11C,0.055*%
%ADD12R,0.06X0.06*%
%ADD13C,0.06*%
%ADD14C,0.015748*%
G04 APERTURE END LIST*
G54D10*
G54D11*
X81814Y-56511D03*
X81814Y-54511D03*
X78814Y-56511D03*
X78814Y-54511D03*
X83070Y-54011D03*
X83070Y-57011D03*
X77559Y-57011D03*
X77559Y-54011D03*
G54D12*
X81314Y-57874D03*
G54D13*
X80314Y-57874D03*
X79314Y-57874D03*
G54D11*
X79814Y-53149D03*
X80814Y-53149D03*
G54D14*
X78814Y-54511D02*
X81814Y-54511D01*
X81814Y-54511D02*
X82464Y-54511D01*
X83070Y-55118D02*
X83070Y-57011D01*
X82464Y-54511D02*
X83070Y-55118D01*
X81814Y-56511D02*
X81283Y-56511D01*
X80314Y-57480D02*
X80314Y-57874D01*
X81283Y-56511D02*
X80314Y-57480D01*
X77559Y-54011D02*
X77559Y-55255D01*
X77559Y-55255D02*
X78814Y-56511D01*
X77559Y-54011D02*
X77559Y-53543D01*
X77952Y-53149D02*
X79814Y-53149D01*
X77559Y-53543D02*
X77952Y-53149D01*
X80314Y-57874D02*
X80177Y-57874D01*
X80177Y-57874D02*
X78814Y-56511D01*
X79314Y-57874D02*
X78421Y-57874D01*
X78421Y-57874D02*
X77559Y-57011D01*
M02*
