G04 (created by PCBNEW (2013-07-07 BZR 4022)-stable) date 12/16/2014 6:59:02 PM*
%MOIN*%
G04 Gerber Fmt 3.4, Leading zero omitted, Abs format*
%FSLAX34Y34*%
G01*
G70*
G90*
G04 APERTURE LIST*
%ADD10C,0.00590551*%
%ADD11C,0.00875*%
%ADD12C,0.008*%
%ADD13C,0.006*%
%ADD14C,0.012*%
%ADD15C,0.055*%
%ADD16R,0.06X0.06*%
%ADD17C,0.06*%
G04 APERTURE END LIST*
G54D10*
G54D11*
X76866Y-55241D02*
X76866Y-54891D01*
X76950Y-54891D01*
X77000Y-54908D01*
X77033Y-54941D01*
X77050Y-54975D01*
X77066Y-55041D01*
X77066Y-55091D01*
X77050Y-55158D01*
X77033Y-55191D01*
X77000Y-55225D01*
X76950Y-55241D01*
X76866Y-55241D01*
X77350Y-55225D02*
X77316Y-55241D01*
X77250Y-55241D01*
X77216Y-55225D01*
X77200Y-55191D01*
X77200Y-55058D01*
X77216Y-55025D01*
X77250Y-55008D01*
X77316Y-55008D01*
X77350Y-55025D01*
X77366Y-55058D01*
X77366Y-55091D01*
X77200Y-55125D01*
X77500Y-55225D02*
X77533Y-55241D01*
X77600Y-55241D01*
X77633Y-55225D01*
X77650Y-55191D01*
X77650Y-55175D01*
X77633Y-55141D01*
X77600Y-55125D01*
X77550Y-55125D01*
X77516Y-55108D01*
X77500Y-55075D01*
X77500Y-55058D01*
X77516Y-55025D01*
X77550Y-55008D01*
X77600Y-55008D01*
X77633Y-55025D01*
X77800Y-55241D02*
X77800Y-55008D01*
X77800Y-54891D02*
X77783Y-54908D01*
X77800Y-54925D01*
X77816Y-54908D01*
X77800Y-54891D01*
X77800Y-54925D01*
X78116Y-55008D02*
X78116Y-55291D01*
X78100Y-55325D01*
X78083Y-55341D01*
X78050Y-55358D01*
X78000Y-55358D01*
X77966Y-55341D01*
X78116Y-55225D02*
X78083Y-55241D01*
X78016Y-55241D01*
X77983Y-55225D01*
X77966Y-55208D01*
X77950Y-55175D01*
X77950Y-55075D01*
X77966Y-55041D01*
X77983Y-55025D01*
X78016Y-55008D01*
X78083Y-55008D01*
X78116Y-55025D01*
X78283Y-55008D02*
X78283Y-55241D01*
X78283Y-55041D02*
X78300Y-55025D01*
X78333Y-55008D01*
X78383Y-55008D01*
X78416Y-55025D01*
X78433Y-55058D01*
X78433Y-55241D01*
X78733Y-55225D02*
X78700Y-55241D01*
X78633Y-55241D01*
X78600Y-55225D01*
X78583Y-55191D01*
X78583Y-55058D01*
X78600Y-55025D01*
X78633Y-55008D01*
X78700Y-55008D01*
X78733Y-55025D01*
X78750Y-55058D01*
X78750Y-55091D01*
X78583Y-55125D01*
X79050Y-55241D02*
X79050Y-54891D01*
X79050Y-55225D02*
X79016Y-55241D01*
X78950Y-55241D01*
X78916Y-55225D01*
X78900Y-55208D01*
X78883Y-55175D01*
X78883Y-55075D01*
X78900Y-55041D01*
X78916Y-55025D01*
X78950Y-55008D01*
X79016Y-55008D01*
X79050Y-55025D01*
X79600Y-55058D02*
X79650Y-55075D01*
X79666Y-55091D01*
X79683Y-55125D01*
X79683Y-55175D01*
X79666Y-55208D01*
X79650Y-55225D01*
X79616Y-55241D01*
X79483Y-55241D01*
X79483Y-54891D01*
X79600Y-54891D01*
X79633Y-54908D01*
X79650Y-54925D01*
X79666Y-54958D01*
X79666Y-54991D01*
X79650Y-55025D01*
X79633Y-55041D01*
X79600Y-55058D01*
X79483Y-55058D01*
X79800Y-55008D02*
X79883Y-55241D01*
X79966Y-55008D02*
X79883Y-55241D01*
X79850Y-55325D01*
X79833Y-55341D01*
X79800Y-55358D01*
X76700Y-55469D02*
X76900Y-55469D01*
X76800Y-55819D02*
X76800Y-55469D01*
X76983Y-55585D02*
X77066Y-55819D01*
X77150Y-55585D02*
X77066Y-55819D01*
X77033Y-55902D01*
X77016Y-55919D01*
X76983Y-55935D01*
X77333Y-55819D02*
X77300Y-55802D01*
X77283Y-55769D01*
X77283Y-55469D01*
X77600Y-55802D02*
X77566Y-55819D01*
X77500Y-55819D01*
X77466Y-55802D01*
X77450Y-55769D01*
X77450Y-55635D01*
X77466Y-55602D01*
X77500Y-55585D01*
X77566Y-55585D01*
X77600Y-55602D01*
X77616Y-55635D01*
X77616Y-55669D01*
X77450Y-55702D01*
X77766Y-55819D02*
X77766Y-55585D01*
X77766Y-55652D02*
X77783Y-55619D01*
X77800Y-55602D01*
X77833Y-55585D01*
X77866Y-55585D01*
X78250Y-55819D02*
X78250Y-55469D01*
X78250Y-55635D02*
X78450Y-55635D01*
X78450Y-55819D02*
X78450Y-55469D01*
X78766Y-55819D02*
X78766Y-55635D01*
X78749Y-55602D01*
X78716Y-55585D01*
X78649Y-55585D01*
X78616Y-55602D01*
X78766Y-55802D02*
X78733Y-55819D01*
X78649Y-55819D01*
X78616Y-55802D01*
X78599Y-55769D01*
X78599Y-55735D01*
X78616Y-55702D01*
X78649Y-55685D01*
X78733Y-55685D01*
X78766Y-55669D01*
X79083Y-55802D02*
X79049Y-55819D01*
X78983Y-55819D01*
X78949Y-55802D01*
X78933Y-55785D01*
X78916Y-55752D01*
X78916Y-55652D01*
X78933Y-55619D01*
X78949Y-55602D01*
X78983Y-55585D01*
X79049Y-55585D01*
X79083Y-55602D01*
X79233Y-55819D02*
X79233Y-55469D01*
X79266Y-55685D02*
X79366Y-55819D01*
X79366Y-55585D02*
X79233Y-55719D01*
X79649Y-55802D02*
X79616Y-55819D01*
X79549Y-55819D01*
X79516Y-55802D01*
X79499Y-55769D01*
X79499Y-55635D01*
X79516Y-55602D01*
X79549Y-55585D01*
X79616Y-55585D01*
X79649Y-55602D01*
X79666Y-55635D01*
X79666Y-55669D01*
X79499Y-55702D01*
X79766Y-55585D02*
X79899Y-55585D01*
X79816Y-55469D02*
X79816Y-55769D01*
X79833Y-55802D01*
X79866Y-55819D01*
X79899Y-55819D01*
X79966Y-55585D02*
X80099Y-55585D01*
X80016Y-55469D02*
X80016Y-55769D01*
X80033Y-55802D01*
X80066Y-55819D01*
X80099Y-55819D01*
X77799Y-56080D02*
X77816Y-56063D01*
X77849Y-56046D01*
X77933Y-56046D01*
X77966Y-56063D01*
X77983Y-56080D01*
X77999Y-56113D01*
X77999Y-56146D01*
X77983Y-56196D01*
X77783Y-56396D01*
X77999Y-56396D01*
X78216Y-56046D02*
X78250Y-56046D01*
X78283Y-56063D01*
X78300Y-56080D01*
X78316Y-56113D01*
X78333Y-56180D01*
X78333Y-56263D01*
X78316Y-56330D01*
X78300Y-56363D01*
X78283Y-56380D01*
X78250Y-56396D01*
X78216Y-56396D01*
X78183Y-56380D01*
X78166Y-56363D01*
X78150Y-56330D01*
X78133Y-56263D01*
X78133Y-56180D01*
X78150Y-56113D01*
X78166Y-56080D01*
X78183Y-56063D01*
X78216Y-56046D01*
X78666Y-56396D02*
X78466Y-56396D01*
X78566Y-56396D02*
X78566Y-56046D01*
X78533Y-56096D01*
X78500Y-56130D01*
X78466Y-56146D01*
X78966Y-56163D02*
X78966Y-56396D01*
X78883Y-56030D02*
X78800Y-56280D01*
X79016Y-56280D01*
G54D12*
X80600Y-53900D02*
X80600Y-54100D01*
X80600Y-56900D02*
X80600Y-56700D01*
X80600Y-56700D02*
X81000Y-56700D01*
X81000Y-56700D02*
X81000Y-54100D01*
X81000Y-54100D02*
X80200Y-54100D01*
X80200Y-54100D02*
X80200Y-56700D01*
X80200Y-56700D02*
X80600Y-56700D01*
X80800Y-54100D02*
X81000Y-54300D01*
X76200Y-56900D02*
X76200Y-56700D01*
X76200Y-53900D02*
X76200Y-54100D01*
X76200Y-54100D02*
X75800Y-54100D01*
X75800Y-54100D02*
X75800Y-56700D01*
X75800Y-56700D02*
X76600Y-56700D01*
X76600Y-56700D02*
X76600Y-54100D01*
X76600Y-54100D02*
X76200Y-54100D01*
X76000Y-56700D02*
X75800Y-56500D01*
G54D13*
X79814Y-57374D02*
X79814Y-58374D01*
X79814Y-58374D02*
X76814Y-58374D01*
X76814Y-58374D02*
X76814Y-57374D01*
X76814Y-57374D02*
X79814Y-57374D01*
X78814Y-58374D02*
X78814Y-57374D01*
G54D14*
X77420Y-52800D02*
X79400Y-52800D01*
X79400Y-52800D02*
X79400Y-53800D01*
X79400Y-53800D02*
X77400Y-53800D01*
X77400Y-53800D02*
X77400Y-52800D01*
X77400Y-53050D02*
X77650Y-52800D01*
G54D12*
X80275Y-56019D02*
X80248Y-55995D01*
X80222Y-55947D01*
X80222Y-55828D01*
X80248Y-55780D01*
X80275Y-55757D01*
X80327Y-55733D01*
X80379Y-55733D01*
X80458Y-55757D01*
X80772Y-56042D01*
X80772Y-55733D01*
X80222Y-55566D02*
X80222Y-55233D01*
X80772Y-55447D01*
X80222Y-54947D02*
X80222Y-54900D01*
X80248Y-54852D01*
X80275Y-54828D01*
X80327Y-54804D01*
X80432Y-54780D01*
X80563Y-54780D01*
X80667Y-54804D01*
X80720Y-54828D01*
X80746Y-54852D01*
X80772Y-54900D01*
X80772Y-54947D01*
X80746Y-54995D01*
X80720Y-55019D01*
X80667Y-55042D01*
X80563Y-55066D01*
X80432Y-55066D01*
X80327Y-55042D01*
X80275Y-55019D01*
X80248Y-54995D01*
X80222Y-54947D01*
X76105Y-55911D02*
X76472Y-55911D01*
X75896Y-56030D02*
X76289Y-56150D01*
X76289Y-55840D01*
X76420Y-55650D02*
X76446Y-55626D01*
X76472Y-55650D01*
X76446Y-55673D01*
X76420Y-55650D01*
X76472Y-55650D01*
X75922Y-55459D02*
X75922Y-55126D01*
X76472Y-55340D01*
X76472Y-54935D02*
X75922Y-54935D01*
X76472Y-54650D02*
X76158Y-54864D01*
X75922Y-54650D02*
X76236Y-54935D01*
G54D13*
X80004Y-58061D02*
X80004Y-57661D01*
X80233Y-58061D02*
X80061Y-57833D01*
X80233Y-57661D02*
X80004Y-57890D01*
X80614Y-58061D02*
X80385Y-58061D01*
X80500Y-58061D02*
X80500Y-57661D01*
X80461Y-57719D01*
X80423Y-57757D01*
X80385Y-57776D01*
G54D12*
X79833Y-53423D02*
X79814Y-53442D01*
X79757Y-53461D01*
X79719Y-53461D01*
X79661Y-53442D01*
X79623Y-53404D01*
X79604Y-53366D01*
X79585Y-53290D01*
X79585Y-53233D01*
X79604Y-53157D01*
X79623Y-53119D01*
X79661Y-53080D01*
X79719Y-53061D01*
X79757Y-53061D01*
X79814Y-53080D01*
X79833Y-53100D01*
X80214Y-53461D02*
X79985Y-53461D01*
X80100Y-53461D02*
X80100Y-53061D01*
X80061Y-53119D01*
X80023Y-53157D01*
X79985Y-53176D01*
%LPC*%
G54D15*
X79900Y-56400D03*
X79900Y-54400D03*
X76900Y-56400D03*
X76900Y-54400D03*
X80600Y-53900D03*
X80600Y-56900D03*
X76200Y-56900D03*
X76200Y-53900D03*
G54D16*
X79314Y-57874D03*
G54D17*
X78314Y-57874D03*
X77314Y-57874D03*
G54D15*
X77900Y-53300D03*
X78900Y-53300D03*
M02*
