G04 (created by PCBNEW (2013-07-07 BZR 4022)-stable) date 12/16/2014 7:09:10 PM*
%MOIN*%
G04 Gerber Fmt 3.4, Leading zero omitted, Abs format*
%FSLAX34Y34*%
G01*
G70*
G90*
G04 APERTURE LIST*
%ADD10C,0.00590551*%
%ADD11C,0.055*%
%ADD12R,0.06X0.06*%
%ADD13C,0.06*%
%ADD14C,0.01*%
G04 APERTURE END LIST*
G54D10*
G54D11*
X79900Y-56400D03*
X79900Y-54400D03*
X76900Y-56400D03*
X76900Y-54400D03*
X80600Y-53900D03*
X80600Y-56900D03*
X76200Y-56900D03*
X76200Y-53900D03*
G54D12*
X79400Y-57900D03*
G54D13*
X78400Y-57900D03*
X77400Y-57900D03*
G54D11*
X77900Y-53300D03*
X78900Y-53300D03*
G54D10*
G36*
X80830Y-58230D02*
X79949Y-58230D01*
X79950Y-58150D01*
X79950Y-57649D01*
X79949Y-57550D01*
X79911Y-57458D01*
X79841Y-57387D01*
X79749Y-57349D01*
X79512Y-57350D01*
X79450Y-57412D01*
X79450Y-57850D01*
X79887Y-57850D01*
X79950Y-57787D01*
X79950Y-57649D01*
X79950Y-58150D01*
X79950Y-58012D01*
X79887Y-57950D01*
X79450Y-57950D01*
X79450Y-57957D01*
X79350Y-57957D01*
X79350Y-57950D01*
X79342Y-57950D01*
X79342Y-57850D01*
X79350Y-57850D01*
X79350Y-57412D01*
X79287Y-57350D01*
X79197Y-57349D01*
X79197Y-53667D01*
X78900Y-53370D01*
X78602Y-53667D01*
X78627Y-53760D01*
X78824Y-53829D01*
X79032Y-53818D01*
X79172Y-53760D01*
X79197Y-53667D01*
X79197Y-57349D01*
X79050Y-57349D01*
X78958Y-57387D01*
X78888Y-57458D01*
X78850Y-57550D01*
X78850Y-57572D01*
X78711Y-57434D01*
X78509Y-57350D01*
X78291Y-57349D01*
X78088Y-57433D01*
X77934Y-57588D01*
X77900Y-57669D01*
X77866Y-57588D01*
X77711Y-57434D01*
X77509Y-57350D01*
X77291Y-57349D01*
X77088Y-57433D01*
X76934Y-57588D01*
X76850Y-57790D01*
X76849Y-58008D01*
X76933Y-58211D01*
X76952Y-58230D01*
X75969Y-58230D01*
X75969Y-57372D01*
X76095Y-57424D01*
X76303Y-57425D01*
X76497Y-57345D01*
X76644Y-57197D01*
X76724Y-57004D01*
X76725Y-56895D01*
X76795Y-56924D01*
X77003Y-56925D01*
X77197Y-56845D01*
X77344Y-56697D01*
X77424Y-56504D01*
X77425Y-56296D01*
X77345Y-56103D01*
X77197Y-55955D01*
X77004Y-55875D01*
X76796Y-55874D01*
X76603Y-55954D01*
X76455Y-56102D01*
X76375Y-56295D01*
X76374Y-56404D01*
X76304Y-56375D01*
X76096Y-56374D01*
X75969Y-56427D01*
X75969Y-54372D01*
X76095Y-54424D01*
X76303Y-54425D01*
X76375Y-54395D01*
X76374Y-54503D01*
X76454Y-54697D01*
X76602Y-54844D01*
X76795Y-54924D01*
X77003Y-54925D01*
X77197Y-54845D01*
X77344Y-54697D01*
X77424Y-54504D01*
X77425Y-54296D01*
X77345Y-54103D01*
X77197Y-53955D01*
X77004Y-53875D01*
X76796Y-53874D01*
X76724Y-53904D01*
X76725Y-53796D01*
X76645Y-53603D01*
X76497Y-53455D01*
X76304Y-53375D01*
X76096Y-53374D01*
X75969Y-53427D01*
X75969Y-52969D01*
X77487Y-52969D01*
X77455Y-53002D01*
X77375Y-53195D01*
X77374Y-53403D01*
X77454Y-53597D01*
X77602Y-53744D01*
X77795Y-53824D01*
X78003Y-53825D01*
X78197Y-53745D01*
X78344Y-53597D01*
X78397Y-53471D01*
X78439Y-53572D01*
X78532Y-53597D01*
X78829Y-53300D01*
X78823Y-53294D01*
X78894Y-53223D01*
X78900Y-53229D01*
X78905Y-53223D01*
X78976Y-53294D01*
X78970Y-53300D01*
X79267Y-53597D01*
X79360Y-53572D01*
X79429Y-53375D01*
X79418Y-53167D01*
X79360Y-53027D01*
X79267Y-53002D01*
X79301Y-52969D01*
X80830Y-52969D01*
X80830Y-53424D01*
X80675Y-53370D01*
X80467Y-53381D01*
X80327Y-53439D01*
X80302Y-53532D01*
X80600Y-53829D01*
X80605Y-53823D01*
X80676Y-53894D01*
X80670Y-53900D01*
X80676Y-53905D01*
X80605Y-53976D01*
X80600Y-53970D01*
X80594Y-53976D01*
X80523Y-53905D01*
X80529Y-53900D01*
X80232Y-53602D01*
X80139Y-53627D01*
X80070Y-53824D01*
X80074Y-53903D01*
X80004Y-53875D01*
X79796Y-53874D01*
X79603Y-53954D01*
X79455Y-54102D01*
X79429Y-54163D01*
X79375Y-54295D01*
X79374Y-54503D01*
X79454Y-54697D01*
X79602Y-54844D01*
X79795Y-54924D01*
X80003Y-54925D01*
X80197Y-54845D01*
X80344Y-54697D01*
X80424Y-54504D01*
X80425Y-54394D01*
X80524Y-54429D01*
X80732Y-54418D01*
X80830Y-54378D01*
X80830Y-56427D01*
X80704Y-56375D01*
X80496Y-56374D01*
X80424Y-56404D01*
X80425Y-56296D01*
X80345Y-56103D01*
X80197Y-55955D01*
X80004Y-55875D01*
X79796Y-55874D01*
X79603Y-55954D01*
X79455Y-56102D01*
X79375Y-56295D01*
X79374Y-56503D01*
X79454Y-56697D01*
X79602Y-56844D01*
X79795Y-56924D01*
X80003Y-56925D01*
X80075Y-56895D01*
X80074Y-57003D01*
X80154Y-57197D01*
X80302Y-57344D01*
X80495Y-57424D01*
X80703Y-57425D01*
X80830Y-57372D01*
X80830Y-58230D01*
X80830Y-58230D01*
G37*
G54D14*
X80830Y-58230D02*
X79949Y-58230D01*
X79950Y-58150D01*
X79950Y-57649D01*
X79949Y-57550D01*
X79911Y-57458D01*
X79841Y-57387D01*
X79749Y-57349D01*
X79512Y-57350D01*
X79450Y-57412D01*
X79450Y-57850D01*
X79887Y-57850D01*
X79950Y-57787D01*
X79950Y-57649D01*
X79950Y-58150D01*
X79950Y-58012D01*
X79887Y-57950D01*
X79450Y-57950D01*
X79450Y-57957D01*
X79350Y-57957D01*
X79350Y-57950D01*
X79342Y-57950D01*
X79342Y-57850D01*
X79350Y-57850D01*
X79350Y-57412D01*
X79287Y-57350D01*
X79197Y-57349D01*
X79197Y-53667D01*
X78900Y-53370D01*
X78602Y-53667D01*
X78627Y-53760D01*
X78824Y-53829D01*
X79032Y-53818D01*
X79172Y-53760D01*
X79197Y-53667D01*
X79197Y-57349D01*
X79050Y-57349D01*
X78958Y-57387D01*
X78888Y-57458D01*
X78850Y-57550D01*
X78850Y-57572D01*
X78711Y-57434D01*
X78509Y-57350D01*
X78291Y-57349D01*
X78088Y-57433D01*
X77934Y-57588D01*
X77900Y-57669D01*
X77866Y-57588D01*
X77711Y-57434D01*
X77509Y-57350D01*
X77291Y-57349D01*
X77088Y-57433D01*
X76934Y-57588D01*
X76850Y-57790D01*
X76849Y-58008D01*
X76933Y-58211D01*
X76952Y-58230D01*
X75969Y-58230D01*
X75969Y-57372D01*
X76095Y-57424D01*
X76303Y-57425D01*
X76497Y-57345D01*
X76644Y-57197D01*
X76724Y-57004D01*
X76725Y-56895D01*
X76795Y-56924D01*
X77003Y-56925D01*
X77197Y-56845D01*
X77344Y-56697D01*
X77424Y-56504D01*
X77425Y-56296D01*
X77345Y-56103D01*
X77197Y-55955D01*
X77004Y-55875D01*
X76796Y-55874D01*
X76603Y-55954D01*
X76455Y-56102D01*
X76375Y-56295D01*
X76374Y-56404D01*
X76304Y-56375D01*
X76096Y-56374D01*
X75969Y-56427D01*
X75969Y-54372D01*
X76095Y-54424D01*
X76303Y-54425D01*
X76375Y-54395D01*
X76374Y-54503D01*
X76454Y-54697D01*
X76602Y-54844D01*
X76795Y-54924D01*
X77003Y-54925D01*
X77197Y-54845D01*
X77344Y-54697D01*
X77424Y-54504D01*
X77425Y-54296D01*
X77345Y-54103D01*
X77197Y-53955D01*
X77004Y-53875D01*
X76796Y-53874D01*
X76724Y-53904D01*
X76725Y-53796D01*
X76645Y-53603D01*
X76497Y-53455D01*
X76304Y-53375D01*
X76096Y-53374D01*
X75969Y-53427D01*
X75969Y-52969D01*
X77487Y-52969D01*
X77455Y-53002D01*
X77375Y-53195D01*
X77374Y-53403D01*
X77454Y-53597D01*
X77602Y-53744D01*
X77795Y-53824D01*
X78003Y-53825D01*
X78197Y-53745D01*
X78344Y-53597D01*
X78397Y-53471D01*
X78439Y-53572D01*
X78532Y-53597D01*
X78829Y-53300D01*
X78823Y-53294D01*
X78894Y-53223D01*
X78900Y-53229D01*
X78905Y-53223D01*
X78976Y-53294D01*
X78970Y-53300D01*
X79267Y-53597D01*
X79360Y-53572D01*
X79429Y-53375D01*
X79418Y-53167D01*
X79360Y-53027D01*
X79267Y-53002D01*
X79301Y-52969D01*
X80830Y-52969D01*
X80830Y-53424D01*
X80675Y-53370D01*
X80467Y-53381D01*
X80327Y-53439D01*
X80302Y-53532D01*
X80600Y-53829D01*
X80605Y-53823D01*
X80676Y-53894D01*
X80670Y-53900D01*
X80676Y-53905D01*
X80605Y-53976D01*
X80600Y-53970D01*
X80594Y-53976D01*
X80523Y-53905D01*
X80529Y-53900D01*
X80232Y-53602D01*
X80139Y-53627D01*
X80070Y-53824D01*
X80074Y-53903D01*
X80004Y-53875D01*
X79796Y-53874D01*
X79603Y-53954D01*
X79455Y-54102D01*
X79429Y-54163D01*
X79375Y-54295D01*
X79374Y-54503D01*
X79454Y-54697D01*
X79602Y-54844D01*
X79795Y-54924D01*
X80003Y-54925D01*
X80197Y-54845D01*
X80344Y-54697D01*
X80424Y-54504D01*
X80425Y-54394D01*
X80524Y-54429D01*
X80732Y-54418D01*
X80830Y-54378D01*
X80830Y-56427D01*
X80704Y-56375D01*
X80496Y-56374D01*
X80424Y-56404D01*
X80425Y-56296D01*
X80345Y-56103D01*
X80197Y-55955D01*
X80004Y-55875D01*
X79796Y-55874D01*
X79603Y-55954D01*
X79455Y-56102D01*
X79375Y-56295D01*
X79374Y-56503D01*
X79454Y-56697D01*
X79602Y-56844D01*
X79795Y-56924D01*
X80003Y-56925D01*
X80075Y-56895D01*
X80074Y-57003D01*
X80154Y-57197D01*
X80302Y-57344D01*
X80495Y-57424D01*
X80703Y-57425D01*
X80830Y-57372D01*
X80830Y-58230D01*
M02*
