G04 (created by PCBNEW (2013-07-07 BZR 4022)-stable) date 12/10/2014 10:11:42 PM*
%MOIN*%
G04 Gerber Fmt 3.4, Leading zero omitted, Abs format*
%FSLAX34Y34*%
G01*
G70*
G90*
G04 APERTURE LIST*
%ADD10C,0.00590551*%
%ADD11C,0.011811*%
%ADD12C,0.015*%
%ADD13C,0.008*%
%ADD14C,0.005*%
%ADD15C,0.006*%
%ADD16C,0.012*%
%ADD17C,0.0075*%
%ADD18C,0.019685*%
%ADD19R,0.0906X0.0197*%
%ADD20R,0.0984X0.0787*%
%ADD21C,0.0354*%
%ADD22R,0.144X0.08*%
%ADD23R,0.04X0.08*%
%ADD24R,0.0551X0.0236*%
%ADD25C,0.055*%
%ADD26R,0.06X0.06*%
%ADD27C,0.06*%
%ADD28R,0.055X0.055*%
G04 APERTURE END LIST*
G54D10*
G54D11*
X75912Y-57239D02*
X75912Y-56648D01*
X76053Y-56648D01*
X76137Y-56676D01*
X76194Y-56732D01*
X76222Y-56789D01*
X76250Y-56901D01*
X76250Y-56985D01*
X76222Y-57098D01*
X76194Y-57154D01*
X76137Y-57210D01*
X76053Y-57239D01*
X75912Y-57239D01*
X76728Y-57210D02*
X76672Y-57239D01*
X76559Y-57239D01*
X76503Y-57210D01*
X76475Y-57154D01*
X76475Y-56929D01*
X76503Y-56873D01*
X76559Y-56845D01*
X76672Y-56845D01*
X76728Y-56873D01*
X76756Y-56929D01*
X76756Y-56985D01*
X76475Y-57042D01*
X76981Y-57210D02*
X77037Y-57239D01*
X77150Y-57239D01*
X77206Y-57210D01*
X77234Y-57154D01*
X77234Y-57126D01*
X77206Y-57070D01*
X77150Y-57042D01*
X77065Y-57042D01*
X77009Y-57014D01*
X76981Y-56957D01*
X76981Y-56929D01*
X77009Y-56873D01*
X77065Y-56845D01*
X77150Y-56845D01*
X77206Y-56873D01*
X77487Y-57239D02*
X77487Y-56845D01*
X77487Y-56648D02*
X77459Y-56676D01*
X77487Y-56704D01*
X77515Y-56676D01*
X77487Y-56648D01*
X77487Y-56704D01*
X78021Y-56845D02*
X78021Y-57323D01*
X77993Y-57379D01*
X77965Y-57407D01*
X77909Y-57435D01*
X77825Y-57435D01*
X77768Y-57407D01*
X78021Y-57210D02*
X77965Y-57239D01*
X77853Y-57239D01*
X77796Y-57210D01*
X77768Y-57182D01*
X77740Y-57126D01*
X77740Y-56957D01*
X77768Y-56901D01*
X77796Y-56873D01*
X77853Y-56845D01*
X77965Y-56845D01*
X78021Y-56873D01*
X78303Y-56845D02*
X78303Y-57239D01*
X78303Y-56901D02*
X78331Y-56873D01*
X78387Y-56845D01*
X78471Y-56845D01*
X78528Y-56873D01*
X78556Y-56929D01*
X78556Y-57239D01*
X79062Y-57210D02*
X79006Y-57239D01*
X78893Y-57239D01*
X78837Y-57210D01*
X78809Y-57154D01*
X78809Y-56929D01*
X78837Y-56873D01*
X78893Y-56845D01*
X79006Y-56845D01*
X79062Y-56873D01*
X79090Y-56929D01*
X79090Y-56985D01*
X78809Y-57042D01*
X79596Y-57239D02*
X79596Y-56648D01*
X79596Y-57210D02*
X79540Y-57239D01*
X79428Y-57239D01*
X79371Y-57210D01*
X79343Y-57182D01*
X79315Y-57126D01*
X79315Y-56957D01*
X79343Y-56901D01*
X79371Y-56873D01*
X79428Y-56845D01*
X79540Y-56845D01*
X79596Y-56873D01*
X80524Y-56929D02*
X80609Y-56957D01*
X80637Y-56985D01*
X80665Y-57042D01*
X80665Y-57126D01*
X80637Y-57182D01*
X80609Y-57210D01*
X80552Y-57239D01*
X80327Y-57239D01*
X80327Y-56648D01*
X80524Y-56648D01*
X80580Y-56676D01*
X80609Y-56704D01*
X80637Y-56760D01*
X80637Y-56817D01*
X80609Y-56873D01*
X80580Y-56901D01*
X80524Y-56929D01*
X80327Y-56929D01*
X80862Y-56845D02*
X81002Y-57239D01*
X81143Y-56845D02*
X81002Y-57239D01*
X80946Y-57379D01*
X80918Y-57407D01*
X80862Y-57435D01*
X75631Y-57593D02*
X75969Y-57593D01*
X75800Y-58183D02*
X75800Y-57593D01*
X76109Y-57790D02*
X76250Y-58183D01*
X76390Y-57790D02*
X76250Y-58183D01*
X76194Y-58324D01*
X76165Y-58352D01*
X76109Y-58380D01*
X76700Y-58183D02*
X76643Y-58155D01*
X76615Y-58099D01*
X76615Y-57593D01*
X77150Y-58155D02*
X77093Y-58183D01*
X76981Y-58183D01*
X76925Y-58155D01*
X76897Y-58099D01*
X76897Y-57874D01*
X76925Y-57818D01*
X76981Y-57790D01*
X77093Y-57790D01*
X77150Y-57818D01*
X77178Y-57874D01*
X77178Y-57930D01*
X76897Y-57987D01*
X77431Y-58183D02*
X77431Y-57790D01*
X77431Y-57902D02*
X77459Y-57846D01*
X77487Y-57818D01*
X77543Y-57790D01*
X77600Y-57790D01*
X78246Y-58183D02*
X78246Y-57593D01*
X78246Y-57874D02*
X78584Y-57874D01*
X78584Y-58183D02*
X78584Y-57593D01*
X79118Y-58183D02*
X79118Y-57874D01*
X79090Y-57818D01*
X79034Y-57790D01*
X78921Y-57790D01*
X78865Y-57818D01*
X79118Y-58155D02*
X79062Y-58183D01*
X78921Y-58183D01*
X78865Y-58155D01*
X78837Y-58099D01*
X78837Y-58043D01*
X78865Y-57987D01*
X78921Y-57958D01*
X79062Y-57958D01*
X79118Y-57930D01*
X79652Y-58155D02*
X79596Y-58183D01*
X79484Y-58183D01*
X79428Y-58155D01*
X79399Y-58127D01*
X79371Y-58071D01*
X79371Y-57902D01*
X79399Y-57846D01*
X79428Y-57818D01*
X79484Y-57790D01*
X79596Y-57790D01*
X79652Y-57818D01*
X79906Y-58183D02*
X79906Y-57593D01*
X79962Y-57958D02*
X80131Y-58183D01*
X80131Y-57790D02*
X79906Y-58015D01*
X80609Y-58155D02*
X80552Y-58183D01*
X80440Y-58183D01*
X80384Y-58155D01*
X80356Y-58099D01*
X80356Y-57874D01*
X80384Y-57818D01*
X80440Y-57790D01*
X80552Y-57790D01*
X80609Y-57818D01*
X80637Y-57874D01*
X80637Y-57930D01*
X80356Y-57987D01*
X80805Y-57790D02*
X81030Y-57790D01*
X80890Y-57593D02*
X80890Y-58099D01*
X80918Y-58155D01*
X80974Y-58183D01*
X81030Y-58183D01*
X81143Y-57790D02*
X81368Y-57790D01*
X81227Y-57593D02*
X81227Y-58099D01*
X81255Y-58155D01*
X81312Y-58183D01*
X81368Y-58183D01*
X77487Y-58594D02*
X77515Y-58566D01*
X77571Y-58538D01*
X77712Y-58538D01*
X77768Y-58566D01*
X77796Y-58594D01*
X77825Y-58650D01*
X77825Y-58706D01*
X77796Y-58791D01*
X77459Y-59128D01*
X77825Y-59128D01*
X78190Y-58538D02*
X78246Y-58538D01*
X78303Y-58566D01*
X78331Y-58594D01*
X78359Y-58650D01*
X78387Y-58763D01*
X78387Y-58903D01*
X78359Y-59016D01*
X78331Y-59072D01*
X78303Y-59100D01*
X78246Y-59128D01*
X78190Y-59128D01*
X78134Y-59100D01*
X78106Y-59072D01*
X78078Y-59016D01*
X78050Y-58903D01*
X78050Y-58763D01*
X78078Y-58650D01*
X78106Y-58594D01*
X78134Y-58566D01*
X78190Y-58538D01*
X78949Y-59128D02*
X78612Y-59128D01*
X78781Y-59128D02*
X78781Y-58538D01*
X78724Y-58622D01*
X78668Y-58678D01*
X78612Y-58706D01*
X79456Y-58735D02*
X79456Y-59128D01*
X79315Y-58510D02*
X79174Y-58931D01*
X79540Y-58931D01*
G54D12*
X70083Y-49984D02*
X70083Y-53016D01*
X69689Y-49984D02*
X69689Y-53016D01*
X69689Y-53016D02*
X73311Y-53016D01*
X73311Y-53016D02*
X73311Y-49984D01*
X73311Y-49984D02*
X69689Y-49984D01*
G54D13*
X72600Y-46100D02*
X72600Y-47300D01*
X72600Y-47300D02*
X75400Y-47300D01*
X75400Y-47300D02*
X75400Y-46100D01*
X72600Y-44900D02*
X72600Y-44600D01*
X72600Y-44600D02*
X73200Y-43700D01*
X73200Y-43700D02*
X74800Y-43700D01*
X74800Y-43700D02*
X75400Y-44600D01*
X75400Y-44600D02*
X75400Y-44900D01*
G54D14*
X85200Y-46300D02*
X85250Y-46300D01*
X85250Y-46300D02*
X85250Y-44200D01*
X83750Y-44200D02*
X83750Y-46300D01*
X83750Y-46300D02*
X85200Y-46300D01*
X84300Y-46300D02*
X84300Y-46100D01*
X84300Y-46100D02*
X84700Y-46100D01*
X84700Y-46100D02*
X84700Y-46300D01*
X83750Y-44200D02*
X85250Y-44200D01*
G54D13*
X78750Y-55500D02*
X78550Y-55500D01*
X75750Y-55500D02*
X75950Y-55500D01*
X75950Y-55500D02*
X75950Y-55900D01*
X75950Y-55900D02*
X78550Y-55900D01*
X78550Y-55900D02*
X78550Y-55100D01*
X78550Y-55100D02*
X75950Y-55100D01*
X75950Y-55100D02*
X75950Y-55500D01*
X78550Y-55700D02*
X78350Y-55900D01*
X82500Y-51250D02*
X82500Y-51450D01*
X82500Y-54250D02*
X82500Y-54050D01*
X82500Y-54050D02*
X82900Y-54050D01*
X82900Y-54050D02*
X82900Y-51450D01*
X82900Y-51450D02*
X82100Y-51450D01*
X82100Y-51450D02*
X82100Y-54050D01*
X82100Y-54050D02*
X82500Y-54050D01*
X82700Y-51450D02*
X82900Y-51650D01*
X78250Y-47500D02*
X78450Y-47500D01*
X81250Y-47500D02*
X81050Y-47500D01*
X81050Y-47500D02*
X81050Y-47100D01*
X81050Y-47100D02*
X78450Y-47100D01*
X78450Y-47100D02*
X78450Y-47900D01*
X78450Y-47900D02*
X81050Y-47900D01*
X81050Y-47900D02*
X81050Y-47500D01*
X78450Y-47300D02*
X78650Y-47100D01*
X74500Y-51750D02*
X74500Y-51550D01*
X74500Y-48750D02*
X74500Y-48950D01*
X74500Y-48950D02*
X74100Y-48950D01*
X74100Y-48950D02*
X74100Y-51550D01*
X74100Y-51550D02*
X74900Y-51550D01*
X74900Y-51550D02*
X74900Y-48950D01*
X74900Y-48950D02*
X74500Y-48950D01*
X74300Y-51550D02*
X74100Y-51350D01*
X83500Y-59000D02*
X83700Y-59000D01*
X86500Y-59000D02*
X86300Y-59000D01*
X86300Y-59000D02*
X86300Y-58600D01*
X86300Y-58600D02*
X83700Y-58600D01*
X83700Y-58600D02*
X83700Y-59400D01*
X83700Y-59400D02*
X86300Y-59400D01*
X86300Y-59400D02*
X86300Y-59000D01*
X83700Y-58800D02*
X83900Y-58600D01*
X76000Y-43750D02*
X76200Y-43750D01*
X79000Y-43750D02*
X78800Y-43750D01*
X78800Y-43750D02*
X78800Y-43350D01*
X78800Y-43350D02*
X76200Y-43350D01*
X76200Y-43350D02*
X76200Y-44150D01*
X76200Y-44150D02*
X78800Y-44150D01*
X78800Y-44150D02*
X78800Y-43750D01*
X76200Y-43550D02*
X76400Y-43350D01*
X86500Y-58000D02*
X83500Y-58000D01*
X83500Y-56000D02*
X86500Y-56000D01*
X86500Y-56000D02*
X86500Y-58000D01*
X83500Y-58000D02*
X83500Y-56000D01*
G54D15*
X82000Y-48500D02*
X83000Y-48500D01*
X83000Y-48500D02*
X83000Y-50500D01*
X83000Y-50500D02*
X82000Y-50500D01*
X82000Y-50500D02*
X82000Y-48500D01*
X75500Y-48000D02*
X75500Y-47000D01*
X75500Y-47000D02*
X77500Y-47000D01*
X77500Y-47000D02*
X77500Y-48000D01*
X77500Y-48000D02*
X75500Y-48000D01*
X75000Y-54500D02*
X74000Y-54500D01*
X74000Y-54500D02*
X74000Y-52500D01*
X74000Y-52500D02*
X75000Y-52500D01*
X75000Y-52500D02*
X75000Y-54500D01*
X81500Y-55000D02*
X81500Y-56000D01*
X81500Y-56000D02*
X79500Y-56000D01*
X79500Y-56000D02*
X79500Y-55000D01*
X79500Y-55000D02*
X81500Y-55000D01*
X85500Y-55500D02*
X84500Y-55500D01*
X84500Y-54500D02*
X85500Y-54500D01*
X84500Y-55500D02*
X84500Y-54500D01*
X85500Y-54500D02*
X85500Y-55500D01*
X86500Y-55500D02*
X85500Y-55500D01*
X85500Y-54500D02*
X86500Y-54500D01*
X85500Y-55500D02*
X85500Y-54500D01*
X86500Y-54500D02*
X86500Y-55500D01*
X84500Y-55500D02*
X83500Y-55500D01*
X83500Y-54500D02*
X84500Y-54500D01*
X83500Y-55500D02*
X83500Y-54500D01*
X84500Y-54500D02*
X84500Y-55500D01*
G54D16*
X79750Y-45500D02*
G75*
G03X79750Y-45500I-1000J0D01*
G74*
G01*
X78500Y-44500D02*
X78500Y-44750D01*
X78500Y-44750D02*
X79000Y-44750D01*
X79000Y-44750D02*
X79000Y-44500D01*
G54D14*
X77501Y-45500D02*
G75*
G03X77501Y-45500I-1001J0D01*
G74*
G01*
X72501Y-45500D02*
G75*
G03X72501Y-45500I-1001J0D01*
G74*
G01*
X84601Y-47600D02*
G75*
G03X84601Y-47600I-1001J0D01*
G74*
G01*
G54D13*
X71195Y-53978D02*
X71195Y-54302D01*
X71214Y-54340D01*
X71233Y-54359D01*
X71271Y-54378D01*
X71347Y-54378D01*
X71385Y-54359D01*
X71404Y-54340D01*
X71423Y-54302D01*
X71423Y-53978D01*
X71823Y-54378D02*
X71595Y-54378D01*
X71709Y-54378D02*
X71709Y-53978D01*
X71671Y-54036D01*
X71633Y-54074D01*
X71595Y-54093D01*
X73733Y-45361D02*
X73600Y-45171D01*
X73504Y-45361D02*
X73504Y-44961D01*
X73657Y-44961D01*
X73695Y-44980D01*
X73714Y-45000D01*
X73733Y-45038D01*
X73733Y-45095D01*
X73714Y-45133D01*
X73695Y-45152D01*
X73657Y-45171D01*
X73504Y-45171D01*
X74114Y-44980D02*
X74076Y-44961D01*
X74019Y-44961D01*
X73961Y-44980D01*
X73923Y-45019D01*
X73904Y-45057D01*
X73885Y-45133D01*
X73885Y-45190D01*
X73904Y-45266D01*
X73923Y-45304D01*
X73961Y-45342D01*
X74019Y-45361D01*
X74057Y-45361D01*
X74114Y-45342D01*
X74133Y-45323D01*
X74133Y-45190D01*
X74057Y-45190D01*
X74514Y-45361D02*
X74285Y-45361D01*
X74400Y-45361D02*
X74400Y-44961D01*
X74361Y-45019D01*
X74323Y-45057D01*
X74285Y-45076D01*
X72923Y-45561D02*
X73152Y-45561D01*
X73038Y-45961D02*
X73038Y-45561D01*
X73514Y-45923D02*
X73495Y-45942D01*
X73438Y-45961D01*
X73400Y-45961D01*
X73342Y-45942D01*
X73304Y-45904D01*
X73285Y-45866D01*
X73266Y-45790D01*
X73266Y-45733D01*
X73285Y-45657D01*
X73304Y-45619D01*
X73342Y-45580D01*
X73400Y-45561D01*
X73438Y-45561D01*
X73495Y-45580D01*
X73514Y-45600D01*
X73895Y-45961D02*
X73666Y-45961D01*
X73780Y-45961D02*
X73780Y-45561D01*
X73742Y-45619D01*
X73704Y-45657D01*
X73666Y-45676D01*
X74047Y-45600D02*
X74066Y-45580D01*
X74104Y-45561D01*
X74200Y-45561D01*
X74238Y-45580D01*
X74257Y-45600D01*
X74276Y-45638D01*
X74276Y-45676D01*
X74257Y-45733D01*
X74028Y-45961D01*
X74276Y-45961D01*
X74619Y-45561D02*
X74542Y-45561D01*
X74504Y-45580D01*
X74485Y-45600D01*
X74447Y-45657D01*
X74428Y-45733D01*
X74428Y-45885D01*
X74447Y-45923D01*
X74466Y-45942D01*
X74504Y-45961D01*
X74580Y-45961D01*
X74619Y-45942D01*
X74638Y-45923D01*
X74657Y-45885D01*
X74657Y-45790D01*
X74638Y-45752D01*
X74619Y-45733D01*
X74580Y-45714D01*
X74504Y-45714D01*
X74466Y-45733D01*
X74447Y-45752D01*
X74428Y-45790D01*
X74809Y-45600D02*
X74828Y-45580D01*
X74866Y-45561D01*
X74961Y-45561D01*
X75000Y-45580D01*
X75019Y-45600D01*
X75038Y-45638D01*
X75038Y-45676D01*
X75019Y-45733D01*
X74790Y-45961D01*
X75038Y-45961D01*
G54D15*
X84332Y-45689D02*
X83882Y-45689D01*
X84289Y-45217D02*
X84310Y-45239D01*
X84332Y-45303D01*
X84332Y-45346D01*
X84310Y-45410D01*
X84267Y-45453D01*
X84225Y-45474D01*
X84139Y-45496D01*
X84075Y-45496D01*
X83989Y-45474D01*
X83946Y-45453D01*
X83903Y-45410D01*
X83882Y-45346D01*
X83882Y-45303D01*
X83903Y-45239D01*
X83925Y-45217D01*
X84332Y-44789D02*
X84332Y-45046D01*
X84332Y-44917D02*
X83882Y-44917D01*
X83946Y-44960D01*
X83989Y-45003D01*
X84010Y-45046D01*
X84941Y-46733D02*
X84941Y-46566D01*
X85041Y-46766D02*
X84691Y-46650D01*
X85041Y-46533D01*
X84691Y-46466D02*
X84691Y-46266D01*
X85041Y-46366D02*
X84691Y-46366D01*
X84691Y-46200D02*
X84691Y-46000D01*
X85041Y-46100D02*
X84691Y-46100D01*
X85041Y-45883D02*
X84691Y-45883D01*
X85041Y-45716D02*
X84691Y-45716D01*
X85041Y-45516D01*
X84691Y-45516D01*
X84875Y-45283D02*
X85041Y-45283D01*
X84691Y-45400D02*
X84875Y-45283D01*
X84691Y-45166D01*
X84841Y-45000D02*
X84825Y-45033D01*
X84808Y-45050D01*
X84775Y-45066D01*
X84758Y-45066D01*
X84725Y-45050D01*
X84708Y-45033D01*
X84691Y-45000D01*
X84691Y-44933D01*
X84708Y-44900D01*
X84725Y-44883D01*
X84758Y-44866D01*
X84775Y-44866D01*
X84808Y-44883D01*
X84825Y-44900D01*
X84841Y-44933D01*
X84841Y-45000D01*
X84858Y-45033D01*
X84875Y-45050D01*
X84908Y-45066D01*
X84975Y-45066D01*
X85008Y-45050D01*
X85025Y-45033D01*
X85041Y-45000D01*
X85041Y-44933D01*
X85025Y-44900D01*
X85008Y-44883D01*
X84975Y-44866D01*
X84908Y-44866D01*
X84875Y-44883D01*
X84858Y-44900D01*
X84841Y-44933D01*
X84691Y-44550D02*
X84691Y-44716D01*
X84858Y-44733D01*
X84841Y-44716D01*
X84825Y-44683D01*
X84825Y-44600D01*
X84841Y-44566D01*
X84858Y-44550D01*
X84891Y-44533D01*
X84975Y-44533D01*
X85008Y-44550D01*
X85025Y-44566D01*
X85041Y-44600D01*
X85041Y-44683D01*
X85025Y-44716D01*
X85008Y-44733D01*
X84908Y-44383D02*
X84908Y-44116D01*
X85025Y-43966D02*
X85041Y-43916D01*
X85041Y-43833D01*
X85025Y-43800D01*
X85008Y-43783D01*
X84975Y-43766D01*
X84941Y-43766D01*
X84908Y-43783D01*
X84891Y-43800D01*
X84875Y-43833D01*
X84858Y-43900D01*
X84841Y-43933D01*
X84825Y-43950D01*
X84791Y-43966D01*
X84758Y-43966D01*
X84725Y-43950D01*
X84708Y-43933D01*
X84691Y-43900D01*
X84691Y-43816D01*
X84708Y-43766D01*
G54D13*
X76964Y-55358D02*
X76916Y-55332D01*
X76892Y-55305D01*
X76869Y-55253D01*
X76869Y-55227D01*
X76892Y-55175D01*
X76916Y-55148D01*
X76964Y-55122D01*
X77059Y-55122D01*
X77107Y-55148D01*
X77130Y-55175D01*
X77154Y-55227D01*
X77154Y-55253D01*
X77130Y-55305D01*
X77107Y-55332D01*
X77059Y-55358D01*
X76964Y-55358D01*
X76916Y-55384D01*
X76892Y-55410D01*
X76869Y-55463D01*
X76869Y-55567D01*
X76892Y-55620D01*
X76916Y-55646D01*
X76964Y-55672D01*
X77059Y-55672D01*
X77107Y-55646D01*
X77130Y-55620D01*
X77154Y-55567D01*
X77154Y-55463D01*
X77130Y-55410D01*
X77107Y-55384D01*
X77059Y-55358D01*
X77345Y-55175D02*
X77369Y-55148D01*
X77416Y-55122D01*
X77535Y-55122D01*
X77583Y-55148D01*
X77607Y-55175D01*
X77630Y-55227D01*
X77630Y-55279D01*
X77607Y-55358D01*
X77321Y-55672D01*
X77630Y-55672D01*
X82358Y-53035D02*
X82332Y-53083D01*
X82305Y-53107D01*
X82253Y-53130D01*
X82227Y-53130D01*
X82175Y-53107D01*
X82148Y-53083D01*
X82122Y-53035D01*
X82122Y-52940D01*
X82148Y-52892D01*
X82175Y-52869D01*
X82227Y-52845D01*
X82253Y-52845D01*
X82305Y-52869D01*
X82332Y-52892D01*
X82358Y-52940D01*
X82358Y-53035D01*
X82384Y-53083D01*
X82410Y-53107D01*
X82463Y-53130D01*
X82567Y-53130D01*
X82620Y-53107D01*
X82646Y-53083D01*
X82672Y-53035D01*
X82672Y-52940D01*
X82646Y-52892D01*
X82620Y-52869D01*
X82567Y-52845D01*
X82463Y-52845D01*
X82410Y-52869D01*
X82384Y-52892D01*
X82358Y-52940D01*
X82175Y-52654D02*
X82148Y-52630D01*
X82122Y-52583D01*
X82122Y-52464D01*
X82148Y-52416D01*
X82175Y-52392D01*
X82227Y-52369D01*
X82279Y-52369D01*
X82358Y-52392D01*
X82672Y-52678D01*
X82672Y-52369D01*
X79464Y-47458D02*
X79416Y-47432D01*
X79392Y-47405D01*
X79369Y-47353D01*
X79369Y-47327D01*
X79392Y-47275D01*
X79416Y-47248D01*
X79464Y-47222D01*
X79559Y-47222D01*
X79607Y-47248D01*
X79630Y-47275D01*
X79654Y-47327D01*
X79654Y-47353D01*
X79630Y-47405D01*
X79607Y-47432D01*
X79559Y-47458D01*
X79464Y-47458D01*
X79416Y-47484D01*
X79392Y-47510D01*
X79369Y-47563D01*
X79369Y-47667D01*
X79392Y-47720D01*
X79416Y-47746D01*
X79464Y-47772D01*
X79559Y-47772D01*
X79607Y-47746D01*
X79630Y-47720D01*
X79654Y-47667D01*
X79654Y-47563D01*
X79630Y-47510D01*
X79607Y-47484D01*
X79559Y-47458D01*
X79845Y-47275D02*
X79869Y-47248D01*
X79916Y-47222D01*
X80035Y-47222D01*
X80083Y-47248D01*
X80107Y-47275D01*
X80130Y-47327D01*
X80130Y-47379D01*
X80107Y-47458D01*
X79821Y-47772D01*
X80130Y-47772D01*
X74458Y-50535D02*
X74432Y-50583D01*
X74405Y-50607D01*
X74353Y-50630D01*
X74327Y-50630D01*
X74275Y-50607D01*
X74248Y-50583D01*
X74222Y-50535D01*
X74222Y-50440D01*
X74248Y-50392D01*
X74275Y-50369D01*
X74327Y-50345D01*
X74353Y-50345D01*
X74405Y-50369D01*
X74432Y-50392D01*
X74458Y-50440D01*
X74458Y-50535D01*
X74484Y-50583D01*
X74510Y-50607D01*
X74563Y-50630D01*
X74667Y-50630D01*
X74720Y-50607D01*
X74746Y-50583D01*
X74772Y-50535D01*
X74772Y-50440D01*
X74746Y-50392D01*
X74720Y-50369D01*
X74667Y-50345D01*
X74563Y-50345D01*
X74510Y-50369D01*
X74484Y-50392D01*
X74458Y-50440D01*
X74275Y-50154D02*
X74248Y-50130D01*
X74222Y-50083D01*
X74222Y-49964D01*
X74248Y-49916D01*
X74275Y-49892D01*
X74327Y-49869D01*
X74379Y-49869D01*
X74458Y-49892D01*
X74772Y-50178D01*
X74772Y-49869D01*
X84607Y-58905D02*
X84607Y-59272D01*
X84488Y-58696D02*
X84369Y-59089D01*
X84678Y-59089D01*
X84821Y-58722D02*
X85154Y-58722D01*
X84940Y-59272D01*
X85345Y-59272D02*
X85345Y-58722D01*
X85630Y-59272D02*
X85416Y-58958D01*
X85630Y-58722D02*
X85345Y-59036D01*
X77166Y-44022D02*
X76880Y-44022D01*
X77023Y-44022D02*
X77023Y-43472D01*
X76976Y-43551D01*
X76928Y-43603D01*
X76880Y-43629D01*
X77333Y-43472D02*
X77642Y-43472D01*
X77476Y-43682D01*
X77547Y-43682D01*
X77595Y-43708D01*
X77619Y-43734D01*
X77642Y-43786D01*
X77642Y-43917D01*
X77619Y-43970D01*
X77595Y-43996D01*
X77547Y-44022D01*
X77404Y-44022D01*
X77357Y-43996D01*
X77333Y-43970D01*
X77952Y-43472D02*
X78000Y-43472D01*
X78047Y-43498D01*
X78071Y-43525D01*
X78095Y-43577D01*
X78119Y-43682D01*
X78119Y-43813D01*
X78095Y-43917D01*
X78071Y-43970D01*
X78047Y-43996D01*
X78000Y-44022D01*
X77952Y-44022D01*
X77904Y-43996D01*
X77880Y-43970D01*
X77857Y-43917D01*
X77833Y-43813D01*
X77833Y-43682D01*
X77857Y-43577D01*
X77880Y-43525D01*
X77904Y-43498D01*
X77952Y-43472D01*
X84514Y-55623D02*
X84495Y-55642D01*
X84438Y-55661D01*
X84400Y-55661D01*
X84342Y-55642D01*
X84304Y-55604D01*
X84285Y-55566D01*
X84266Y-55490D01*
X84266Y-55433D01*
X84285Y-55357D01*
X84304Y-55319D01*
X84342Y-55280D01*
X84400Y-55261D01*
X84438Y-55261D01*
X84495Y-55280D01*
X84514Y-55300D01*
X84761Y-55261D02*
X84838Y-55261D01*
X84876Y-55280D01*
X84914Y-55319D01*
X84933Y-55395D01*
X84933Y-55528D01*
X84914Y-55604D01*
X84876Y-55642D01*
X84838Y-55661D01*
X84761Y-55661D01*
X84723Y-55642D01*
X84685Y-55604D01*
X84666Y-55528D01*
X84666Y-55395D01*
X84685Y-55319D01*
X84723Y-55280D01*
X84761Y-55261D01*
X85104Y-55661D02*
X85104Y-55261D01*
X85333Y-55661D01*
X85333Y-55261D01*
X85733Y-55661D02*
X85504Y-55661D01*
X85619Y-55661D02*
X85619Y-55261D01*
X85580Y-55319D01*
X85542Y-55357D01*
X85504Y-55376D01*
G54D15*
X83371Y-49721D02*
X83071Y-49721D01*
X83071Y-49607D01*
X83085Y-49578D01*
X83100Y-49564D01*
X83128Y-49550D01*
X83171Y-49550D01*
X83200Y-49564D01*
X83214Y-49578D01*
X83228Y-49607D01*
X83228Y-49721D01*
X83071Y-49450D02*
X83071Y-49264D01*
X83185Y-49364D01*
X83185Y-49321D01*
X83200Y-49292D01*
X83214Y-49278D01*
X83242Y-49264D01*
X83314Y-49264D01*
X83342Y-49278D01*
X83357Y-49292D01*
X83371Y-49321D01*
X83371Y-49407D01*
X83357Y-49435D01*
X83342Y-49450D01*
X76278Y-46871D02*
X76278Y-46571D01*
X76392Y-46571D01*
X76421Y-46585D01*
X76435Y-46600D01*
X76450Y-46628D01*
X76450Y-46671D01*
X76435Y-46700D01*
X76421Y-46714D01*
X76392Y-46728D01*
X76278Y-46728D01*
X76564Y-46600D02*
X76578Y-46585D01*
X76607Y-46571D01*
X76678Y-46571D01*
X76707Y-46585D01*
X76721Y-46600D01*
X76735Y-46628D01*
X76735Y-46657D01*
X76721Y-46700D01*
X76550Y-46871D01*
X76735Y-46871D01*
X73871Y-53721D02*
X73571Y-53721D01*
X73571Y-53607D01*
X73585Y-53578D01*
X73600Y-53564D01*
X73628Y-53550D01*
X73671Y-53550D01*
X73700Y-53564D01*
X73714Y-53578D01*
X73728Y-53607D01*
X73728Y-53721D01*
X73871Y-53264D02*
X73871Y-53435D01*
X73871Y-53350D02*
X73571Y-53350D01*
X73614Y-53378D01*
X73642Y-53407D01*
X73657Y-53435D01*
X80278Y-56371D02*
X80278Y-56071D01*
X80392Y-56071D01*
X80421Y-56085D01*
X80435Y-56100D01*
X80450Y-56128D01*
X80450Y-56171D01*
X80435Y-56200D01*
X80421Y-56214D01*
X80392Y-56228D01*
X80278Y-56228D01*
X80707Y-56171D02*
X80707Y-56371D01*
X80635Y-56057D02*
X80564Y-56271D01*
X80750Y-56271D01*
X84778Y-54371D02*
X84778Y-54071D01*
X84892Y-54071D01*
X84921Y-54085D01*
X84935Y-54100D01*
X84950Y-54128D01*
X84950Y-54171D01*
X84935Y-54200D01*
X84921Y-54214D01*
X84892Y-54228D01*
X84778Y-54228D01*
X85050Y-54071D02*
X85250Y-54071D01*
X85121Y-54371D01*
X85778Y-54371D02*
X85778Y-54071D01*
X85892Y-54071D01*
X85921Y-54085D01*
X85935Y-54100D01*
X85950Y-54128D01*
X85950Y-54171D01*
X85935Y-54200D01*
X85921Y-54214D01*
X85892Y-54228D01*
X85778Y-54228D01*
X86207Y-54071D02*
X86150Y-54071D01*
X86121Y-54085D01*
X86107Y-54100D01*
X86078Y-54142D01*
X86064Y-54200D01*
X86064Y-54314D01*
X86078Y-54342D01*
X86092Y-54357D01*
X86121Y-54371D01*
X86178Y-54371D01*
X86207Y-54357D01*
X86221Y-54342D01*
X86235Y-54314D01*
X86235Y-54242D01*
X86221Y-54214D01*
X86207Y-54200D01*
X86178Y-54185D01*
X86121Y-54185D01*
X86092Y-54200D01*
X86078Y-54214D01*
X86064Y-54242D01*
X83778Y-54371D02*
X83778Y-54071D01*
X83892Y-54071D01*
X83921Y-54085D01*
X83935Y-54100D01*
X83950Y-54128D01*
X83950Y-54171D01*
X83935Y-54200D01*
X83921Y-54214D01*
X83892Y-54228D01*
X83778Y-54228D01*
X84221Y-54071D02*
X84078Y-54071D01*
X84064Y-54214D01*
X84078Y-54200D01*
X84107Y-54185D01*
X84178Y-54185D01*
X84207Y-54200D01*
X84221Y-54214D01*
X84235Y-54242D01*
X84235Y-54314D01*
X84221Y-54342D01*
X84207Y-54357D01*
X84178Y-54371D01*
X84107Y-54371D01*
X84078Y-54357D01*
X84064Y-54342D01*
G54D16*
X77492Y-45942D02*
X76892Y-45942D01*
X76892Y-45800D01*
X76921Y-45714D01*
X76978Y-45657D01*
X77035Y-45628D01*
X77150Y-45600D01*
X77235Y-45600D01*
X77350Y-45628D01*
X77407Y-45657D01*
X77464Y-45714D01*
X77492Y-45800D01*
X77492Y-45942D01*
X77492Y-45028D02*
X77492Y-45371D01*
X77492Y-45200D02*
X76892Y-45200D01*
X76978Y-45257D01*
X77035Y-45314D01*
X77064Y-45371D01*
G54D14*
X76093Y-45550D02*
X76108Y-45564D01*
X76122Y-45607D01*
X76122Y-45635D01*
X76108Y-45678D01*
X76079Y-45707D01*
X76051Y-45721D01*
X75993Y-45735D01*
X75951Y-45735D01*
X75893Y-45721D01*
X75865Y-45707D01*
X75836Y-45678D01*
X75822Y-45635D01*
X75822Y-45607D01*
X75836Y-45564D01*
X75851Y-45550D01*
X75851Y-45435D02*
X75836Y-45421D01*
X75822Y-45392D01*
X75822Y-45321D01*
X75836Y-45292D01*
X75851Y-45278D01*
X75879Y-45264D01*
X75908Y-45264D01*
X75951Y-45278D01*
X76122Y-45450D01*
X76122Y-45264D01*
X77121Y-45767D02*
X77121Y-45910D01*
X77121Y-45839D02*
X76821Y-45839D01*
X76864Y-45863D01*
X76892Y-45886D01*
X76907Y-45910D01*
X76821Y-45613D02*
X76821Y-45589D01*
X76835Y-45565D01*
X76850Y-45553D01*
X76878Y-45541D01*
X76935Y-45529D01*
X77007Y-45529D01*
X77064Y-45541D01*
X77092Y-45553D01*
X77107Y-45565D01*
X77121Y-45589D01*
X77121Y-45613D01*
X77107Y-45636D01*
X77092Y-45648D01*
X77064Y-45660D01*
X77007Y-45672D01*
X76935Y-45672D01*
X76878Y-45660D01*
X76850Y-45648D01*
X76835Y-45636D01*
X76821Y-45613D01*
X76921Y-45315D02*
X77121Y-45315D01*
X76921Y-45422D02*
X77078Y-45422D01*
X77107Y-45410D01*
X77121Y-45386D01*
X77121Y-45351D01*
X77107Y-45327D01*
X77092Y-45315D01*
X76964Y-45113D02*
X76964Y-45196D01*
X77121Y-45196D02*
X76821Y-45196D01*
X76821Y-45077D01*
G54D17*
X76507Y-46514D02*
X76507Y-46285D01*
X76621Y-46400D02*
X76392Y-46400D01*
G54D13*
G54D14*
X71093Y-45550D02*
X71108Y-45564D01*
X71122Y-45607D01*
X71122Y-45635D01*
X71108Y-45678D01*
X71079Y-45707D01*
X71051Y-45721D01*
X70993Y-45735D01*
X70951Y-45735D01*
X70893Y-45721D01*
X70865Y-45707D01*
X70836Y-45678D01*
X70822Y-45635D01*
X70822Y-45607D01*
X70836Y-45564D01*
X70851Y-45550D01*
X71122Y-45264D02*
X71122Y-45435D01*
X71122Y-45350D02*
X70822Y-45350D01*
X70865Y-45378D01*
X70893Y-45407D01*
X70908Y-45435D01*
X72121Y-45767D02*
X72121Y-45910D01*
X72121Y-45839D02*
X71821Y-45839D01*
X71864Y-45863D01*
X71892Y-45886D01*
X71907Y-45910D01*
X71821Y-45613D02*
X71821Y-45589D01*
X71835Y-45565D01*
X71850Y-45553D01*
X71878Y-45541D01*
X71935Y-45529D01*
X72007Y-45529D01*
X72064Y-45541D01*
X72092Y-45553D01*
X72107Y-45565D01*
X72121Y-45589D01*
X72121Y-45613D01*
X72107Y-45636D01*
X72092Y-45648D01*
X72064Y-45660D01*
X72007Y-45672D01*
X71935Y-45672D01*
X71878Y-45660D01*
X71850Y-45648D01*
X71835Y-45636D01*
X71821Y-45613D01*
X71921Y-45315D02*
X72121Y-45315D01*
X71921Y-45422D02*
X72078Y-45422D01*
X72107Y-45410D01*
X72121Y-45386D01*
X72121Y-45351D01*
X72107Y-45327D01*
X72092Y-45315D01*
X71964Y-45113D02*
X71964Y-45196D01*
X72121Y-45196D02*
X71821Y-45196D01*
X71821Y-45077D01*
G54D17*
X71507Y-46514D02*
X71507Y-46285D01*
X71621Y-46400D02*
X71392Y-46400D01*
G54D13*
G54D14*
X84191Y-47650D02*
X84206Y-47664D01*
X84220Y-47707D01*
X84220Y-47735D01*
X84206Y-47778D01*
X84177Y-47807D01*
X84149Y-47821D01*
X84091Y-47835D01*
X84049Y-47835D01*
X83991Y-47821D01*
X83963Y-47807D01*
X83934Y-47778D01*
X83920Y-47735D01*
X83920Y-47707D01*
X83934Y-47664D01*
X83949Y-47650D01*
X83920Y-47550D02*
X83920Y-47364D01*
X84034Y-47464D01*
X84034Y-47421D01*
X84049Y-47392D01*
X84063Y-47378D01*
X84091Y-47364D01*
X84163Y-47364D01*
X84191Y-47378D01*
X84206Y-47392D01*
X84220Y-47421D01*
X84220Y-47507D01*
X84206Y-47535D01*
X84191Y-47550D01*
X83221Y-47748D02*
X83221Y-47891D01*
X83221Y-47820D02*
X82921Y-47820D01*
X82964Y-47844D01*
X82992Y-47867D01*
X83007Y-47891D01*
X83021Y-47534D02*
X83221Y-47534D01*
X83021Y-47641D02*
X83178Y-47641D01*
X83207Y-47629D01*
X83221Y-47605D01*
X83221Y-47570D01*
X83207Y-47546D01*
X83192Y-47534D01*
X83064Y-47332D02*
X83064Y-47415D01*
X83221Y-47415D02*
X82921Y-47415D01*
X82921Y-47296D01*
G54D17*
X83607Y-46814D02*
X83607Y-46585D01*
X83721Y-46700D02*
X83492Y-46700D01*
G54D13*
%LPC*%
G54D18*
X72820Y-54637D02*
X72820Y-55425D01*
X71442Y-55031D02*
X72820Y-55031D01*
X71835Y-55818D02*
X71835Y-56475D01*
X71442Y-55687D02*
X72820Y-56146D01*
X71442Y-56606D01*
X71507Y-57000D02*
X71442Y-57196D01*
X71442Y-57524D01*
X71507Y-57656D01*
X71573Y-57721D01*
X71704Y-57787D01*
X71835Y-57787D01*
X71967Y-57721D01*
X72032Y-57656D01*
X72098Y-57524D01*
X72164Y-57262D01*
X72229Y-57131D01*
X72295Y-57065D01*
X72426Y-57000D01*
X72557Y-57000D01*
X72688Y-57065D01*
X72754Y-57131D01*
X72820Y-57262D01*
X72820Y-57590D01*
X72754Y-57787D01*
X71442Y-58377D02*
X72820Y-58377D01*
X72164Y-58377D02*
X72164Y-59165D01*
X71442Y-59165D02*
X72820Y-59165D01*
G54D19*
X72858Y-50870D03*
X72858Y-51185D03*
X72858Y-51500D03*
X72858Y-51815D03*
X72858Y-52130D03*
G54D20*
X72819Y-49748D03*
X70654Y-49748D03*
X72819Y-53252D03*
X70654Y-53252D03*
G54D21*
X71835Y-50634D03*
X71835Y-52366D03*
G54D22*
X74000Y-44200D03*
G54D23*
X74000Y-46800D03*
X74900Y-46800D03*
X73100Y-46800D03*
G54D24*
X83450Y-46000D03*
X85550Y-46000D03*
X83450Y-45500D03*
X83450Y-45000D03*
X83450Y-44500D03*
X85550Y-45500D03*
X85550Y-45000D03*
X85550Y-44500D03*
G54D25*
X78750Y-55500D03*
X75750Y-55500D03*
X82500Y-51250D03*
X82500Y-54250D03*
X78250Y-47500D03*
X81250Y-47500D03*
X74500Y-51750D03*
X74500Y-48750D03*
X83500Y-59000D03*
X86500Y-59000D03*
X76000Y-43750D03*
X79000Y-43750D03*
G54D26*
X84000Y-57500D03*
G54D27*
X84000Y-56500D03*
X85000Y-57500D03*
X85000Y-56500D03*
X86000Y-57500D03*
X86000Y-56500D03*
G54D26*
X82500Y-49000D03*
G54D27*
X82500Y-50000D03*
G54D26*
X76000Y-47500D03*
G54D27*
X77000Y-47500D03*
G54D26*
X74500Y-54000D03*
G54D27*
X74500Y-53000D03*
G54D26*
X81000Y-55500D03*
G54D27*
X80000Y-55500D03*
G54D26*
X85000Y-55000D03*
X86000Y-55000D03*
X84000Y-55000D03*
G54D28*
X78750Y-46000D03*
G54D25*
X78750Y-45000D03*
G54D28*
X76500Y-46000D03*
G54D25*
X76500Y-45000D03*
G54D28*
X71500Y-46000D03*
G54D25*
X71500Y-45000D03*
G54D28*
X83600Y-47100D03*
G54D25*
X83600Y-48100D03*
M02*
