G04 (created by PCBNEW (2013-07-07 BZR 4022)-stable) date 12/10/2014 10:11:42 PM*
%MOIN*%
G04 Gerber Fmt 3.4, Leading zero omitted, Abs format*
%FSLAX34Y34*%
G01*
G70*
G90*
G04 APERTURE LIST*
%ADD10C,0.00590551*%
%ADD11R,0.0906X0.0197*%
%ADD12R,0.0984X0.0787*%
%ADD13R,0.144X0.08*%
%ADD14R,0.04X0.08*%
%ADD15R,0.0551X0.0236*%
%ADD16C,0.055*%
%ADD17R,0.06X0.06*%
%ADD18C,0.06*%
%ADD19R,0.055X0.055*%
%ADD20C,0.02*%
%ADD21C,0.0216535*%
%ADD22C,0.01*%
G04 APERTURE END LIST*
G54D10*
G54D11*
X72858Y-50870D03*
X72858Y-51185D03*
X72858Y-51500D03*
X72858Y-51815D03*
X72858Y-52130D03*
G54D12*
X72819Y-49748D03*
X70654Y-49748D03*
X72819Y-53252D03*
X70654Y-53252D03*
G54D13*
X74000Y-44200D03*
G54D14*
X74000Y-46800D03*
X74900Y-46800D03*
X73100Y-46800D03*
G54D15*
X83450Y-46000D03*
X85550Y-46000D03*
X83450Y-45500D03*
X83450Y-45000D03*
X83450Y-44500D03*
X85550Y-45500D03*
X85550Y-45000D03*
X85550Y-44500D03*
G54D16*
X78750Y-55500D03*
X75750Y-55500D03*
X82500Y-51250D03*
X82500Y-54250D03*
X78250Y-47500D03*
X81250Y-47500D03*
X74500Y-51750D03*
X74500Y-48750D03*
X83500Y-59000D03*
X86500Y-59000D03*
X76000Y-43750D03*
X79000Y-43750D03*
G54D17*
X84000Y-57500D03*
G54D18*
X84000Y-56500D03*
X85000Y-57500D03*
X85000Y-56500D03*
X86000Y-57500D03*
X86000Y-56500D03*
G54D17*
X82500Y-49000D03*
G54D18*
X82500Y-50000D03*
G54D17*
X76000Y-47500D03*
G54D18*
X77000Y-47500D03*
G54D17*
X74500Y-54000D03*
G54D18*
X74500Y-53000D03*
G54D17*
X81000Y-55500D03*
G54D18*
X80000Y-55500D03*
G54D17*
X85000Y-55000D03*
X86000Y-55000D03*
X84000Y-55000D03*
G54D19*
X78750Y-46000D03*
G54D16*
X78750Y-45000D03*
G54D19*
X76500Y-46000D03*
G54D16*
X76500Y-45000D03*
G54D19*
X71500Y-46000D03*
G54D16*
X71500Y-45000D03*
G54D19*
X83600Y-47100D03*
G54D16*
X83600Y-48100D03*
G54D20*
X85750Y-51700D03*
X85750Y-51000D03*
X82700Y-45500D03*
X84750Y-54400D03*
X82700Y-45000D03*
G54D21*
X72858Y-52130D02*
X72858Y-53213D01*
X72858Y-53213D02*
X72819Y-53252D01*
X73100Y-46800D02*
X72300Y-46800D01*
X72300Y-46800D02*
X71500Y-46000D01*
X72858Y-50870D02*
X73530Y-50870D01*
X73100Y-47900D02*
X73100Y-46800D01*
X73800Y-48600D02*
X73100Y-47900D01*
X73800Y-50600D02*
X73800Y-48600D01*
X73530Y-50870D02*
X73800Y-50600D01*
G54D22*
X86000Y-57500D02*
X85500Y-57000D01*
X85400Y-46000D02*
X85550Y-46000D01*
X85250Y-46150D02*
X85400Y-46000D01*
X85250Y-54400D02*
X85250Y-46150D01*
X85500Y-54650D02*
X85250Y-54400D01*
X85500Y-57000D02*
X85500Y-54650D01*
X83450Y-44500D02*
X83650Y-44500D01*
X85000Y-45850D02*
X85000Y-55000D01*
X83650Y-44500D02*
X85000Y-45850D01*
X85000Y-56500D02*
X85000Y-55000D01*
X86000Y-45000D02*
X85550Y-45000D01*
X86480Y-45480D02*
X86000Y-45000D01*
X86480Y-50969D02*
X86480Y-45480D01*
X85750Y-51700D02*
X86480Y-50969D01*
X85550Y-45500D02*
X86000Y-45500D01*
X86300Y-50450D02*
X85750Y-51000D01*
X86300Y-45800D02*
X86300Y-50450D01*
X86000Y-45500D02*
X86300Y-45800D01*
X82700Y-45500D02*
X83450Y-45500D01*
X83450Y-45500D02*
X84000Y-45500D01*
X84500Y-57000D02*
X85000Y-57500D01*
X84500Y-46000D02*
X84500Y-57000D01*
X84000Y-45500D02*
X84500Y-46000D01*
X83450Y-45000D02*
X83754Y-45000D01*
X84750Y-45995D02*
X84750Y-54400D01*
X83754Y-45000D02*
X84750Y-45995D01*
X82700Y-45000D02*
X83450Y-45000D01*
G54D21*
X84000Y-56500D02*
X83450Y-56500D01*
X83150Y-58650D02*
X83500Y-59000D01*
X83150Y-56800D02*
X83150Y-58650D01*
X83450Y-56500D02*
X83150Y-56800D01*
X84000Y-55000D02*
X84000Y-56500D01*
X83600Y-47100D02*
X84150Y-47650D01*
X84000Y-53700D02*
X84000Y-55000D01*
X84150Y-53550D02*
X84000Y-53700D01*
X84150Y-47650D02*
X84150Y-53550D01*
X78750Y-46000D02*
X83450Y-46000D01*
X83450Y-46000D02*
X83450Y-46950D01*
X83450Y-46950D02*
X83600Y-47100D01*
X76500Y-46000D02*
X78750Y-46000D01*
X74900Y-46800D02*
X74900Y-46700D01*
X75600Y-46000D02*
X76500Y-46000D01*
X74900Y-46700D02*
X75600Y-46000D01*
G54D10*
G36*
X86730Y-59730D02*
X81550Y-59730D01*
X81550Y-55750D01*
X81550Y-55612D01*
X81487Y-55550D01*
X81050Y-55550D01*
X81050Y-55987D01*
X81112Y-56050D01*
X81349Y-56050D01*
X81441Y-56012D01*
X81511Y-55941D01*
X81549Y-55849D01*
X81550Y-55750D01*
X81550Y-59730D01*
X74450Y-59730D01*
X74450Y-54487D01*
X74450Y-54050D01*
X74012Y-54050D01*
X73950Y-54112D01*
X73949Y-54349D01*
X73987Y-54441D01*
X74058Y-54511D01*
X74150Y-54549D01*
X74249Y-54550D01*
X74387Y-54550D01*
X74450Y-54487D01*
X74450Y-59730D01*
X73561Y-59730D01*
X73561Y-53595D01*
X73561Y-52908D01*
X73560Y-52845D01*
X73560Y-52241D01*
X73498Y-52179D01*
X72908Y-52179D01*
X72908Y-52416D01*
X72970Y-52478D01*
X73360Y-52478D01*
X73452Y-52440D01*
X73522Y-52370D01*
X73560Y-52278D01*
X73560Y-52241D01*
X73560Y-52845D01*
X73560Y-52808D01*
X73522Y-52716D01*
X73452Y-52646D01*
X73360Y-52608D01*
X72931Y-52608D01*
X72869Y-52671D01*
X72869Y-53202D01*
X73498Y-53202D01*
X73561Y-53139D01*
X73561Y-52908D01*
X73561Y-53595D01*
X73561Y-53364D01*
X73498Y-53302D01*
X72869Y-53302D01*
X72869Y-53833D01*
X72931Y-53895D01*
X73360Y-53895D01*
X73452Y-53857D01*
X73522Y-53787D01*
X73560Y-53695D01*
X73561Y-53595D01*
X73561Y-59730D01*
X72808Y-59730D01*
X72769Y-59730D01*
X72769Y-53833D01*
X72769Y-53302D01*
X72769Y-53202D01*
X72769Y-52671D01*
X72706Y-52608D01*
X72277Y-52608D01*
X72185Y-52646D01*
X72115Y-52716D01*
X72077Y-52808D01*
X72076Y-52908D01*
X72077Y-53139D01*
X72139Y-53202D01*
X72769Y-53202D01*
X72769Y-53302D01*
X72139Y-53302D01*
X72077Y-53364D01*
X72076Y-53595D01*
X72077Y-53695D01*
X72115Y-53787D01*
X72185Y-53857D01*
X72277Y-53895D01*
X72706Y-53895D01*
X72769Y-53833D01*
X72769Y-59730D01*
X71396Y-59730D01*
X71396Y-53595D01*
X71396Y-52908D01*
X71396Y-50091D01*
X71396Y-49404D01*
X71395Y-49304D01*
X71357Y-49212D01*
X71287Y-49142D01*
X71195Y-49104D01*
X70766Y-49104D01*
X70704Y-49167D01*
X70704Y-49698D01*
X71333Y-49698D01*
X71396Y-49635D01*
X71396Y-49404D01*
X71396Y-50091D01*
X71396Y-49860D01*
X71333Y-49798D01*
X70704Y-49798D01*
X70704Y-50329D01*
X70766Y-50391D01*
X71195Y-50391D01*
X71287Y-50353D01*
X71357Y-50283D01*
X71395Y-50191D01*
X71396Y-50091D01*
X71396Y-52908D01*
X71395Y-52808D01*
X71357Y-52716D01*
X71287Y-52646D01*
X71195Y-52608D01*
X70766Y-52608D01*
X70704Y-52671D01*
X70704Y-53202D01*
X71333Y-53202D01*
X71396Y-53139D01*
X71396Y-52908D01*
X71396Y-53595D01*
X71396Y-53364D01*
X71333Y-53302D01*
X70704Y-53302D01*
X70704Y-53833D01*
X70766Y-53895D01*
X71195Y-53895D01*
X71287Y-53857D01*
X71357Y-53787D01*
X71395Y-53695D01*
X71396Y-53595D01*
X71396Y-59730D01*
X70269Y-59730D01*
X70269Y-53895D01*
X70541Y-53895D01*
X70604Y-53833D01*
X70604Y-53302D01*
X70596Y-53302D01*
X70596Y-53202D01*
X70604Y-53202D01*
X70604Y-52671D01*
X70541Y-52608D01*
X70269Y-52608D01*
X70269Y-51500D01*
X70269Y-50391D01*
X70541Y-50391D01*
X70604Y-50329D01*
X70604Y-49798D01*
X70596Y-49798D01*
X70596Y-49698D01*
X70604Y-49698D01*
X70604Y-49167D01*
X70541Y-49104D01*
X70269Y-49104D01*
X70269Y-43269D01*
X75774Y-43269D01*
X75727Y-43289D01*
X75702Y-43382D01*
X76000Y-43679D01*
X76297Y-43382D01*
X76272Y-43289D01*
X76216Y-43269D01*
X78787Y-43269D01*
X78703Y-43304D01*
X78555Y-43452D01*
X78475Y-43645D01*
X78474Y-43853D01*
X78554Y-44047D01*
X78702Y-44194D01*
X78895Y-44274D01*
X79103Y-44275D01*
X79297Y-44195D01*
X79444Y-44047D01*
X79524Y-43854D01*
X79525Y-43646D01*
X79445Y-43453D01*
X79297Y-43305D01*
X79212Y-43269D01*
X86730Y-43269D01*
X86730Y-45325D01*
X86692Y-45267D01*
X86212Y-44787D01*
X86114Y-44722D01*
X86057Y-44711D01*
X86075Y-44667D01*
X86075Y-44332D01*
X86037Y-44240D01*
X85967Y-44170D01*
X85875Y-44132D01*
X85775Y-44131D01*
X85662Y-44132D01*
X85600Y-44194D01*
X85600Y-44450D01*
X86013Y-44450D01*
X86075Y-44387D01*
X86075Y-44332D01*
X86075Y-44667D01*
X86075Y-44612D01*
X86013Y-44550D01*
X85600Y-44550D01*
X85600Y-44557D01*
X85500Y-44557D01*
X85500Y-44550D01*
X85500Y-44450D01*
X85500Y-44194D01*
X85437Y-44132D01*
X85324Y-44131D01*
X85224Y-44132D01*
X85132Y-44170D01*
X85062Y-44240D01*
X85024Y-44332D01*
X85024Y-44387D01*
X85087Y-44450D01*
X85500Y-44450D01*
X85500Y-44550D01*
X85087Y-44550D01*
X85024Y-44612D01*
X85024Y-44667D01*
X85058Y-44750D01*
X85024Y-44832D01*
X85024Y-44931D01*
X85024Y-45167D01*
X85058Y-45250D01*
X85024Y-45332D01*
X85024Y-45431D01*
X85024Y-45450D01*
X83975Y-44401D01*
X83975Y-44332D01*
X83937Y-44240D01*
X83867Y-44170D01*
X83775Y-44132D01*
X83675Y-44131D01*
X83124Y-44131D01*
X83033Y-44169D01*
X82962Y-44240D01*
X82924Y-44332D01*
X82924Y-44431D01*
X82924Y-44667D01*
X82937Y-44700D01*
X82890Y-44700D01*
X82769Y-44650D01*
X82630Y-44649D01*
X82502Y-44703D01*
X82403Y-44801D01*
X82350Y-44930D01*
X82349Y-45069D01*
X82403Y-45198D01*
X82455Y-45250D01*
X82403Y-45301D01*
X82350Y-45430D01*
X82349Y-45569D01*
X82379Y-45641D01*
X79261Y-45641D01*
X79237Y-45583D01*
X79166Y-45513D01*
X79074Y-45475D01*
X78975Y-45474D01*
X78975Y-45474D01*
X79047Y-45445D01*
X79194Y-45297D01*
X79274Y-45104D01*
X79275Y-44896D01*
X79195Y-44703D01*
X79047Y-44555D01*
X78854Y-44475D01*
X78646Y-44474D01*
X78453Y-44554D01*
X78305Y-44702D01*
X78225Y-44895D01*
X78224Y-45103D01*
X78304Y-45297D01*
X78452Y-45444D01*
X78524Y-45474D01*
X78425Y-45474D01*
X78333Y-45512D01*
X78263Y-45583D01*
X78238Y-45641D01*
X77029Y-45641D01*
X77029Y-45075D01*
X77018Y-44867D01*
X76960Y-44727D01*
X76867Y-44702D01*
X76797Y-44773D01*
X76797Y-44632D01*
X76772Y-44539D01*
X76575Y-44470D01*
X76529Y-44472D01*
X76529Y-43825D01*
X76518Y-43617D01*
X76460Y-43477D01*
X76367Y-43452D01*
X76070Y-43750D01*
X76367Y-44047D01*
X76460Y-44022D01*
X76529Y-43825D01*
X76529Y-44472D01*
X76367Y-44481D01*
X76297Y-44510D01*
X76297Y-44117D01*
X76000Y-43820D01*
X75929Y-43891D01*
X75929Y-43750D01*
X75632Y-43452D01*
X75539Y-43477D01*
X75470Y-43674D01*
X75481Y-43882D01*
X75539Y-44022D01*
X75632Y-44047D01*
X75929Y-43750D01*
X75929Y-43891D01*
X75702Y-44117D01*
X75727Y-44210D01*
X75924Y-44279D01*
X76132Y-44268D01*
X76272Y-44210D01*
X76297Y-44117D01*
X76297Y-44510D01*
X76227Y-44539D01*
X76202Y-44632D01*
X76500Y-44929D01*
X76797Y-44632D01*
X76797Y-44773D01*
X76570Y-45000D01*
X76867Y-45297D01*
X76960Y-45272D01*
X77029Y-45075D01*
X77029Y-45641D01*
X77011Y-45641D01*
X76987Y-45583D01*
X76916Y-45513D01*
X76824Y-45475D01*
X76737Y-45474D01*
X76772Y-45460D01*
X76797Y-45367D01*
X76500Y-45070D01*
X76429Y-45141D01*
X76429Y-45000D01*
X76132Y-44702D01*
X76039Y-44727D01*
X75970Y-44924D01*
X75981Y-45132D01*
X76039Y-45272D01*
X76132Y-45297D01*
X76429Y-45000D01*
X76429Y-45141D01*
X76202Y-45367D01*
X76227Y-45460D01*
X76268Y-45474D01*
X76175Y-45474D01*
X76083Y-45512D01*
X76013Y-45583D01*
X75988Y-45641D01*
X75600Y-45641D01*
X75462Y-45669D01*
X75346Y-45746D01*
X74970Y-46123D01*
X74970Y-44550D01*
X74970Y-43849D01*
X74969Y-43750D01*
X74931Y-43658D01*
X74861Y-43587D01*
X74769Y-43549D01*
X74112Y-43550D01*
X74050Y-43612D01*
X74050Y-44150D01*
X74907Y-44150D01*
X74970Y-44087D01*
X74970Y-43849D01*
X74970Y-44550D01*
X74970Y-44312D01*
X74907Y-44250D01*
X74050Y-44250D01*
X74050Y-44787D01*
X74112Y-44850D01*
X74769Y-44850D01*
X74861Y-44812D01*
X74931Y-44741D01*
X74969Y-44649D01*
X74970Y-44550D01*
X74970Y-46123D01*
X74943Y-46149D01*
X74650Y-46149D01*
X74558Y-46187D01*
X74488Y-46258D01*
X74450Y-46350D01*
X74450Y-46400D01*
X74449Y-46350D01*
X74411Y-46258D01*
X74341Y-46187D01*
X74249Y-46149D01*
X74112Y-46150D01*
X74050Y-46212D01*
X74050Y-46750D01*
X74057Y-46750D01*
X74057Y-46850D01*
X74050Y-46850D01*
X74050Y-47387D01*
X74112Y-47450D01*
X74249Y-47450D01*
X74341Y-47412D01*
X74411Y-47341D01*
X74449Y-47249D01*
X74449Y-47249D01*
X74449Y-47249D01*
X74487Y-47341D01*
X74558Y-47411D01*
X74650Y-47449D01*
X74749Y-47450D01*
X75149Y-47450D01*
X75241Y-47412D01*
X75311Y-47341D01*
X75349Y-47249D01*
X75350Y-47150D01*
X75350Y-46756D01*
X75748Y-46358D01*
X75988Y-46358D01*
X76012Y-46416D01*
X76083Y-46486D01*
X76175Y-46524D01*
X76274Y-46525D01*
X76824Y-46525D01*
X76916Y-46487D01*
X76986Y-46416D01*
X77011Y-46358D01*
X78238Y-46358D01*
X78262Y-46416D01*
X78333Y-46486D01*
X78425Y-46524D01*
X78524Y-46525D01*
X79074Y-46525D01*
X79166Y-46487D01*
X79236Y-46416D01*
X79261Y-46358D01*
X83091Y-46358D01*
X83091Y-46734D01*
X83075Y-46775D01*
X83074Y-46874D01*
X83074Y-47424D01*
X83112Y-47516D01*
X83183Y-47586D01*
X83275Y-47624D01*
X83362Y-47625D01*
X83327Y-47639D01*
X83302Y-47732D01*
X83600Y-48029D01*
X83605Y-48023D01*
X83676Y-48094D01*
X83670Y-48100D01*
X83676Y-48105D01*
X83605Y-48176D01*
X83600Y-48170D01*
X83529Y-48241D01*
X83529Y-48100D01*
X83232Y-47802D01*
X83139Y-47827D01*
X83070Y-48024D01*
X83081Y-48232D01*
X83139Y-48372D01*
X83232Y-48397D01*
X83529Y-48100D01*
X83529Y-48241D01*
X83302Y-48467D01*
X83327Y-48560D01*
X83524Y-48629D01*
X83732Y-48618D01*
X83791Y-48594D01*
X83791Y-53401D01*
X83746Y-53446D01*
X83669Y-53562D01*
X83641Y-53700D01*
X83641Y-54453D01*
X83558Y-54487D01*
X83488Y-54558D01*
X83450Y-54650D01*
X83449Y-54749D01*
X83449Y-55349D01*
X83487Y-55441D01*
X83558Y-55511D01*
X83641Y-55546D01*
X83641Y-56080D01*
X83580Y-56141D01*
X83450Y-56141D01*
X83312Y-56169D01*
X83196Y-56246D01*
X83050Y-56393D01*
X83050Y-49891D01*
X82966Y-49688D01*
X82827Y-49549D01*
X82849Y-49549D01*
X82941Y-49511D01*
X83012Y-49441D01*
X83050Y-49349D01*
X83050Y-48650D01*
X83012Y-48558D01*
X82941Y-48488D01*
X82849Y-48450D01*
X82750Y-48449D01*
X82612Y-48450D01*
X82550Y-48512D01*
X82550Y-48950D01*
X82987Y-48950D01*
X83050Y-48887D01*
X83050Y-48650D01*
X83050Y-49349D01*
X83050Y-49112D01*
X82987Y-49050D01*
X82550Y-49050D01*
X82550Y-49057D01*
X82450Y-49057D01*
X82450Y-49050D01*
X82442Y-49050D01*
X82442Y-48950D01*
X82450Y-48950D01*
X82450Y-48512D01*
X82387Y-48450D01*
X82249Y-48449D01*
X82150Y-48450D01*
X82058Y-48488D01*
X82019Y-48526D01*
X82019Y-48250D01*
X81999Y-48146D01*
X81940Y-48059D01*
X81853Y-48000D01*
X81750Y-47980D01*
X81462Y-47980D01*
X81547Y-47945D01*
X81694Y-47797D01*
X81774Y-47604D01*
X81775Y-47396D01*
X81695Y-47203D01*
X81547Y-47055D01*
X81354Y-46975D01*
X81146Y-46974D01*
X80953Y-47054D01*
X80805Y-47202D01*
X80725Y-47395D01*
X80724Y-47603D01*
X80804Y-47797D01*
X80952Y-47944D01*
X81037Y-47980D01*
X78462Y-47980D01*
X78547Y-47945D01*
X78694Y-47797D01*
X78774Y-47604D01*
X78775Y-47396D01*
X78695Y-47203D01*
X78547Y-47055D01*
X78354Y-46975D01*
X78146Y-46974D01*
X77953Y-47054D01*
X77805Y-47202D01*
X77725Y-47395D01*
X77724Y-47603D01*
X77804Y-47797D01*
X77952Y-47944D01*
X78037Y-47980D01*
X77277Y-47980D01*
X77311Y-47966D01*
X77465Y-47811D01*
X77549Y-47609D01*
X77550Y-47391D01*
X77466Y-47188D01*
X77311Y-47034D01*
X77109Y-46950D01*
X76891Y-46949D01*
X76688Y-47033D01*
X76549Y-47172D01*
X76549Y-47150D01*
X76511Y-47058D01*
X76441Y-46987D01*
X76349Y-46949D01*
X76112Y-46950D01*
X76050Y-47012D01*
X76050Y-47450D01*
X76057Y-47450D01*
X76057Y-47550D01*
X76050Y-47550D01*
X76050Y-47557D01*
X75950Y-47557D01*
X75950Y-47550D01*
X75950Y-47450D01*
X75950Y-47012D01*
X75887Y-46950D01*
X75650Y-46949D01*
X75558Y-46987D01*
X75488Y-47058D01*
X75450Y-47150D01*
X75449Y-47249D01*
X75450Y-47387D01*
X75512Y-47450D01*
X75950Y-47450D01*
X75950Y-47550D01*
X75512Y-47550D01*
X75450Y-47612D01*
X75449Y-47750D01*
X75450Y-47849D01*
X75488Y-47941D01*
X75526Y-47980D01*
X75250Y-47980D01*
X75146Y-48000D01*
X75059Y-48059D01*
X75000Y-48146D01*
X74980Y-48250D01*
X74980Y-48537D01*
X74945Y-48453D01*
X74797Y-48305D01*
X74604Y-48225D01*
X74396Y-48224D01*
X74203Y-48304D01*
X74096Y-48411D01*
X74053Y-48346D01*
X74053Y-48346D01*
X73458Y-47751D01*
X73458Y-47395D01*
X73511Y-47341D01*
X73549Y-47249D01*
X73550Y-47199D01*
X73550Y-47249D01*
X73588Y-47341D01*
X73658Y-47412D01*
X73750Y-47450D01*
X73887Y-47450D01*
X73950Y-47387D01*
X73950Y-46850D01*
X73942Y-46850D01*
X73942Y-46750D01*
X73950Y-46750D01*
X73950Y-46212D01*
X73950Y-44787D01*
X73950Y-44250D01*
X73950Y-44150D01*
X73950Y-43612D01*
X73887Y-43550D01*
X73230Y-43549D01*
X73138Y-43587D01*
X73068Y-43658D01*
X73030Y-43750D01*
X73029Y-43849D01*
X73030Y-44087D01*
X73092Y-44150D01*
X73950Y-44150D01*
X73950Y-44250D01*
X73092Y-44250D01*
X73030Y-44312D01*
X73029Y-44550D01*
X73030Y-44649D01*
X73068Y-44741D01*
X73138Y-44812D01*
X73230Y-44850D01*
X73887Y-44850D01*
X73950Y-44787D01*
X73950Y-46212D01*
X73887Y-46150D01*
X73750Y-46149D01*
X73658Y-46187D01*
X73588Y-46258D01*
X73550Y-46350D01*
X73550Y-46350D01*
X73512Y-46258D01*
X73441Y-46188D01*
X73349Y-46150D01*
X73250Y-46149D01*
X72850Y-46149D01*
X72758Y-46187D01*
X72688Y-46258D01*
X72650Y-46350D01*
X72649Y-46441D01*
X72448Y-46441D01*
X72029Y-46023D01*
X72029Y-45075D01*
X72018Y-44867D01*
X71960Y-44727D01*
X71867Y-44702D01*
X71797Y-44773D01*
X71797Y-44632D01*
X71772Y-44539D01*
X71575Y-44470D01*
X71367Y-44481D01*
X71227Y-44539D01*
X71202Y-44632D01*
X71500Y-44929D01*
X71797Y-44632D01*
X71797Y-44773D01*
X71570Y-45000D01*
X71867Y-45297D01*
X71960Y-45272D01*
X72029Y-45075D01*
X72029Y-46023D01*
X72025Y-46018D01*
X72025Y-45675D01*
X71987Y-45583D01*
X71916Y-45513D01*
X71824Y-45475D01*
X71737Y-45474D01*
X71772Y-45460D01*
X71797Y-45367D01*
X71500Y-45070D01*
X71429Y-45141D01*
X71429Y-45000D01*
X71132Y-44702D01*
X71039Y-44727D01*
X70970Y-44924D01*
X70981Y-45132D01*
X71039Y-45272D01*
X71132Y-45297D01*
X71429Y-45000D01*
X71429Y-45141D01*
X71202Y-45367D01*
X71227Y-45460D01*
X71268Y-45474D01*
X71175Y-45474D01*
X71083Y-45512D01*
X71013Y-45583D01*
X70975Y-45675D01*
X70974Y-45774D01*
X70974Y-46324D01*
X71012Y-46416D01*
X71083Y-46486D01*
X71175Y-46524D01*
X71274Y-46525D01*
X71518Y-46525D01*
X72046Y-47053D01*
X72046Y-47053D01*
X72162Y-47130D01*
X72299Y-47158D01*
X72300Y-47158D01*
X72649Y-47158D01*
X72649Y-47249D01*
X72687Y-47341D01*
X72741Y-47395D01*
X72741Y-47900D01*
X72769Y-48037D01*
X72846Y-48153D01*
X73441Y-48748D01*
X73441Y-49138D01*
X73360Y-49104D01*
X72931Y-49104D01*
X72869Y-49167D01*
X72869Y-49698D01*
X72876Y-49698D01*
X72876Y-49798D01*
X72869Y-49798D01*
X72869Y-50329D01*
X72931Y-50391D01*
X73360Y-50391D01*
X73441Y-50357D01*
X73441Y-50451D01*
X73381Y-50511D01*
X72858Y-50511D01*
X72809Y-50521D01*
X72769Y-50521D01*
X72769Y-50329D01*
X72769Y-49798D01*
X72769Y-49698D01*
X72769Y-49167D01*
X72706Y-49104D01*
X72277Y-49104D01*
X72185Y-49142D01*
X72115Y-49212D01*
X72077Y-49304D01*
X72076Y-49404D01*
X72077Y-49635D01*
X72139Y-49698D01*
X72769Y-49698D01*
X72769Y-49798D01*
X72139Y-49798D01*
X72077Y-49860D01*
X72076Y-50091D01*
X72077Y-50191D01*
X72115Y-50283D01*
X72185Y-50353D01*
X72277Y-50391D01*
X72706Y-50391D01*
X72769Y-50329D01*
X72769Y-50521D01*
X72355Y-50521D01*
X72263Y-50559D01*
X72262Y-50560D01*
X72262Y-50549D01*
X72197Y-50392D01*
X72077Y-50272D01*
X71920Y-50207D01*
X71750Y-50206D01*
X71593Y-50271D01*
X71473Y-50391D01*
X71408Y-50548D01*
X71407Y-50718D01*
X71472Y-50875D01*
X71592Y-50995D01*
X71749Y-51060D01*
X71919Y-51061D01*
X72076Y-50996D01*
X72154Y-50917D01*
X72154Y-51018D01*
X72158Y-51027D01*
X72155Y-51036D01*
X72154Y-51136D01*
X72154Y-51333D01*
X72158Y-51342D01*
X72155Y-51351D01*
X72154Y-51451D01*
X72154Y-51648D01*
X72158Y-51657D01*
X72155Y-51666D01*
X72154Y-51766D01*
X72154Y-51963D01*
X72158Y-51972D01*
X72155Y-51981D01*
X72155Y-52018D01*
X72216Y-52079D01*
X72155Y-52079D01*
X72155Y-52082D01*
X72077Y-52004D01*
X71920Y-51939D01*
X71750Y-51938D01*
X71593Y-52003D01*
X71473Y-52123D01*
X71408Y-52280D01*
X71407Y-52450D01*
X71472Y-52607D01*
X71592Y-52727D01*
X71749Y-52792D01*
X71919Y-52793D01*
X72076Y-52728D01*
X72196Y-52608D01*
X72261Y-52451D01*
X72261Y-52438D01*
X72263Y-52440D01*
X72355Y-52478D01*
X72745Y-52478D01*
X72808Y-52416D01*
X72808Y-52179D01*
X72800Y-52179D01*
X72800Y-52163D01*
X73360Y-52163D01*
X73452Y-52125D01*
X73497Y-52080D01*
X73498Y-52080D01*
X73560Y-52018D01*
X73560Y-51981D01*
X73557Y-51972D01*
X73560Y-51963D01*
X73561Y-51863D01*
X73561Y-51666D01*
X73557Y-51657D01*
X73560Y-51648D01*
X73561Y-51548D01*
X73561Y-51351D01*
X73557Y-51342D01*
X73560Y-51333D01*
X73561Y-51233D01*
X73561Y-51222D01*
X73667Y-51200D01*
X73783Y-51123D01*
X74053Y-50853D01*
X74053Y-50853D01*
X74130Y-50737D01*
X74158Y-50600D01*
X74158Y-50600D01*
X74158Y-49150D01*
X74202Y-49194D01*
X74395Y-49274D01*
X74603Y-49275D01*
X74797Y-49195D01*
X74944Y-49047D01*
X74980Y-48962D01*
X74980Y-51537D01*
X74945Y-51453D01*
X74797Y-51305D01*
X74604Y-51225D01*
X74396Y-51224D01*
X74203Y-51304D01*
X74055Y-51452D01*
X73975Y-51645D01*
X73974Y-51853D01*
X74054Y-52047D01*
X74202Y-52194D01*
X74395Y-52274D01*
X74603Y-52275D01*
X74797Y-52195D01*
X74944Y-52047D01*
X74980Y-51962D01*
X74980Y-52722D01*
X74966Y-52688D01*
X74811Y-52534D01*
X74609Y-52450D01*
X74391Y-52449D01*
X74188Y-52533D01*
X74034Y-52688D01*
X73950Y-52890D01*
X73949Y-53108D01*
X74033Y-53311D01*
X74172Y-53450D01*
X74150Y-53450D01*
X74058Y-53488D01*
X73987Y-53558D01*
X73949Y-53650D01*
X73950Y-53887D01*
X74012Y-53950D01*
X74450Y-53950D01*
X74450Y-53942D01*
X74550Y-53942D01*
X74550Y-53950D01*
X74557Y-53950D01*
X74557Y-54050D01*
X74550Y-54050D01*
X74550Y-54487D01*
X74612Y-54550D01*
X74750Y-54550D01*
X74849Y-54549D01*
X74941Y-54511D01*
X74980Y-54473D01*
X74980Y-54750D01*
X75000Y-54853D01*
X75059Y-54940D01*
X75146Y-54999D01*
X75250Y-55019D01*
X75537Y-55019D01*
X75453Y-55054D01*
X75305Y-55202D01*
X75225Y-55395D01*
X75224Y-55603D01*
X75304Y-55797D01*
X75452Y-55944D01*
X75645Y-56024D01*
X75853Y-56025D01*
X76047Y-55945D01*
X76194Y-55797D01*
X76274Y-55604D01*
X76275Y-55396D01*
X76195Y-55203D01*
X76047Y-55055D01*
X75962Y-55019D01*
X78537Y-55019D01*
X78453Y-55054D01*
X78305Y-55202D01*
X78225Y-55395D01*
X78224Y-55603D01*
X78304Y-55797D01*
X78452Y-55944D01*
X78645Y-56024D01*
X78853Y-56025D01*
X79047Y-55945D01*
X79194Y-55797D01*
X79274Y-55604D01*
X79275Y-55396D01*
X79195Y-55203D01*
X79047Y-55055D01*
X78962Y-55019D01*
X79722Y-55019D01*
X79688Y-55033D01*
X79534Y-55188D01*
X79450Y-55390D01*
X79449Y-55608D01*
X79533Y-55811D01*
X79688Y-55965D01*
X79890Y-56049D01*
X80108Y-56050D01*
X80311Y-55966D01*
X80450Y-55827D01*
X80450Y-55849D01*
X80488Y-55941D01*
X80558Y-56012D01*
X80650Y-56050D01*
X80887Y-56050D01*
X80950Y-55987D01*
X80950Y-55550D01*
X80942Y-55550D01*
X80942Y-55450D01*
X80950Y-55450D01*
X80950Y-55442D01*
X81050Y-55442D01*
X81050Y-55450D01*
X81487Y-55450D01*
X81550Y-55387D01*
X81550Y-55249D01*
X81549Y-55150D01*
X81511Y-55058D01*
X81473Y-55019D01*
X81750Y-55019D01*
X81853Y-54999D01*
X81940Y-54940D01*
X81999Y-54853D01*
X82019Y-54750D01*
X82019Y-54462D01*
X82054Y-54547D01*
X82202Y-54694D01*
X82395Y-54774D01*
X82603Y-54775D01*
X82797Y-54695D01*
X82944Y-54547D01*
X83024Y-54354D01*
X83025Y-54146D01*
X82945Y-53953D01*
X82797Y-53805D01*
X82604Y-53725D01*
X82396Y-53724D01*
X82203Y-53804D01*
X82055Y-53952D01*
X82019Y-54037D01*
X82019Y-51462D01*
X82054Y-51547D01*
X82202Y-51694D01*
X82395Y-51774D01*
X82603Y-51775D01*
X82797Y-51695D01*
X82944Y-51547D01*
X83024Y-51354D01*
X83025Y-51146D01*
X82945Y-50953D01*
X82797Y-50805D01*
X82604Y-50725D01*
X82396Y-50724D01*
X82203Y-50804D01*
X82055Y-50952D01*
X82019Y-51037D01*
X82019Y-50277D01*
X82033Y-50311D01*
X82188Y-50465D01*
X82390Y-50549D01*
X82608Y-50550D01*
X82811Y-50466D01*
X82965Y-50311D01*
X83049Y-50109D01*
X83050Y-49891D01*
X83050Y-56393D01*
X82896Y-56546D01*
X82819Y-56662D01*
X82791Y-56800D01*
X82791Y-58650D01*
X82819Y-58787D01*
X82896Y-58903D01*
X82975Y-58981D01*
X82974Y-59103D01*
X83054Y-59297D01*
X83202Y-59444D01*
X83395Y-59524D01*
X83603Y-59525D01*
X83797Y-59445D01*
X83944Y-59297D01*
X84024Y-59104D01*
X84025Y-58896D01*
X83945Y-58703D01*
X83797Y-58555D01*
X83604Y-58475D01*
X83508Y-58475D01*
X83508Y-57961D01*
X83558Y-58011D01*
X83650Y-58049D01*
X83749Y-58050D01*
X84349Y-58050D01*
X84441Y-58012D01*
X84511Y-57941D01*
X84549Y-57849D01*
X84549Y-57827D01*
X84688Y-57965D01*
X84890Y-58049D01*
X85108Y-58050D01*
X85311Y-57966D01*
X85465Y-57811D01*
X85499Y-57730D01*
X85533Y-57811D01*
X85688Y-57965D01*
X85890Y-58049D01*
X86108Y-58050D01*
X86311Y-57966D01*
X86465Y-57811D01*
X86549Y-57609D01*
X86550Y-57391D01*
X86466Y-57188D01*
X86311Y-57034D01*
X86236Y-57002D01*
X86287Y-56981D01*
X86315Y-56885D01*
X86000Y-56570D01*
X85994Y-56576D01*
X85923Y-56505D01*
X85929Y-56500D01*
X85923Y-56494D01*
X85994Y-56423D01*
X86000Y-56429D01*
X86315Y-56114D01*
X86287Y-56018D01*
X86081Y-55945D01*
X85863Y-55956D01*
X85800Y-55982D01*
X85800Y-55550D01*
X85887Y-55550D01*
X85950Y-55487D01*
X85950Y-55050D01*
X85942Y-55050D01*
X85942Y-54950D01*
X85950Y-54950D01*
X85950Y-54512D01*
X85887Y-54450D01*
X85720Y-54449D01*
X85712Y-54437D01*
X85712Y-54437D01*
X85550Y-54275D01*
X85550Y-51995D01*
X85551Y-51996D01*
X85680Y-52049D01*
X85819Y-52050D01*
X85948Y-51996D01*
X86046Y-51898D01*
X86096Y-51777D01*
X86692Y-51182D01*
X86692Y-51182D01*
X86730Y-51124D01*
X86730Y-58527D01*
X86604Y-58475D01*
X86554Y-58475D01*
X86554Y-56581D01*
X86550Y-56487D01*
X86550Y-55250D01*
X86550Y-54749D01*
X86549Y-54650D01*
X86511Y-54558D01*
X86441Y-54487D01*
X86349Y-54449D01*
X86112Y-54450D01*
X86050Y-54512D01*
X86050Y-54950D01*
X86487Y-54950D01*
X86550Y-54887D01*
X86550Y-54749D01*
X86550Y-55250D01*
X86550Y-55112D01*
X86487Y-55050D01*
X86050Y-55050D01*
X86050Y-55487D01*
X86112Y-55550D01*
X86349Y-55550D01*
X86441Y-55512D01*
X86511Y-55441D01*
X86549Y-55349D01*
X86550Y-55250D01*
X86550Y-56487D01*
X86543Y-56363D01*
X86481Y-56212D01*
X86385Y-56184D01*
X86070Y-56500D01*
X86385Y-56815D01*
X86481Y-56787D01*
X86554Y-56581D01*
X86554Y-58475D01*
X86396Y-58474D01*
X86203Y-58554D01*
X86055Y-58702D01*
X85975Y-58895D01*
X85974Y-59103D01*
X86054Y-59297D01*
X86202Y-59444D01*
X86395Y-59524D01*
X86603Y-59525D01*
X86730Y-59472D01*
X86730Y-59730D01*
X86730Y-59730D01*
G37*
G54D22*
X86730Y-59730D02*
X81550Y-59730D01*
X81550Y-55750D01*
X81550Y-55612D01*
X81487Y-55550D01*
X81050Y-55550D01*
X81050Y-55987D01*
X81112Y-56050D01*
X81349Y-56050D01*
X81441Y-56012D01*
X81511Y-55941D01*
X81549Y-55849D01*
X81550Y-55750D01*
X81550Y-59730D01*
X74450Y-59730D01*
X74450Y-54487D01*
X74450Y-54050D01*
X74012Y-54050D01*
X73950Y-54112D01*
X73949Y-54349D01*
X73987Y-54441D01*
X74058Y-54511D01*
X74150Y-54549D01*
X74249Y-54550D01*
X74387Y-54550D01*
X74450Y-54487D01*
X74450Y-59730D01*
X73561Y-59730D01*
X73561Y-53595D01*
X73561Y-52908D01*
X73560Y-52845D01*
X73560Y-52241D01*
X73498Y-52179D01*
X72908Y-52179D01*
X72908Y-52416D01*
X72970Y-52478D01*
X73360Y-52478D01*
X73452Y-52440D01*
X73522Y-52370D01*
X73560Y-52278D01*
X73560Y-52241D01*
X73560Y-52845D01*
X73560Y-52808D01*
X73522Y-52716D01*
X73452Y-52646D01*
X73360Y-52608D01*
X72931Y-52608D01*
X72869Y-52671D01*
X72869Y-53202D01*
X73498Y-53202D01*
X73561Y-53139D01*
X73561Y-52908D01*
X73561Y-53595D01*
X73561Y-53364D01*
X73498Y-53302D01*
X72869Y-53302D01*
X72869Y-53833D01*
X72931Y-53895D01*
X73360Y-53895D01*
X73452Y-53857D01*
X73522Y-53787D01*
X73560Y-53695D01*
X73561Y-53595D01*
X73561Y-59730D01*
X72808Y-59730D01*
X72769Y-59730D01*
X72769Y-53833D01*
X72769Y-53302D01*
X72769Y-53202D01*
X72769Y-52671D01*
X72706Y-52608D01*
X72277Y-52608D01*
X72185Y-52646D01*
X72115Y-52716D01*
X72077Y-52808D01*
X72076Y-52908D01*
X72077Y-53139D01*
X72139Y-53202D01*
X72769Y-53202D01*
X72769Y-53302D01*
X72139Y-53302D01*
X72077Y-53364D01*
X72076Y-53595D01*
X72077Y-53695D01*
X72115Y-53787D01*
X72185Y-53857D01*
X72277Y-53895D01*
X72706Y-53895D01*
X72769Y-53833D01*
X72769Y-59730D01*
X71396Y-59730D01*
X71396Y-53595D01*
X71396Y-52908D01*
X71396Y-50091D01*
X71396Y-49404D01*
X71395Y-49304D01*
X71357Y-49212D01*
X71287Y-49142D01*
X71195Y-49104D01*
X70766Y-49104D01*
X70704Y-49167D01*
X70704Y-49698D01*
X71333Y-49698D01*
X71396Y-49635D01*
X71396Y-49404D01*
X71396Y-50091D01*
X71396Y-49860D01*
X71333Y-49798D01*
X70704Y-49798D01*
X70704Y-50329D01*
X70766Y-50391D01*
X71195Y-50391D01*
X71287Y-50353D01*
X71357Y-50283D01*
X71395Y-50191D01*
X71396Y-50091D01*
X71396Y-52908D01*
X71395Y-52808D01*
X71357Y-52716D01*
X71287Y-52646D01*
X71195Y-52608D01*
X70766Y-52608D01*
X70704Y-52671D01*
X70704Y-53202D01*
X71333Y-53202D01*
X71396Y-53139D01*
X71396Y-52908D01*
X71396Y-53595D01*
X71396Y-53364D01*
X71333Y-53302D01*
X70704Y-53302D01*
X70704Y-53833D01*
X70766Y-53895D01*
X71195Y-53895D01*
X71287Y-53857D01*
X71357Y-53787D01*
X71395Y-53695D01*
X71396Y-53595D01*
X71396Y-59730D01*
X70269Y-59730D01*
X70269Y-53895D01*
X70541Y-53895D01*
X70604Y-53833D01*
X70604Y-53302D01*
X70596Y-53302D01*
X70596Y-53202D01*
X70604Y-53202D01*
X70604Y-52671D01*
X70541Y-52608D01*
X70269Y-52608D01*
X70269Y-51500D01*
X70269Y-50391D01*
X70541Y-50391D01*
X70604Y-50329D01*
X70604Y-49798D01*
X70596Y-49798D01*
X70596Y-49698D01*
X70604Y-49698D01*
X70604Y-49167D01*
X70541Y-49104D01*
X70269Y-49104D01*
X70269Y-43269D01*
X75774Y-43269D01*
X75727Y-43289D01*
X75702Y-43382D01*
X76000Y-43679D01*
X76297Y-43382D01*
X76272Y-43289D01*
X76216Y-43269D01*
X78787Y-43269D01*
X78703Y-43304D01*
X78555Y-43452D01*
X78475Y-43645D01*
X78474Y-43853D01*
X78554Y-44047D01*
X78702Y-44194D01*
X78895Y-44274D01*
X79103Y-44275D01*
X79297Y-44195D01*
X79444Y-44047D01*
X79524Y-43854D01*
X79525Y-43646D01*
X79445Y-43453D01*
X79297Y-43305D01*
X79212Y-43269D01*
X86730Y-43269D01*
X86730Y-45325D01*
X86692Y-45267D01*
X86212Y-44787D01*
X86114Y-44722D01*
X86057Y-44711D01*
X86075Y-44667D01*
X86075Y-44332D01*
X86037Y-44240D01*
X85967Y-44170D01*
X85875Y-44132D01*
X85775Y-44131D01*
X85662Y-44132D01*
X85600Y-44194D01*
X85600Y-44450D01*
X86013Y-44450D01*
X86075Y-44387D01*
X86075Y-44332D01*
X86075Y-44667D01*
X86075Y-44612D01*
X86013Y-44550D01*
X85600Y-44550D01*
X85600Y-44557D01*
X85500Y-44557D01*
X85500Y-44550D01*
X85500Y-44450D01*
X85500Y-44194D01*
X85437Y-44132D01*
X85324Y-44131D01*
X85224Y-44132D01*
X85132Y-44170D01*
X85062Y-44240D01*
X85024Y-44332D01*
X85024Y-44387D01*
X85087Y-44450D01*
X85500Y-44450D01*
X85500Y-44550D01*
X85087Y-44550D01*
X85024Y-44612D01*
X85024Y-44667D01*
X85058Y-44750D01*
X85024Y-44832D01*
X85024Y-44931D01*
X85024Y-45167D01*
X85058Y-45250D01*
X85024Y-45332D01*
X85024Y-45431D01*
X85024Y-45450D01*
X83975Y-44401D01*
X83975Y-44332D01*
X83937Y-44240D01*
X83867Y-44170D01*
X83775Y-44132D01*
X83675Y-44131D01*
X83124Y-44131D01*
X83033Y-44169D01*
X82962Y-44240D01*
X82924Y-44332D01*
X82924Y-44431D01*
X82924Y-44667D01*
X82937Y-44700D01*
X82890Y-44700D01*
X82769Y-44650D01*
X82630Y-44649D01*
X82502Y-44703D01*
X82403Y-44801D01*
X82350Y-44930D01*
X82349Y-45069D01*
X82403Y-45198D01*
X82455Y-45250D01*
X82403Y-45301D01*
X82350Y-45430D01*
X82349Y-45569D01*
X82379Y-45641D01*
X79261Y-45641D01*
X79237Y-45583D01*
X79166Y-45513D01*
X79074Y-45475D01*
X78975Y-45474D01*
X78975Y-45474D01*
X79047Y-45445D01*
X79194Y-45297D01*
X79274Y-45104D01*
X79275Y-44896D01*
X79195Y-44703D01*
X79047Y-44555D01*
X78854Y-44475D01*
X78646Y-44474D01*
X78453Y-44554D01*
X78305Y-44702D01*
X78225Y-44895D01*
X78224Y-45103D01*
X78304Y-45297D01*
X78452Y-45444D01*
X78524Y-45474D01*
X78425Y-45474D01*
X78333Y-45512D01*
X78263Y-45583D01*
X78238Y-45641D01*
X77029Y-45641D01*
X77029Y-45075D01*
X77018Y-44867D01*
X76960Y-44727D01*
X76867Y-44702D01*
X76797Y-44773D01*
X76797Y-44632D01*
X76772Y-44539D01*
X76575Y-44470D01*
X76529Y-44472D01*
X76529Y-43825D01*
X76518Y-43617D01*
X76460Y-43477D01*
X76367Y-43452D01*
X76070Y-43750D01*
X76367Y-44047D01*
X76460Y-44022D01*
X76529Y-43825D01*
X76529Y-44472D01*
X76367Y-44481D01*
X76297Y-44510D01*
X76297Y-44117D01*
X76000Y-43820D01*
X75929Y-43891D01*
X75929Y-43750D01*
X75632Y-43452D01*
X75539Y-43477D01*
X75470Y-43674D01*
X75481Y-43882D01*
X75539Y-44022D01*
X75632Y-44047D01*
X75929Y-43750D01*
X75929Y-43891D01*
X75702Y-44117D01*
X75727Y-44210D01*
X75924Y-44279D01*
X76132Y-44268D01*
X76272Y-44210D01*
X76297Y-44117D01*
X76297Y-44510D01*
X76227Y-44539D01*
X76202Y-44632D01*
X76500Y-44929D01*
X76797Y-44632D01*
X76797Y-44773D01*
X76570Y-45000D01*
X76867Y-45297D01*
X76960Y-45272D01*
X77029Y-45075D01*
X77029Y-45641D01*
X77011Y-45641D01*
X76987Y-45583D01*
X76916Y-45513D01*
X76824Y-45475D01*
X76737Y-45474D01*
X76772Y-45460D01*
X76797Y-45367D01*
X76500Y-45070D01*
X76429Y-45141D01*
X76429Y-45000D01*
X76132Y-44702D01*
X76039Y-44727D01*
X75970Y-44924D01*
X75981Y-45132D01*
X76039Y-45272D01*
X76132Y-45297D01*
X76429Y-45000D01*
X76429Y-45141D01*
X76202Y-45367D01*
X76227Y-45460D01*
X76268Y-45474D01*
X76175Y-45474D01*
X76083Y-45512D01*
X76013Y-45583D01*
X75988Y-45641D01*
X75600Y-45641D01*
X75462Y-45669D01*
X75346Y-45746D01*
X74970Y-46123D01*
X74970Y-44550D01*
X74970Y-43849D01*
X74969Y-43750D01*
X74931Y-43658D01*
X74861Y-43587D01*
X74769Y-43549D01*
X74112Y-43550D01*
X74050Y-43612D01*
X74050Y-44150D01*
X74907Y-44150D01*
X74970Y-44087D01*
X74970Y-43849D01*
X74970Y-44550D01*
X74970Y-44312D01*
X74907Y-44250D01*
X74050Y-44250D01*
X74050Y-44787D01*
X74112Y-44850D01*
X74769Y-44850D01*
X74861Y-44812D01*
X74931Y-44741D01*
X74969Y-44649D01*
X74970Y-44550D01*
X74970Y-46123D01*
X74943Y-46149D01*
X74650Y-46149D01*
X74558Y-46187D01*
X74488Y-46258D01*
X74450Y-46350D01*
X74450Y-46400D01*
X74449Y-46350D01*
X74411Y-46258D01*
X74341Y-46187D01*
X74249Y-46149D01*
X74112Y-46150D01*
X74050Y-46212D01*
X74050Y-46750D01*
X74057Y-46750D01*
X74057Y-46850D01*
X74050Y-46850D01*
X74050Y-47387D01*
X74112Y-47450D01*
X74249Y-47450D01*
X74341Y-47412D01*
X74411Y-47341D01*
X74449Y-47249D01*
X74449Y-47249D01*
X74449Y-47249D01*
X74487Y-47341D01*
X74558Y-47411D01*
X74650Y-47449D01*
X74749Y-47450D01*
X75149Y-47450D01*
X75241Y-47412D01*
X75311Y-47341D01*
X75349Y-47249D01*
X75350Y-47150D01*
X75350Y-46756D01*
X75748Y-46358D01*
X75988Y-46358D01*
X76012Y-46416D01*
X76083Y-46486D01*
X76175Y-46524D01*
X76274Y-46525D01*
X76824Y-46525D01*
X76916Y-46487D01*
X76986Y-46416D01*
X77011Y-46358D01*
X78238Y-46358D01*
X78262Y-46416D01*
X78333Y-46486D01*
X78425Y-46524D01*
X78524Y-46525D01*
X79074Y-46525D01*
X79166Y-46487D01*
X79236Y-46416D01*
X79261Y-46358D01*
X83091Y-46358D01*
X83091Y-46734D01*
X83075Y-46775D01*
X83074Y-46874D01*
X83074Y-47424D01*
X83112Y-47516D01*
X83183Y-47586D01*
X83275Y-47624D01*
X83362Y-47625D01*
X83327Y-47639D01*
X83302Y-47732D01*
X83600Y-48029D01*
X83605Y-48023D01*
X83676Y-48094D01*
X83670Y-48100D01*
X83676Y-48105D01*
X83605Y-48176D01*
X83600Y-48170D01*
X83529Y-48241D01*
X83529Y-48100D01*
X83232Y-47802D01*
X83139Y-47827D01*
X83070Y-48024D01*
X83081Y-48232D01*
X83139Y-48372D01*
X83232Y-48397D01*
X83529Y-48100D01*
X83529Y-48241D01*
X83302Y-48467D01*
X83327Y-48560D01*
X83524Y-48629D01*
X83732Y-48618D01*
X83791Y-48594D01*
X83791Y-53401D01*
X83746Y-53446D01*
X83669Y-53562D01*
X83641Y-53700D01*
X83641Y-54453D01*
X83558Y-54487D01*
X83488Y-54558D01*
X83450Y-54650D01*
X83449Y-54749D01*
X83449Y-55349D01*
X83487Y-55441D01*
X83558Y-55511D01*
X83641Y-55546D01*
X83641Y-56080D01*
X83580Y-56141D01*
X83450Y-56141D01*
X83312Y-56169D01*
X83196Y-56246D01*
X83050Y-56393D01*
X83050Y-49891D01*
X82966Y-49688D01*
X82827Y-49549D01*
X82849Y-49549D01*
X82941Y-49511D01*
X83012Y-49441D01*
X83050Y-49349D01*
X83050Y-48650D01*
X83012Y-48558D01*
X82941Y-48488D01*
X82849Y-48450D01*
X82750Y-48449D01*
X82612Y-48450D01*
X82550Y-48512D01*
X82550Y-48950D01*
X82987Y-48950D01*
X83050Y-48887D01*
X83050Y-48650D01*
X83050Y-49349D01*
X83050Y-49112D01*
X82987Y-49050D01*
X82550Y-49050D01*
X82550Y-49057D01*
X82450Y-49057D01*
X82450Y-49050D01*
X82442Y-49050D01*
X82442Y-48950D01*
X82450Y-48950D01*
X82450Y-48512D01*
X82387Y-48450D01*
X82249Y-48449D01*
X82150Y-48450D01*
X82058Y-48488D01*
X82019Y-48526D01*
X82019Y-48250D01*
X81999Y-48146D01*
X81940Y-48059D01*
X81853Y-48000D01*
X81750Y-47980D01*
X81462Y-47980D01*
X81547Y-47945D01*
X81694Y-47797D01*
X81774Y-47604D01*
X81775Y-47396D01*
X81695Y-47203D01*
X81547Y-47055D01*
X81354Y-46975D01*
X81146Y-46974D01*
X80953Y-47054D01*
X80805Y-47202D01*
X80725Y-47395D01*
X80724Y-47603D01*
X80804Y-47797D01*
X80952Y-47944D01*
X81037Y-47980D01*
X78462Y-47980D01*
X78547Y-47945D01*
X78694Y-47797D01*
X78774Y-47604D01*
X78775Y-47396D01*
X78695Y-47203D01*
X78547Y-47055D01*
X78354Y-46975D01*
X78146Y-46974D01*
X77953Y-47054D01*
X77805Y-47202D01*
X77725Y-47395D01*
X77724Y-47603D01*
X77804Y-47797D01*
X77952Y-47944D01*
X78037Y-47980D01*
X77277Y-47980D01*
X77311Y-47966D01*
X77465Y-47811D01*
X77549Y-47609D01*
X77550Y-47391D01*
X77466Y-47188D01*
X77311Y-47034D01*
X77109Y-46950D01*
X76891Y-46949D01*
X76688Y-47033D01*
X76549Y-47172D01*
X76549Y-47150D01*
X76511Y-47058D01*
X76441Y-46987D01*
X76349Y-46949D01*
X76112Y-46950D01*
X76050Y-47012D01*
X76050Y-47450D01*
X76057Y-47450D01*
X76057Y-47550D01*
X76050Y-47550D01*
X76050Y-47557D01*
X75950Y-47557D01*
X75950Y-47550D01*
X75950Y-47450D01*
X75950Y-47012D01*
X75887Y-46950D01*
X75650Y-46949D01*
X75558Y-46987D01*
X75488Y-47058D01*
X75450Y-47150D01*
X75449Y-47249D01*
X75450Y-47387D01*
X75512Y-47450D01*
X75950Y-47450D01*
X75950Y-47550D01*
X75512Y-47550D01*
X75450Y-47612D01*
X75449Y-47750D01*
X75450Y-47849D01*
X75488Y-47941D01*
X75526Y-47980D01*
X75250Y-47980D01*
X75146Y-48000D01*
X75059Y-48059D01*
X75000Y-48146D01*
X74980Y-48250D01*
X74980Y-48537D01*
X74945Y-48453D01*
X74797Y-48305D01*
X74604Y-48225D01*
X74396Y-48224D01*
X74203Y-48304D01*
X74096Y-48411D01*
X74053Y-48346D01*
X74053Y-48346D01*
X73458Y-47751D01*
X73458Y-47395D01*
X73511Y-47341D01*
X73549Y-47249D01*
X73550Y-47199D01*
X73550Y-47249D01*
X73588Y-47341D01*
X73658Y-47412D01*
X73750Y-47450D01*
X73887Y-47450D01*
X73950Y-47387D01*
X73950Y-46850D01*
X73942Y-46850D01*
X73942Y-46750D01*
X73950Y-46750D01*
X73950Y-46212D01*
X73950Y-44787D01*
X73950Y-44250D01*
X73950Y-44150D01*
X73950Y-43612D01*
X73887Y-43550D01*
X73230Y-43549D01*
X73138Y-43587D01*
X73068Y-43658D01*
X73030Y-43750D01*
X73029Y-43849D01*
X73030Y-44087D01*
X73092Y-44150D01*
X73950Y-44150D01*
X73950Y-44250D01*
X73092Y-44250D01*
X73030Y-44312D01*
X73029Y-44550D01*
X73030Y-44649D01*
X73068Y-44741D01*
X73138Y-44812D01*
X73230Y-44850D01*
X73887Y-44850D01*
X73950Y-44787D01*
X73950Y-46212D01*
X73887Y-46150D01*
X73750Y-46149D01*
X73658Y-46187D01*
X73588Y-46258D01*
X73550Y-46350D01*
X73550Y-46350D01*
X73512Y-46258D01*
X73441Y-46188D01*
X73349Y-46150D01*
X73250Y-46149D01*
X72850Y-46149D01*
X72758Y-46187D01*
X72688Y-46258D01*
X72650Y-46350D01*
X72649Y-46441D01*
X72448Y-46441D01*
X72029Y-46023D01*
X72029Y-45075D01*
X72018Y-44867D01*
X71960Y-44727D01*
X71867Y-44702D01*
X71797Y-44773D01*
X71797Y-44632D01*
X71772Y-44539D01*
X71575Y-44470D01*
X71367Y-44481D01*
X71227Y-44539D01*
X71202Y-44632D01*
X71500Y-44929D01*
X71797Y-44632D01*
X71797Y-44773D01*
X71570Y-45000D01*
X71867Y-45297D01*
X71960Y-45272D01*
X72029Y-45075D01*
X72029Y-46023D01*
X72025Y-46018D01*
X72025Y-45675D01*
X71987Y-45583D01*
X71916Y-45513D01*
X71824Y-45475D01*
X71737Y-45474D01*
X71772Y-45460D01*
X71797Y-45367D01*
X71500Y-45070D01*
X71429Y-45141D01*
X71429Y-45000D01*
X71132Y-44702D01*
X71039Y-44727D01*
X70970Y-44924D01*
X70981Y-45132D01*
X71039Y-45272D01*
X71132Y-45297D01*
X71429Y-45000D01*
X71429Y-45141D01*
X71202Y-45367D01*
X71227Y-45460D01*
X71268Y-45474D01*
X71175Y-45474D01*
X71083Y-45512D01*
X71013Y-45583D01*
X70975Y-45675D01*
X70974Y-45774D01*
X70974Y-46324D01*
X71012Y-46416D01*
X71083Y-46486D01*
X71175Y-46524D01*
X71274Y-46525D01*
X71518Y-46525D01*
X72046Y-47053D01*
X72046Y-47053D01*
X72162Y-47130D01*
X72299Y-47158D01*
X72300Y-47158D01*
X72649Y-47158D01*
X72649Y-47249D01*
X72687Y-47341D01*
X72741Y-47395D01*
X72741Y-47900D01*
X72769Y-48037D01*
X72846Y-48153D01*
X73441Y-48748D01*
X73441Y-49138D01*
X73360Y-49104D01*
X72931Y-49104D01*
X72869Y-49167D01*
X72869Y-49698D01*
X72876Y-49698D01*
X72876Y-49798D01*
X72869Y-49798D01*
X72869Y-50329D01*
X72931Y-50391D01*
X73360Y-50391D01*
X73441Y-50357D01*
X73441Y-50451D01*
X73381Y-50511D01*
X72858Y-50511D01*
X72809Y-50521D01*
X72769Y-50521D01*
X72769Y-50329D01*
X72769Y-49798D01*
X72769Y-49698D01*
X72769Y-49167D01*
X72706Y-49104D01*
X72277Y-49104D01*
X72185Y-49142D01*
X72115Y-49212D01*
X72077Y-49304D01*
X72076Y-49404D01*
X72077Y-49635D01*
X72139Y-49698D01*
X72769Y-49698D01*
X72769Y-49798D01*
X72139Y-49798D01*
X72077Y-49860D01*
X72076Y-50091D01*
X72077Y-50191D01*
X72115Y-50283D01*
X72185Y-50353D01*
X72277Y-50391D01*
X72706Y-50391D01*
X72769Y-50329D01*
X72769Y-50521D01*
X72355Y-50521D01*
X72263Y-50559D01*
X72262Y-50560D01*
X72262Y-50549D01*
X72197Y-50392D01*
X72077Y-50272D01*
X71920Y-50207D01*
X71750Y-50206D01*
X71593Y-50271D01*
X71473Y-50391D01*
X71408Y-50548D01*
X71407Y-50718D01*
X71472Y-50875D01*
X71592Y-50995D01*
X71749Y-51060D01*
X71919Y-51061D01*
X72076Y-50996D01*
X72154Y-50917D01*
X72154Y-51018D01*
X72158Y-51027D01*
X72155Y-51036D01*
X72154Y-51136D01*
X72154Y-51333D01*
X72158Y-51342D01*
X72155Y-51351D01*
X72154Y-51451D01*
X72154Y-51648D01*
X72158Y-51657D01*
X72155Y-51666D01*
X72154Y-51766D01*
X72154Y-51963D01*
X72158Y-51972D01*
X72155Y-51981D01*
X72155Y-52018D01*
X72216Y-52079D01*
X72155Y-52079D01*
X72155Y-52082D01*
X72077Y-52004D01*
X71920Y-51939D01*
X71750Y-51938D01*
X71593Y-52003D01*
X71473Y-52123D01*
X71408Y-52280D01*
X71407Y-52450D01*
X71472Y-52607D01*
X71592Y-52727D01*
X71749Y-52792D01*
X71919Y-52793D01*
X72076Y-52728D01*
X72196Y-52608D01*
X72261Y-52451D01*
X72261Y-52438D01*
X72263Y-52440D01*
X72355Y-52478D01*
X72745Y-52478D01*
X72808Y-52416D01*
X72808Y-52179D01*
X72800Y-52179D01*
X72800Y-52163D01*
X73360Y-52163D01*
X73452Y-52125D01*
X73497Y-52080D01*
X73498Y-52080D01*
X73560Y-52018D01*
X73560Y-51981D01*
X73557Y-51972D01*
X73560Y-51963D01*
X73561Y-51863D01*
X73561Y-51666D01*
X73557Y-51657D01*
X73560Y-51648D01*
X73561Y-51548D01*
X73561Y-51351D01*
X73557Y-51342D01*
X73560Y-51333D01*
X73561Y-51233D01*
X73561Y-51222D01*
X73667Y-51200D01*
X73783Y-51123D01*
X74053Y-50853D01*
X74053Y-50853D01*
X74130Y-50737D01*
X74158Y-50600D01*
X74158Y-50600D01*
X74158Y-49150D01*
X74202Y-49194D01*
X74395Y-49274D01*
X74603Y-49275D01*
X74797Y-49195D01*
X74944Y-49047D01*
X74980Y-48962D01*
X74980Y-51537D01*
X74945Y-51453D01*
X74797Y-51305D01*
X74604Y-51225D01*
X74396Y-51224D01*
X74203Y-51304D01*
X74055Y-51452D01*
X73975Y-51645D01*
X73974Y-51853D01*
X74054Y-52047D01*
X74202Y-52194D01*
X74395Y-52274D01*
X74603Y-52275D01*
X74797Y-52195D01*
X74944Y-52047D01*
X74980Y-51962D01*
X74980Y-52722D01*
X74966Y-52688D01*
X74811Y-52534D01*
X74609Y-52450D01*
X74391Y-52449D01*
X74188Y-52533D01*
X74034Y-52688D01*
X73950Y-52890D01*
X73949Y-53108D01*
X74033Y-53311D01*
X74172Y-53450D01*
X74150Y-53450D01*
X74058Y-53488D01*
X73987Y-53558D01*
X73949Y-53650D01*
X73950Y-53887D01*
X74012Y-53950D01*
X74450Y-53950D01*
X74450Y-53942D01*
X74550Y-53942D01*
X74550Y-53950D01*
X74557Y-53950D01*
X74557Y-54050D01*
X74550Y-54050D01*
X74550Y-54487D01*
X74612Y-54550D01*
X74750Y-54550D01*
X74849Y-54549D01*
X74941Y-54511D01*
X74980Y-54473D01*
X74980Y-54750D01*
X75000Y-54853D01*
X75059Y-54940D01*
X75146Y-54999D01*
X75250Y-55019D01*
X75537Y-55019D01*
X75453Y-55054D01*
X75305Y-55202D01*
X75225Y-55395D01*
X75224Y-55603D01*
X75304Y-55797D01*
X75452Y-55944D01*
X75645Y-56024D01*
X75853Y-56025D01*
X76047Y-55945D01*
X76194Y-55797D01*
X76274Y-55604D01*
X76275Y-55396D01*
X76195Y-55203D01*
X76047Y-55055D01*
X75962Y-55019D01*
X78537Y-55019D01*
X78453Y-55054D01*
X78305Y-55202D01*
X78225Y-55395D01*
X78224Y-55603D01*
X78304Y-55797D01*
X78452Y-55944D01*
X78645Y-56024D01*
X78853Y-56025D01*
X79047Y-55945D01*
X79194Y-55797D01*
X79274Y-55604D01*
X79275Y-55396D01*
X79195Y-55203D01*
X79047Y-55055D01*
X78962Y-55019D01*
X79722Y-55019D01*
X79688Y-55033D01*
X79534Y-55188D01*
X79450Y-55390D01*
X79449Y-55608D01*
X79533Y-55811D01*
X79688Y-55965D01*
X79890Y-56049D01*
X80108Y-56050D01*
X80311Y-55966D01*
X80450Y-55827D01*
X80450Y-55849D01*
X80488Y-55941D01*
X80558Y-56012D01*
X80650Y-56050D01*
X80887Y-56050D01*
X80950Y-55987D01*
X80950Y-55550D01*
X80942Y-55550D01*
X80942Y-55450D01*
X80950Y-55450D01*
X80950Y-55442D01*
X81050Y-55442D01*
X81050Y-55450D01*
X81487Y-55450D01*
X81550Y-55387D01*
X81550Y-55249D01*
X81549Y-55150D01*
X81511Y-55058D01*
X81473Y-55019D01*
X81750Y-55019D01*
X81853Y-54999D01*
X81940Y-54940D01*
X81999Y-54853D01*
X82019Y-54750D01*
X82019Y-54462D01*
X82054Y-54547D01*
X82202Y-54694D01*
X82395Y-54774D01*
X82603Y-54775D01*
X82797Y-54695D01*
X82944Y-54547D01*
X83024Y-54354D01*
X83025Y-54146D01*
X82945Y-53953D01*
X82797Y-53805D01*
X82604Y-53725D01*
X82396Y-53724D01*
X82203Y-53804D01*
X82055Y-53952D01*
X82019Y-54037D01*
X82019Y-51462D01*
X82054Y-51547D01*
X82202Y-51694D01*
X82395Y-51774D01*
X82603Y-51775D01*
X82797Y-51695D01*
X82944Y-51547D01*
X83024Y-51354D01*
X83025Y-51146D01*
X82945Y-50953D01*
X82797Y-50805D01*
X82604Y-50725D01*
X82396Y-50724D01*
X82203Y-50804D01*
X82055Y-50952D01*
X82019Y-51037D01*
X82019Y-50277D01*
X82033Y-50311D01*
X82188Y-50465D01*
X82390Y-50549D01*
X82608Y-50550D01*
X82811Y-50466D01*
X82965Y-50311D01*
X83049Y-50109D01*
X83050Y-49891D01*
X83050Y-56393D01*
X82896Y-56546D01*
X82819Y-56662D01*
X82791Y-56800D01*
X82791Y-58650D01*
X82819Y-58787D01*
X82896Y-58903D01*
X82975Y-58981D01*
X82974Y-59103D01*
X83054Y-59297D01*
X83202Y-59444D01*
X83395Y-59524D01*
X83603Y-59525D01*
X83797Y-59445D01*
X83944Y-59297D01*
X84024Y-59104D01*
X84025Y-58896D01*
X83945Y-58703D01*
X83797Y-58555D01*
X83604Y-58475D01*
X83508Y-58475D01*
X83508Y-57961D01*
X83558Y-58011D01*
X83650Y-58049D01*
X83749Y-58050D01*
X84349Y-58050D01*
X84441Y-58012D01*
X84511Y-57941D01*
X84549Y-57849D01*
X84549Y-57827D01*
X84688Y-57965D01*
X84890Y-58049D01*
X85108Y-58050D01*
X85311Y-57966D01*
X85465Y-57811D01*
X85499Y-57730D01*
X85533Y-57811D01*
X85688Y-57965D01*
X85890Y-58049D01*
X86108Y-58050D01*
X86311Y-57966D01*
X86465Y-57811D01*
X86549Y-57609D01*
X86550Y-57391D01*
X86466Y-57188D01*
X86311Y-57034D01*
X86236Y-57002D01*
X86287Y-56981D01*
X86315Y-56885D01*
X86000Y-56570D01*
X85994Y-56576D01*
X85923Y-56505D01*
X85929Y-56500D01*
X85923Y-56494D01*
X85994Y-56423D01*
X86000Y-56429D01*
X86315Y-56114D01*
X86287Y-56018D01*
X86081Y-55945D01*
X85863Y-55956D01*
X85800Y-55982D01*
X85800Y-55550D01*
X85887Y-55550D01*
X85950Y-55487D01*
X85950Y-55050D01*
X85942Y-55050D01*
X85942Y-54950D01*
X85950Y-54950D01*
X85950Y-54512D01*
X85887Y-54450D01*
X85720Y-54449D01*
X85712Y-54437D01*
X85712Y-54437D01*
X85550Y-54275D01*
X85550Y-51995D01*
X85551Y-51996D01*
X85680Y-52049D01*
X85819Y-52050D01*
X85948Y-51996D01*
X86046Y-51898D01*
X86096Y-51777D01*
X86692Y-51182D01*
X86692Y-51182D01*
X86730Y-51124D01*
X86730Y-58527D01*
X86604Y-58475D01*
X86554Y-58475D01*
X86554Y-56581D01*
X86550Y-56487D01*
X86550Y-55250D01*
X86550Y-54749D01*
X86549Y-54650D01*
X86511Y-54558D01*
X86441Y-54487D01*
X86349Y-54449D01*
X86112Y-54450D01*
X86050Y-54512D01*
X86050Y-54950D01*
X86487Y-54950D01*
X86550Y-54887D01*
X86550Y-54749D01*
X86550Y-55250D01*
X86550Y-55112D01*
X86487Y-55050D01*
X86050Y-55050D01*
X86050Y-55487D01*
X86112Y-55550D01*
X86349Y-55550D01*
X86441Y-55512D01*
X86511Y-55441D01*
X86549Y-55349D01*
X86550Y-55250D01*
X86550Y-56487D01*
X86543Y-56363D01*
X86481Y-56212D01*
X86385Y-56184D01*
X86070Y-56500D01*
X86385Y-56815D01*
X86481Y-56787D01*
X86554Y-56581D01*
X86554Y-58475D01*
X86396Y-58474D01*
X86203Y-58554D01*
X86055Y-58702D01*
X85975Y-58895D01*
X85974Y-59103D01*
X86054Y-59297D01*
X86202Y-59444D01*
X86395Y-59524D01*
X86603Y-59525D01*
X86730Y-59472D01*
X86730Y-59730D01*
M02*
