G04 (created by PCBNEW (2013-07-07 BZR 4022)-stable) date 12/10/2014 10:11:42 PM*
%MOIN*%
G04 Gerber Fmt 3.4, Leading zero omitted, Abs format*
%FSLAX34Y34*%
G01*
G70*
G90*
G04 APERTURE LIST*
%ADD10C,0.00590551*%
%ADD11C,0.055*%
%ADD12R,0.06X0.06*%
%ADD13C,0.06*%
%ADD14R,0.055X0.055*%
%ADD15C,0.02*%
%ADD16C,0.01*%
G04 APERTURE END LIST*
G54D10*
G54D11*
X78750Y-55500D03*
X75750Y-55500D03*
X82500Y-51250D03*
X82500Y-54250D03*
X78250Y-47500D03*
X81250Y-47500D03*
X74500Y-51750D03*
X74500Y-48750D03*
X83500Y-59000D03*
X86500Y-59000D03*
X76000Y-43750D03*
X79000Y-43750D03*
G54D12*
X84000Y-57500D03*
G54D13*
X84000Y-56500D03*
X85000Y-57500D03*
X85000Y-56500D03*
X86000Y-57500D03*
X86000Y-56500D03*
G54D12*
X82500Y-49000D03*
G54D13*
X82500Y-50000D03*
G54D12*
X76000Y-47500D03*
G54D13*
X77000Y-47500D03*
G54D12*
X74500Y-54000D03*
G54D13*
X74500Y-53000D03*
G54D12*
X81000Y-55500D03*
G54D13*
X80000Y-55500D03*
G54D12*
X85000Y-55000D03*
X86000Y-55000D03*
X84000Y-55000D03*
G54D14*
X78750Y-46000D03*
G54D11*
X78750Y-45000D03*
G54D14*
X76500Y-46000D03*
G54D11*
X76500Y-45000D03*
G54D14*
X71500Y-46000D03*
G54D11*
X71500Y-45000D03*
G54D14*
X83600Y-47100D03*
G54D11*
X83600Y-48100D03*
G54D15*
X85750Y-51700D03*
X85750Y-51000D03*
X82700Y-45500D03*
X84750Y-54400D03*
X82700Y-45000D03*
G54D16*
X82500Y-51250D02*
X82500Y-50000D01*
X78250Y-47500D02*
X77000Y-47500D01*
X74500Y-51750D02*
X74500Y-53000D01*
X86500Y-59000D02*
X86500Y-58000D01*
X86500Y-58000D02*
X86000Y-57500D01*
X75750Y-55500D02*
X76300Y-54950D01*
X82500Y-54950D02*
X85750Y-51700D01*
X76300Y-54950D02*
X82500Y-54950D01*
X85750Y-51000D02*
X82500Y-54250D01*
X81250Y-47500D02*
X81250Y-46950D01*
X81250Y-46950D02*
X82700Y-45500D01*
X84500Y-57000D02*
X84000Y-57500D01*
X84500Y-54650D02*
X84500Y-57000D01*
X84750Y-54400D02*
X84500Y-54650D01*
X74500Y-48750D02*
X74500Y-47400D01*
X81050Y-46650D02*
X82700Y-45000D01*
X75250Y-46650D02*
X81050Y-46650D01*
X74500Y-47400D02*
X75250Y-46650D01*
X80000Y-55500D02*
X78750Y-55500D01*
X78750Y-45000D02*
X78750Y-44000D01*
X78750Y-44000D02*
X79000Y-43750D01*
M02*
