M48
;DRILL file {Pcbnew (2013-07-07 BZR 4022)-stable} date 12/11/2014 2:55:02 AM
;FORMAT={2:4/ absolute / inch / keep zeros}
FMAT,2
INCH,TZ
T1C0.013
T2C0.032
T3C0.040
%
G90
G05
M72
T1
X084750Y-054400
T2
X071500Y-045000
X071500Y-046000
X074500Y-048750
X074500Y-051750
X075750Y-055500
X076000Y-043750
X076500Y-045000
X076500Y-046000
X078250Y-047500
X078750Y-045000
X078750Y-046000
X078750Y-055500
X079000Y-043750
X081000Y-045000
X081000Y-046000
X081250Y-047500
X082500Y-051250
X082500Y-054250
X083000Y-043850
X083000Y-044850
X083000Y-045850
X083000Y-046850
X083500Y-059000
X086000Y-043850
X086000Y-044850
X086000Y-045850
X086000Y-046850
X086500Y-059000
T3
X074500Y-053000
X074500Y-054000
X076000Y-047500
X077000Y-047500
X080000Y-055500
X081000Y-055500
X082500Y-049000
X082500Y-050000
X084000Y-055000
X084000Y-056500
X084000Y-057500
X085000Y-055000
X085000Y-056500
X085000Y-057500
X086000Y-055000
X086000Y-056500
X086000Y-057500
T0
M30
