M48
;DRILL file {Pcbnew (2013-07-07 BZR 4022)-stable} date 12/17/2014 5:13:19 PM
;FORMAT={2:4/ absolute / inch / keep zeros}
FMAT,2
INCH,TZ
T1C0.013
T2C0.032
T3C0.040
%
G90
G05
M72
T1
X085750Y-054400
T2
X072500Y-045000
X072500Y-046000
X075000Y-048750
X075000Y-051750
X076750Y-056000
X077000Y-043750
X077500Y-045000
X077500Y-046000
X079250Y-047000
X079750Y-045000
X079750Y-046000
X079750Y-056000
X080000Y-043750
X082000Y-045000
X082000Y-046000
X082250Y-047000
X084000Y-043850
X084000Y-044850
X084000Y-045850
X084000Y-046850
X084000Y-051250
X084000Y-054250
X084500Y-059000
X087000Y-043850
X087000Y-044850
X087000Y-045850
X087000Y-046850
X087500Y-059000
T3
X075000Y-053000
X075000Y-054000
X077000Y-047000
X078000Y-047000
X081000Y-056000
X082000Y-056000
X084000Y-049000
X084000Y-050000
X085000Y-055000
X085000Y-056500
X085000Y-057500
X086000Y-055000
X086000Y-056500
X086000Y-057500
X087000Y-055000
X087000Y-056500
X087000Y-057500
T0
M30
