G04 (created by PCBNEW (2013-07-07 BZR 4022)-stable) date 12/17/2014 5:13:16 PM*
%MOIN*%
G04 Gerber Fmt 3.4, Leading zero omitted, Abs format*
%FSLAX34Y34*%
G01*
G70*
G90*
G04 APERTURE LIST*
%ADD10C,0.00590551*%
%ADD11C,0.011811*%
%ADD12C,0.015*%
%ADD13C,0.008*%
%ADD14C,0.006*%
%ADD15C,0.012*%
%ADD16C,0.005*%
%ADD17C,0.01*%
%ADD18C,0.0075*%
%ADD19C,0.019685*%
%ADD20R,0.0906X0.0197*%
%ADD21R,0.0984X0.0787*%
%ADD22C,0.0354*%
%ADD23R,0.144X0.08*%
%ADD24R,0.04X0.08*%
%ADD25C,0.055*%
%ADD26R,0.06X0.06*%
%ADD27C,0.06*%
%ADD28R,0.055X0.055*%
G04 APERTURE END LIST*
G54D10*
G54D11*
X71398Y-52245D02*
X71876Y-52245D01*
X71932Y-52217D01*
X71960Y-52188D01*
X71989Y-52132D01*
X71989Y-52020D01*
X71960Y-51964D01*
X71932Y-51935D01*
X71876Y-51907D01*
X71398Y-51907D01*
X71960Y-51654D02*
X71989Y-51570D01*
X71989Y-51429D01*
X71960Y-51373D01*
X71932Y-51345D01*
X71876Y-51317D01*
X71820Y-51317D01*
X71764Y-51345D01*
X71735Y-51373D01*
X71707Y-51429D01*
X71679Y-51542D01*
X71651Y-51598D01*
X71623Y-51626D01*
X71567Y-51654D01*
X71510Y-51654D01*
X71454Y-51626D01*
X71426Y-51598D01*
X71398Y-51542D01*
X71398Y-51401D01*
X71426Y-51317D01*
X71679Y-50867D02*
X71707Y-50782D01*
X71735Y-50754D01*
X71792Y-50726D01*
X71876Y-50726D01*
X71932Y-50754D01*
X71960Y-50782D01*
X71989Y-50839D01*
X71989Y-51064D01*
X71398Y-51064D01*
X71398Y-50867D01*
X71426Y-50811D01*
X71454Y-50782D01*
X71510Y-50754D01*
X71567Y-50754D01*
X71623Y-50782D01*
X71651Y-50811D01*
X71679Y-50867D01*
X71679Y-51064D01*
X76912Y-57239D02*
X76912Y-56648D01*
X77053Y-56648D01*
X77137Y-56676D01*
X77194Y-56732D01*
X77222Y-56789D01*
X77250Y-56901D01*
X77250Y-56985D01*
X77222Y-57098D01*
X77194Y-57154D01*
X77137Y-57210D01*
X77053Y-57239D01*
X76912Y-57239D01*
X77728Y-57210D02*
X77672Y-57239D01*
X77559Y-57239D01*
X77503Y-57210D01*
X77475Y-57154D01*
X77475Y-56929D01*
X77503Y-56873D01*
X77559Y-56845D01*
X77672Y-56845D01*
X77728Y-56873D01*
X77756Y-56929D01*
X77756Y-56985D01*
X77475Y-57042D01*
X77981Y-57210D02*
X78037Y-57239D01*
X78150Y-57239D01*
X78206Y-57210D01*
X78234Y-57154D01*
X78234Y-57126D01*
X78206Y-57070D01*
X78150Y-57042D01*
X78065Y-57042D01*
X78009Y-57014D01*
X77981Y-56957D01*
X77981Y-56929D01*
X78009Y-56873D01*
X78065Y-56845D01*
X78150Y-56845D01*
X78206Y-56873D01*
X78487Y-57239D02*
X78487Y-56845D01*
X78487Y-56648D02*
X78459Y-56676D01*
X78487Y-56704D01*
X78515Y-56676D01*
X78487Y-56648D01*
X78487Y-56704D01*
X79021Y-56845D02*
X79021Y-57323D01*
X78993Y-57379D01*
X78965Y-57407D01*
X78909Y-57435D01*
X78825Y-57435D01*
X78768Y-57407D01*
X79021Y-57210D02*
X78965Y-57239D01*
X78853Y-57239D01*
X78796Y-57210D01*
X78768Y-57182D01*
X78740Y-57126D01*
X78740Y-56957D01*
X78768Y-56901D01*
X78796Y-56873D01*
X78853Y-56845D01*
X78965Y-56845D01*
X79021Y-56873D01*
X79303Y-56845D02*
X79303Y-57239D01*
X79303Y-56901D02*
X79331Y-56873D01*
X79387Y-56845D01*
X79471Y-56845D01*
X79528Y-56873D01*
X79556Y-56929D01*
X79556Y-57239D01*
X80062Y-57210D02*
X80006Y-57239D01*
X79893Y-57239D01*
X79837Y-57210D01*
X79809Y-57154D01*
X79809Y-56929D01*
X79837Y-56873D01*
X79893Y-56845D01*
X80006Y-56845D01*
X80062Y-56873D01*
X80090Y-56929D01*
X80090Y-56985D01*
X79809Y-57042D01*
X80596Y-57239D02*
X80596Y-56648D01*
X80596Y-57210D02*
X80540Y-57239D01*
X80428Y-57239D01*
X80371Y-57210D01*
X80343Y-57182D01*
X80315Y-57126D01*
X80315Y-56957D01*
X80343Y-56901D01*
X80371Y-56873D01*
X80428Y-56845D01*
X80540Y-56845D01*
X80596Y-56873D01*
X81524Y-56929D02*
X81609Y-56957D01*
X81637Y-56985D01*
X81665Y-57042D01*
X81665Y-57126D01*
X81637Y-57182D01*
X81609Y-57210D01*
X81552Y-57239D01*
X81327Y-57239D01*
X81327Y-56648D01*
X81524Y-56648D01*
X81580Y-56676D01*
X81609Y-56704D01*
X81637Y-56760D01*
X81637Y-56817D01*
X81609Y-56873D01*
X81580Y-56901D01*
X81524Y-56929D01*
X81327Y-56929D01*
X81862Y-56845D02*
X82002Y-57239D01*
X82143Y-56845D02*
X82002Y-57239D01*
X81946Y-57379D01*
X81918Y-57407D01*
X81862Y-57435D01*
X76631Y-57593D02*
X76969Y-57593D01*
X76800Y-58183D02*
X76800Y-57593D01*
X77109Y-57790D02*
X77250Y-58183D01*
X77390Y-57790D02*
X77250Y-58183D01*
X77194Y-58324D01*
X77165Y-58352D01*
X77109Y-58380D01*
X77700Y-58183D02*
X77643Y-58155D01*
X77615Y-58099D01*
X77615Y-57593D01*
X78150Y-58155D02*
X78093Y-58183D01*
X77981Y-58183D01*
X77925Y-58155D01*
X77897Y-58099D01*
X77897Y-57874D01*
X77925Y-57818D01*
X77981Y-57790D01*
X78093Y-57790D01*
X78150Y-57818D01*
X78178Y-57874D01*
X78178Y-57930D01*
X77897Y-57987D01*
X78431Y-58183D02*
X78431Y-57790D01*
X78431Y-57902D02*
X78459Y-57846D01*
X78487Y-57818D01*
X78543Y-57790D01*
X78600Y-57790D01*
X79246Y-58183D02*
X79246Y-57593D01*
X79246Y-57874D02*
X79584Y-57874D01*
X79584Y-58183D02*
X79584Y-57593D01*
X80118Y-58183D02*
X80118Y-57874D01*
X80090Y-57818D01*
X80034Y-57790D01*
X79921Y-57790D01*
X79865Y-57818D01*
X80118Y-58155D02*
X80062Y-58183D01*
X79921Y-58183D01*
X79865Y-58155D01*
X79837Y-58099D01*
X79837Y-58043D01*
X79865Y-57987D01*
X79921Y-57958D01*
X80062Y-57958D01*
X80118Y-57930D01*
X80652Y-58155D02*
X80596Y-58183D01*
X80484Y-58183D01*
X80428Y-58155D01*
X80399Y-58127D01*
X80371Y-58071D01*
X80371Y-57902D01*
X80399Y-57846D01*
X80428Y-57818D01*
X80484Y-57790D01*
X80596Y-57790D01*
X80652Y-57818D01*
X80906Y-58183D02*
X80906Y-57593D01*
X80962Y-57958D02*
X81131Y-58183D01*
X81131Y-57790D02*
X80906Y-58015D01*
X81609Y-58155D02*
X81552Y-58183D01*
X81440Y-58183D01*
X81384Y-58155D01*
X81356Y-58099D01*
X81356Y-57874D01*
X81384Y-57818D01*
X81440Y-57790D01*
X81552Y-57790D01*
X81609Y-57818D01*
X81637Y-57874D01*
X81637Y-57930D01*
X81356Y-57987D01*
X81805Y-57790D02*
X82030Y-57790D01*
X81890Y-57593D02*
X81890Y-58099D01*
X81918Y-58155D01*
X81974Y-58183D01*
X82030Y-58183D01*
X82143Y-57790D02*
X82368Y-57790D01*
X82227Y-57593D02*
X82227Y-58099D01*
X82255Y-58155D01*
X82312Y-58183D01*
X82368Y-58183D01*
X78487Y-58594D02*
X78515Y-58566D01*
X78571Y-58538D01*
X78712Y-58538D01*
X78768Y-58566D01*
X78796Y-58594D01*
X78825Y-58650D01*
X78825Y-58706D01*
X78796Y-58791D01*
X78459Y-59128D01*
X78825Y-59128D01*
X79190Y-58538D02*
X79246Y-58538D01*
X79303Y-58566D01*
X79331Y-58594D01*
X79359Y-58650D01*
X79387Y-58763D01*
X79387Y-58903D01*
X79359Y-59016D01*
X79331Y-59072D01*
X79303Y-59100D01*
X79246Y-59128D01*
X79190Y-59128D01*
X79134Y-59100D01*
X79106Y-59072D01*
X79078Y-59016D01*
X79050Y-58903D01*
X79050Y-58763D01*
X79078Y-58650D01*
X79106Y-58594D01*
X79134Y-58566D01*
X79190Y-58538D01*
X79949Y-59128D02*
X79612Y-59128D01*
X79781Y-59128D02*
X79781Y-58538D01*
X79724Y-58622D01*
X79668Y-58678D01*
X79612Y-58706D01*
X80456Y-58735D02*
X80456Y-59128D01*
X80315Y-58510D02*
X80174Y-58931D01*
X80540Y-58931D01*
G54D12*
X71133Y-49984D02*
X71133Y-53016D01*
X70739Y-49984D02*
X70739Y-53016D01*
X70739Y-53016D02*
X74361Y-53016D01*
X74361Y-53016D02*
X74361Y-49984D01*
X74361Y-49984D02*
X70739Y-49984D01*
G54D13*
X73600Y-46100D02*
X73600Y-47300D01*
X73600Y-47300D02*
X76400Y-47300D01*
X76400Y-47300D02*
X76400Y-46100D01*
X73600Y-44900D02*
X73600Y-44600D01*
X73600Y-44600D02*
X74200Y-43700D01*
X74200Y-43700D02*
X75800Y-43700D01*
X75800Y-43700D02*
X76400Y-44600D01*
X76400Y-44600D02*
X76400Y-44900D01*
X79750Y-56000D02*
X79550Y-56000D01*
X76750Y-56000D02*
X76950Y-56000D01*
X76950Y-56000D02*
X76950Y-56400D01*
X76950Y-56400D02*
X79550Y-56400D01*
X79550Y-56400D02*
X79550Y-55600D01*
X79550Y-55600D02*
X76950Y-55600D01*
X76950Y-55600D02*
X76950Y-56000D01*
X79550Y-56200D02*
X79350Y-56400D01*
X84000Y-51250D02*
X84000Y-51450D01*
X84000Y-54250D02*
X84000Y-54050D01*
X84000Y-54050D02*
X84400Y-54050D01*
X84400Y-54050D02*
X84400Y-51450D01*
X84400Y-51450D02*
X83600Y-51450D01*
X83600Y-51450D02*
X83600Y-54050D01*
X83600Y-54050D02*
X84000Y-54050D01*
X84200Y-51450D02*
X84400Y-51650D01*
X79250Y-47000D02*
X79450Y-47000D01*
X82250Y-47000D02*
X82050Y-47000D01*
X82050Y-47000D02*
X82050Y-46600D01*
X82050Y-46600D02*
X79450Y-46600D01*
X79450Y-46600D02*
X79450Y-47400D01*
X79450Y-47400D02*
X82050Y-47400D01*
X82050Y-47400D02*
X82050Y-47000D01*
X79450Y-46800D02*
X79650Y-46600D01*
X75000Y-51750D02*
X75000Y-51550D01*
X75000Y-48750D02*
X75000Y-48950D01*
X75000Y-48950D02*
X74600Y-48950D01*
X74600Y-48950D02*
X74600Y-51550D01*
X74600Y-51550D02*
X75400Y-51550D01*
X75400Y-51550D02*
X75400Y-48950D01*
X75400Y-48950D02*
X75000Y-48950D01*
X74800Y-51550D02*
X74600Y-51350D01*
X84500Y-59000D02*
X84700Y-59000D01*
X87500Y-59000D02*
X87300Y-59000D01*
X87300Y-59000D02*
X87300Y-58600D01*
X87300Y-58600D02*
X84700Y-58600D01*
X84700Y-58600D02*
X84700Y-59400D01*
X84700Y-59400D02*
X87300Y-59400D01*
X87300Y-59400D02*
X87300Y-59000D01*
X84700Y-58800D02*
X84900Y-58600D01*
X77000Y-43750D02*
X77200Y-43750D01*
X80000Y-43750D02*
X79800Y-43750D01*
X79800Y-43750D02*
X79800Y-43350D01*
X79800Y-43350D02*
X77200Y-43350D01*
X77200Y-43350D02*
X77200Y-44150D01*
X77200Y-44150D02*
X79800Y-44150D01*
X79800Y-44150D02*
X79800Y-43750D01*
X77200Y-43550D02*
X77400Y-43350D01*
X87500Y-58000D02*
X84500Y-58000D01*
X84500Y-56000D02*
X87500Y-56000D01*
X87500Y-56000D02*
X87500Y-58000D01*
X84500Y-58000D02*
X84500Y-56000D01*
G54D14*
X83500Y-48500D02*
X84500Y-48500D01*
X84500Y-48500D02*
X84500Y-50500D01*
X84500Y-50500D02*
X83500Y-50500D01*
X83500Y-50500D02*
X83500Y-48500D01*
X76500Y-47500D02*
X76500Y-46500D01*
X76500Y-46500D02*
X78500Y-46500D01*
X78500Y-46500D02*
X78500Y-47500D01*
X78500Y-47500D02*
X76500Y-47500D01*
X75500Y-54500D02*
X74500Y-54500D01*
X74500Y-54500D02*
X74500Y-52500D01*
X74500Y-52500D02*
X75500Y-52500D01*
X75500Y-52500D02*
X75500Y-54500D01*
X82500Y-55500D02*
X82500Y-56500D01*
X82500Y-56500D02*
X80500Y-56500D01*
X80500Y-56500D02*
X80500Y-55500D01*
X80500Y-55500D02*
X82500Y-55500D01*
X86500Y-55500D02*
X85500Y-55500D01*
X85500Y-54500D02*
X86500Y-54500D01*
X85500Y-55500D02*
X85500Y-54500D01*
X86500Y-54500D02*
X86500Y-55500D01*
X87500Y-55500D02*
X86500Y-55500D01*
X86500Y-54500D02*
X87500Y-54500D01*
X86500Y-55500D02*
X86500Y-54500D01*
X87500Y-54500D02*
X87500Y-55500D01*
X85500Y-55500D02*
X84500Y-55500D01*
X84500Y-54500D02*
X85500Y-54500D01*
X84500Y-55500D02*
X84500Y-54500D01*
X85500Y-54500D02*
X85500Y-55500D01*
G54D15*
X80750Y-45500D02*
G75*
G03X80750Y-45500I-1000J0D01*
G74*
G01*
X79500Y-44500D02*
X79500Y-44750D01*
X79500Y-44750D02*
X80000Y-44750D01*
X80000Y-44750D02*
X80000Y-44500D01*
G54D16*
X78501Y-45500D02*
G75*
G03X78501Y-45500I-1001J0D01*
G74*
G01*
X73501Y-45500D02*
G75*
G03X73501Y-45500I-1001J0D01*
G74*
G01*
X83001Y-45500D02*
G75*
G03X83001Y-45500I-1001J0D01*
G74*
G01*
G54D17*
X85000Y-47350D02*
X85000Y-46850D01*
X85000Y-46850D02*
X86000Y-46850D01*
X86000Y-46850D02*
X86000Y-47350D01*
X84500Y-47350D02*
X84500Y-43350D01*
X84500Y-43350D02*
X86500Y-43350D01*
X86500Y-43350D02*
X86500Y-47350D01*
X86500Y-47350D02*
X84500Y-47350D01*
G54D13*
X72261Y-51804D02*
X72585Y-51804D01*
X72623Y-51785D01*
X72642Y-51766D01*
X72661Y-51728D01*
X72661Y-51652D01*
X72642Y-51614D01*
X72623Y-51595D01*
X72585Y-51576D01*
X72261Y-51576D01*
X72661Y-51176D02*
X72661Y-51404D01*
X72661Y-51290D02*
X72261Y-51290D01*
X72319Y-51328D01*
X72357Y-51366D01*
X72376Y-51404D01*
X74733Y-45361D02*
X74600Y-45171D01*
X74504Y-45361D02*
X74504Y-44961D01*
X74657Y-44961D01*
X74695Y-44980D01*
X74714Y-45000D01*
X74733Y-45038D01*
X74733Y-45095D01*
X74714Y-45133D01*
X74695Y-45152D01*
X74657Y-45171D01*
X74504Y-45171D01*
X75114Y-44980D02*
X75076Y-44961D01*
X75019Y-44961D01*
X74961Y-44980D01*
X74923Y-45019D01*
X74904Y-45057D01*
X74885Y-45133D01*
X74885Y-45190D01*
X74904Y-45266D01*
X74923Y-45304D01*
X74961Y-45342D01*
X75019Y-45361D01*
X75057Y-45361D01*
X75114Y-45342D01*
X75133Y-45323D01*
X75133Y-45190D01*
X75057Y-45190D01*
X75514Y-45361D02*
X75285Y-45361D01*
X75400Y-45361D02*
X75400Y-44961D01*
X75361Y-45019D01*
X75323Y-45057D01*
X75285Y-45076D01*
X73923Y-45561D02*
X74152Y-45561D01*
X74038Y-45961D02*
X74038Y-45561D01*
X74514Y-45923D02*
X74495Y-45942D01*
X74438Y-45961D01*
X74400Y-45961D01*
X74342Y-45942D01*
X74304Y-45904D01*
X74285Y-45866D01*
X74266Y-45790D01*
X74266Y-45733D01*
X74285Y-45657D01*
X74304Y-45619D01*
X74342Y-45580D01*
X74400Y-45561D01*
X74438Y-45561D01*
X74495Y-45580D01*
X74514Y-45600D01*
X74895Y-45961D02*
X74666Y-45961D01*
X74780Y-45961D02*
X74780Y-45561D01*
X74742Y-45619D01*
X74704Y-45657D01*
X74666Y-45676D01*
X75047Y-45600D02*
X75066Y-45580D01*
X75104Y-45561D01*
X75200Y-45561D01*
X75238Y-45580D01*
X75257Y-45600D01*
X75276Y-45638D01*
X75276Y-45676D01*
X75257Y-45733D01*
X75028Y-45961D01*
X75276Y-45961D01*
X75619Y-45561D02*
X75542Y-45561D01*
X75504Y-45580D01*
X75485Y-45600D01*
X75447Y-45657D01*
X75428Y-45733D01*
X75428Y-45885D01*
X75447Y-45923D01*
X75466Y-45942D01*
X75504Y-45961D01*
X75580Y-45961D01*
X75619Y-45942D01*
X75638Y-45923D01*
X75657Y-45885D01*
X75657Y-45790D01*
X75638Y-45752D01*
X75619Y-45733D01*
X75580Y-45714D01*
X75504Y-45714D01*
X75466Y-45733D01*
X75447Y-45752D01*
X75428Y-45790D01*
X75809Y-45600D02*
X75828Y-45580D01*
X75866Y-45561D01*
X75961Y-45561D01*
X76000Y-45580D01*
X76019Y-45600D01*
X76038Y-45638D01*
X76038Y-45676D01*
X76019Y-45733D01*
X75790Y-45961D01*
X76038Y-45961D01*
X77964Y-55858D02*
X77916Y-55832D01*
X77892Y-55805D01*
X77869Y-55753D01*
X77869Y-55727D01*
X77892Y-55675D01*
X77916Y-55648D01*
X77964Y-55622D01*
X78059Y-55622D01*
X78107Y-55648D01*
X78130Y-55675D01*
X78154Y-55727D01*
X78154Y-55753D01*
X78130Y-55805D01*
X78107Y-55832D01*
X78059Y-55858D01*
X77964Y-55858D01*
X77916Y-55884D01*
X77892Y-55910D01*
X77869Y-55963D01*
X77869Y-56067D01*
X77892Y-56120D01*
X77916Y-56146D01*
X77964Y-56172D01*
X78059Y-56172D01*
X78107Y-56146D01*
X78130Y-56120D01*
X78154Y-56067D01*
X78154Y-55963D01*
X78130Y-55910D01*
X78107Y-55884D01*
X78059Y-55858D01*
X78345Y-55675D02*
X78369Y-55648D01*
X78416Y-55622D01*
X78535Y-55622D01*
X78583Y-55648D01*
X78607Y-55675D01*
X78630Y-55727D01*
X78630Y-55779D01*
X78607Y-55858D01*
X78321Y-56172D01*
X78630Y-56172D01*
X83858Y-53035D02*
X83832Y-53083D01*
X83805Y-53107D01*
X83753Y-53130D01*
X83727Y-53130D01*
X83675Y-53107D01*
X83648Y-53083D01*
X83622Y-53035D01*
X83622Y-52940D01*
X83648Y-52892D01*
X83675Y-52869D01*
X83727Y-52845D01*
X83753Y-52845D01*
X83805Y-52869D01*
X83832Y-52892D01*
X83858Y-52940D01*
X83858Y-53035D01*
X83884Y-53083D01*
X83910Y-53107D01*
X83963Y-53130D01*
X84067Y-53130D01*
X84120Y-53107D01*
X84146Y-53083D01*
X84172Y-53035D01*
X84172Y-52940D01*
X84146Y-52892D01*
X84120Y-52869D01*
X84067Y-52845D01*
X83963Y-52845D01*
X83910Y-52869D01*
X83884Y-52892D01*
X83858Y-52940D01*
X83675Y-52654D02*
X83648Y-52630D01*
X83622Y-52583D01*
X83622Y-52464D01*
X83648Y-52416D01*
X83675Y-52392D01*
X83727Y-52369D01*
X83779Y-52369D01*
X83858Y-52392D01*
X84172Y-52678D01*
X84172Y-52369D01*
X80464Y-46958D02*
X80416Y-46932D01*
X80392Y-46905D01*
X80369Y-46853D01*
X80369Y-46827D01*
X80392Y-46775D01*
X80416Y-46748D01*
X80464Y-46722D01*
X80559Y-46722D01*
X80607Y-46748D01*
X80630Y-46775D01*
X80654Y-46827D01*
X80654Y-46853D01*
X80630Y-46905D01*
X80607Y-46932D01*
X80559Y-46958D01*
X80464Y-46958D01*
X80416Y-46984D01*
X80392Y-47010D01*
X80369Y-47063D01*
X80369Y-47167D01*
X80392Y-47220D01*
X80416Y-47246D01*
X80464Y-47272D01*
X80559Y-47272D01*
X80607Y-47246D01*
X80630Y-47220D01*
X80654Y-47167D01*
X80654Y-47063D01*
X80630Y-47010D01*
X80607Y-46984D01*
X80559Y-46958D01*
X80845Y-46775D02*
X80869Y-46748D01*
X80916Y-46722D01*
X81035Y-46722D01*
X81083Y-46748D01*
X81107Y-46775D01*
X81130Y-46827D01*
X81130Y-46879D01*
X81107Y-46958D01*
X80821Y-47272D01*
X81130Y-47272D01*
X74958Y-50535D02*
X74932Y-50583D01*
X74905Y-50607D01*
X74853Y-50630D01*
X74827Y-50630D01*
X74775Y-50607D01*
X74748Y-50583D01*
X74722Y-50535D01*
X74722Y-50440D01*
X74748Y-50392D01*
X74775Y-50369D01*
X74827Y-50345D01*
X74853Y-50345D01*
X74905Y-50369D01*
X74932Y-50392D01*
X74958Y-50440D01*
X74958Y-50535D01*
X74984Y-50583D01*
X75010Y-50607D01*
X75063Y-50630D01*
X75167Y-50630D01*
X75220Y-50607D01*
X75246Y-50583D01*
X75272Y-50535D01*
X75272Y-50440D01*
X75246Y-50392D01*
X75220Y-50369D01*
X75167Y-50345D01*
X75063Y-50345D01*
X75010Y-50369D01*
X74984Y-50392D01*
X74958Y-50440D01*
X74775Y-50154D02*
X74748Y-50130D01*
X74722Y-50083D01*
X74722Y-49964D01*
X74748Y-49916D01*
X74775Y-49892D01*
X74827Y-49869D01*
X74879Y-49869D01*
X74958Y-49892D01*
X75272Y-50178D01*
X75272Y-49869D01*
X85607Y-58905D02*
X85607Y-59272D01*
X85488Y-58696D02*
X85369Y-59089D01*
X85678Y-59089D01*
X85821Y-58722D02*
X86154Y-58722D01*
X85940Y-59272D01*
X86345Y-59272D02*
X86345Y-58722D01*
X86630Y-59272D02*
X86416Y-58958D01*
X86630Y-58722D02*
X86345Y-59036D01*
X78166Y-44022D02*
X77880Y-44022D01*
X78023Y-44022D02*
X78023Y-43472D01*
X77976Y-43551D01*
X77928Y-43603D01*
X77880Y-43629D01*
X78333Y-43472D02*
X78642Y-43472D01*
X78476Y-43682D01*
X78547Y-43682D01*
X78595Y-43708D01*
X78619Y-43734D01*
X78642Y-43786D01*
X78642Y-43917D01*
X78619Y-43970D01*
X78595Y-43996D01*
X78547Y-44022D01*
X78404Y-44022D01*
X78357Y-43996D01*
X78333Y-43970D01*
X78952Y-43472D02*
X79000Y-43472D01*
X79047Y-43498D01*
X79071Y-43525D01*
X79095Y-43577D01*
X79119Y-43682D01*
X79119Y-43813D01*
X79095Y-43917D01*
X79071Y-43970D01*
X79047Y-43996D01*
X79000Y-44022D01*
X78952Y-44022D01*
X78904Y-43996D01*
X78880Y-43970D01*
X78857Y-43917D01*
X78833Y-43813D01*
X78833Y-43682D01*
X78857Y-43577D01*
X78880Y-43525D01*
X78904Y-43498D01*
X78952Y-43472D01*
G54D18*
X85635Y-55842D02*
X85621Y-55857D01*
X85578Y-55871D01*
X85550Y-55871D01*
X85507Y-55857D01*
X85478Y-55828D01*
X85464Y-55800D01*
X85450Y-55742D01*
X85450Y-55700D01*
X85464Y-55642D01*
X85478Y-55614D01*
X85507Y-55585D01*
X85550Y-55571D01*
X85578Y-55571D01*
X85621Y-55585D01*
X85635Y-55600D01*
X85821Y-55571D02*
X85878Y-55571D01*
X85907Y-55585D01*
X85935Y-55614D01*
X85950Y-55671D01*
X85950Y-55771D01*
X85935Y-55828D01*
X85907Y-55857D01*
X85878Y-55871D01*
X85821Y-55871D01*
X85792Y-55857D01*
X85764Y-55828D01*
X85750Y-55771D01*
X85750Y-55671D01*
X85764Y-55614D01*
X85792Y-55585D01*
X85821Y-55571D01*
X86078Y-55871D02*
X86078Y-55571D01*
X86250Y-55871D01*
X86250Y-55571D01*
X86550Y-55871D02*
X86378Y-55871D01*
X86464Y-55871D02*
X86464Y-55571D01*
X86435Y-55614D01*
X86407Y-55642D01*
X86378Y-55657D01*
G54D14*
X84871Y-49721D02*
X84571Y-49721D01*
X84571Y-49607D01*
X84585Y-49578D01*
X84600Y-49564D01*
X84628Y-49550D01*
X84671Y-49550D01*
X84700Y-49564D01*
X84714Y-49578D01*
X84728Y-49607D01*
X84728Y-49721D01*
X84571Y-49450D02*
X84571Y-49264D01*
X84685Y-49364D01*
X84685Y-49321D01*
X84700Y-49292D01*
X84714Y-49278D01*
X84742Y-49264D01*
X84814Y-49264D01*
X84842Y-49278D01*
X84857Y-49292D01*
X84871Y-49321D01*
X84871Y-49407D01*
X84857Y-49435D01*
X84842Y-49450D01*
X77278Y-46371D02*
X77278Y-46071D01*
X77392Y-46071D01*
X77421Y-46085D01*
X77435Y-46100D01*
X77450Y-46128D01*
X77450Y-46171D01*
X77435Y-46200D01*
X77421Y-46214D01*
X77392Y-46228D01*
X77278Y-46228D01*
X77564Y-46100D02*
X77578Y-46085D01*
X77607Y-46071D01*
X77678Y-46071D01*
X77707Y-46085D01*
X77721Y-46100D01*
X77735Y-46128D01*
X77735Y-46157D01*
X77721Y-46200D01*
X77550Y-46371D01*
X77735Y-46371D01*
X74371Y-53721D02*
X74071Y-53721D01*
X74071Y-53607D01*
X74085Y-53578D01*
X74100Y-53564D01*
X74128Y-53550D01*
X74171Y-53550D01*
X74200Y-53564D01*
X74214Y-53578D01*
X74228Y-53607D01*
X74228Y-53721D01*
X74371Y-53264D02*
X74371Y-53435D01*
X74371Y-53350D02*
X74071Y-53350D01*
X74114Y-53378D01*
X74142Y-53407D01*
X74157Y-53435D01*
X81278Y-56871D02*
X81278Y-56571D01*
X81392Y-56571D01*
X81421Y-56585D01*
X81435Y-56600D01*
X81450Y-56628D01*
X81450Y-56671D01*
X81435Y-56700D01*
X81421Y-56714D01*
X81392Y-56728D01*
X81278Y-56728D01*
X81707Y-56671D02*
X81707Y-56871D01*
X81635Y-56557D02*
X81564Y-56771D01*
X81750Y-56771D01*
X85778Y-54371D02*
X85778Y-54071D01*
X85892Y-54071D01*
X85921Y-54085D01*
X85935Y-54100D01*
X85950Y-54128D01*
X85950Y-54171D01*
X85935Y-54200D01*
X85921Y-54214D01*
X85892Y-54228D01*
X85778Y-54228D01*
X86050Y-54071D02*
X86250Y-54071D01*
X86121Y-54371D01*
X86778Y-54371D02*
X86778Y-54071D01*
X86892Y-54071D01*
X86921Y-54085D01*
X86935Y-54100D01*
X86950Y-54128D01*
X86950Y-54171D01*
X86935Y-54200D01*
X86921Y-54214D01*
X86892Y-54228D01*
X86778Y-54228D01*
X87207Y-54071D02*
X87150Y-54071D01*
X87121Y-54085D01*
X87107Y-54100D01*
X87078Y-54142D01*
X87064Y-54200D01*
X87064Y-54314D01*
X87078Y-54342D01*
X87092Y-54357D01*
X87121Y-54371D01*
X87178Y-54371D01*
X87207Y-54357D01*
X87221Y-54342D01*
X87235Y-54314D01*
X87235Y-54242D01*
X87221Y-54214D01*
X87207Y-54200D01*
X87178Y-54185D01*
X87121Y-54185D01*
X87092Y-54200D01*
X87078Y-54214D01*
X87064Y-54242D01*
X84778Y-54371D02*
X84778Y-54071D01*
X84892Y-54071D01*
X84921Y-54085D01*
X84935Y-54100D01*
X84950Y-54128D01*
X84950Y-54171D01*
X84935Y-54200D01*
X84921Y-54214D01*
X84892Y-54228D01*
X84778Y-54228D01*
X85221Y-54071D02*
X85078Y-54071D01*
X85064Y-54214D01*
X85078Y-54200D01*
X85107Y-54185D01*
X85178Y-54185D01*
X85207Y-54200D01*
X85221Y-54214D01*
X85235Y-54242D01*
X85235Y-54314D01*
X85221Y-54342D01*
X85207Y-54357D01*
X85178Y-54371D01*
X85107Y-54371D01*
X85078Y-54357D01*
X85064Y-54342D01*
G54D15*
X79402Y-45869D02*
X78902Y-45869D01*
X78902Y-45750D01*
X78926Y-45678D01*
X78973Y-45630D01*
X79021Y-45607D01*
X79116Y-45583D01*
X79188Y-45583D01*
X79283Y-45607D01*
X79330Y-45630D01*
X79378Y-45678D01*
X79402Y-45750D01*
X79402Y-45869D01*
X79402Y-45107D02*
X79402Y-45392D01*
X79402Y-45250D02*
X78902Y-45250D01*
X78973Y-45297D01*
X79021Y-45345D01*
X79045Y-45392D01*
G54D16*
X77093Y-45550D02*
X77108Y-45564D01*
X77122Y-45607D01*
X77122Y-45635D01*
X77108Y-45678D01*
X77079Y-45707D01*
X77051Y-45721D01*
X76993Y-45735D01*
X76951Y-45735D01*
X76893Y-45721D01*
X76865Y-45707D01*
X76836Y-45678D01*
X76822Y-45635D01*
X76822Y-45607D01*
X76836Y-45564D01*
X76851Y-45550D01*
X76851Y-45435D02*
X76836Y-45421D01*
X76822Y-45392D01*
X76822Y-45321D01*
X76836Y-45292D01*
X76851Y-45278D01*
X76879Y-45264D01*
X76908Y-45264D01*
X76951Y-45278D01*
X77122Y-45450D01*
X77122Y-45264D01*
X78121Y-45767D02*
X78121Y-45910D01*
X78121Y-45839D02*
X77821Y-45839D01*
X77864Y-45863D01*
X77892Y-45886D01*
X77907Y-45910D01*
X77821Y-45613D02*
X77821Y-45589D01*
X77835Y-45565D01*
X77850Y-45553D01*
X77878Y-45541D01*
X77935Y-45529D01*
X78007Y-45529D01*
X78064Y-45541D01*
X78092Y-45553D01*
X78107Y-45565D01*
X78121Y-45589D01*
X78121Y-45613D01*
X78107Y-45636D01*
X78092Y-45648D01*
X78064Y-45660D01*
X78007Y-45672D01*
X77935Y-45672D01*
X77878Y-45660D01*
X77850Y-45648D01*
X77835Y-45636D01*
X77821Y-45613D01*
X77921Y-45315D02*
X78121Y-45315D01*
X77921Y-45422D02*
X78078Y-45422D01*
X78107Y-45410D01*
X78121Y-45386D01*
X78121Y-45351D01*
X78107Y-45327D01*
X78092Y-45315D01*
X77964Y-45113D02*
X77964Y-45196D01*
X78121Y-45196D02*
X77821Y-45196D01*
X77821Y-45077D01*
G54D18*
X77507Y-46514D02*
X77507Y-46285D01*
X77621Y-46400D02*
X77392Y-46400D01*
G54D13*
G54D16*
X72093Y-45550D02*
X72108Y-45564D01*
X72122Y-45607D01*
X72122Y-45635D01*
X72108Y-45678D01*
X72079Y-45707D01*
X72051Y-45721D01*
X71993Y-45735D01*
X71951Y-45735D01*
X71893Y-45721D01*
X71865Y-45707D01*
X71836Y-45678D01*
X71822Y-45635D01*
X71822Y-45607D01*
X71836Y-45564D01*
X71851Y-45550D01*
X72122Y-45264D02*
X72122Y-45435D01*
X72122Y-45350D02*
X71822Y-45350D01*
X71865Y-45378D01*
X71893Y-45407D01*
X71908Y-45435D01*
X73121Y-45767D02*
X73121Y-45910D01*
X73121Y-45839D02*
X72821Y-45839D01*
X72864Y-45863D01*
X72892Y-45886D01*
X72907Y-45910D01*
X72821Y-45613D02*
X72821Y-45589D01*
X72835Y-45565D01*
X72850Y-45553D01*
X72878Y-45541D01*
X72935Y-45529D01*
X73007Y-45529D01*
X73064Y-45541D01*
X73092Y-45553D01*
X73107Y-45565D01*
X73121Y-45589D01*
X73121Y-45613D01*
X73107Y-45636D01*
X73092Y-45648D01*
X73064Y-45660D01*
X73007Y-45672D01*
X72935Y-45672D01*
X72878Y-45660D01*
X72850Y-45648D01*
X72835Y-45636D01*
X72821Y-45613D01*
X72921Y-45315D02*
X73121Y-45315D01*
X72921Y-45422D02*
X73078Y-45422D01*
X73107Y-45410D01*
X73121Y-45386D01*
X73121Y-45351D01*
X73107Y-45327D01*
X73092Y-45315D01*
X72964Y-45113D02*
X72964Y-45196D01*
X73121Y-45196D02*
X72821Y-45196D01*
X72821Y-45077D01*
G54D18*
X72507Y-46514D02*
X72507Y-46285D01*
X72621Y-46400D02*
X72392Y-46400D01*
G54D13*
G54D16*
X81593Y-45550D02*
X81608Y-45564D01*
X81622Y-45607D01*
X81622Y-45635D01*
X81608Y-45678D01*
X81579Y-45707D01*
X81551Y-45721D01*
X81493Y-45735D01*
X81451Y-45735D01*
X81393Y-45721D01*
X81365Y-45707D01*
X81336Y-45678D01*
X81322Y-45635D01*
X81322Y-45607D01*
X81336Y-45564D01*
X81351Y-45550D01*
X81322Y-45450D02*
X81322Y-45264D01*
X81436Y-45364D01*
X81436Y-45321D01*
X81451Y-45292D01*
X81465Y-45278D01*
X81493Y-45264D01*
X81565Y-45264D01*
X81593Y-45278D01*
X81608Y-45292D01*
X81622Y-45321D01*
X81622Y-45407D01*
X81608Y-45435D01*
X81593Y-45450D01*
X82621Y-45648D02*
X82621Y-45791D01*
X82621Y-45720D02*
X82321Y-45720D01*
X82364Y-45744D01*
X82392Y-45767D01*
X82407Y-45791D01*
X82421Y-45434D02*
X82621Y-45434D01*
X82421Y-45541D02*
X82578Y-45541D01*
X82607Y-45529D01*
X82621Y-45505D01*
X82621Y-45470D01*
X82607Y-45446D01*
X82592Y-45434D01*
X82464Y-45232D02*
X82464Y-45315D01*
X82621Y-45315D02*
X82321Y-45315D01*
X82321Y-45196D01*
G54D18*
X82007Y-46514D02*
X82007Y-46285D01*
X82121Y-46400D02*
X81892Y-46400D01*
G54D13*
X85060Y-48052D02*
X85060Y-47552D01*
X85532Y-48004D02*
X85510Y-48028D01*
X85446Y-48052D01*
X85403Y-48052D01*
X85339Y-48028D01*
X85296Y-47980D01*
X85275Y-47933D01*
X85253Y-47838D01*
X85253Y-47766D01*
X85275Y-47671D01*
X85296Y-47623D01*
X85339Y-47576D01*
X85403Y-47552D01*
X85446Y-47552D01*
X85510Y-47576D01*
X85532Y-47600D01*
X85960Y-48052D02*
X85703Y-48052D01*
X85832Y-48052D02*
X85832Y-47552D01*
X85789Y-47623D01*
X85746Y-47671D01*
X85703Y-47695D01*
X85559Y-47045D02*
X85559Y-46854D01*
X85702Y-47083D02*
X85202Y-46949D01*
X85702Y-46816D01*
X85202Y-46740D02*
X85202Y-46511D01*
X85702Y-46626D02*
X85202Y-46626D01*
X85202Y-46435D02*
X85202Y-46207D01*
X85702Y-46321D02*
X85202Y-46321D01*
X85702Y-46073D02*
X85202Y-46073D01*
X85702Y-45883D02*
X85202Y-45883D01*
X85702Y-45654D01*
X85202Y-45654D01*
X85464Y-45388D02*
X85702Y-45388D01*
X85202Y-45521D02*
X85464Y-45388D01*
X85202Y-45254D01*
X85416Y-45064D02*
X85392Y-45102D01*
X85369Y-45121D01*
X85321Y-45140D01*
X85297Y-45140D01*
X85250Y-45121D01*
X85226Y-45102D01*
X85202Y-45064D01*
X85202Y-44988D01*
X85226Y-44950D01*
X85250Y-44930D01*
X85297Y-44911D01*
X85321Y-44911D01*
X85369Y-44930D01*
X85392Y-44950D01*
X85416Y-44988D01*
X85416Y-45064D01*
X85440Y-45102D01*
X85464Y-45121D01*
X85511Y-45140D01*
X85607Y-45140D01*
X85654Y-45121D01*
X85678Y-45102D01*
X85702Y-45064D01*
X85702Y-44988D01*
X85678Y-44950D01*
X85654Y-44930D01*
X85607Y-44911D01*
X85511Y-44911D01*
X85464Y-44930D01*
X85440Y-44950D01*
X85416Y-44988D01*
X85202Y-44550D02*
X85202Y-44740D01*
X85440Y-44759D01*
X85416Y-44740D01*
X85392Y-44702D01*
X85392Y-44607D01*
X85416Y-44569D01*
X85440Y-44550D01*
X85488Y-44530D01*
X85607Y-44530D01*
X85654Y-44550D01*
X85678Y-44569D01*
X85702Y-44607D01*
X85702Y-44702D01*
X85678Y-44740D01*
X85654Y-44759D01*
X85511Y-44359D02*
X85511Y-44054D01*
X85678Y-43883D02*
X85702Y-43826D01*
X85702Y-43730D01*
X85678Y-43692D01*
X85654Y-43673D01*
X85607Y-43654D01*
X85559Y-43654D01*
X85511Y-43673D01*
X85488Y-43692D01*
X85464Y-43730D01*
X85440Y-43807D01*
X85416Y-43845D01*
X85392Y-43864D01*
X85345Y-43883D01*
X85297Y-43883D01*
X85250Y-43864D01*
X85226Y-43845D01*
X85202Y-43807D01*
X85202Y-43711D01*
X85226Y-43654D01*
%LPC*%
G54D19*
X73820Y-54637D02*
X73820Y-55425D01*
X72442Y-55031D02*
X73820Y-55031D01*
X72835Y-55818D02*
X72835Y-56475D01*
X72442Y-55687D02*
X73820Y-56146D01*
X72442Y-56606D01*
X72507Y-57000D02*
X72442Y-57196D01*
X72442Y-57524D01*
X72507Y-57656D01*
X72573Y-57721D01*
X72704Y-57787D01*
X72835Y-57787D01*
X72967Y-57721D01*
X73032Y-57656D01*
X73098Y-57524D01*
X73164Y-57262D01*
X73229Y-57131D01*
X73295Y-57065D01*
X73426Y-57000D01*
X73557Y-57000D01*
X73688Y-57065D01*
X73754Y-57131D01*
X73820Y-57262D01*
X73820Y-57590D01*
X73754Y-57787D01*
X72442Y-58377D02*
X73820Y-58377D01*
X73164Y-58377D02*
X73164Y-59165D01*
X72442Y-59165D02*
X73820Y-59165D01*
G54D20*
X73908Y-50870D03*
X73908Y-51185D03*
X73908Y-51500D03*
X73908Y-51815D03*
X73908Y-52130D03*
G54D21*
X73869Y-49748D03*
X71704Y-49748D03*
X73869Y-53252D03*
X71704Y-53252D03*
G54D22*
X72885Y-50634D03*
X72885Y-52366D03*
G54D23*
X75000Y-44200D03*
G54D24*
X75000Y-46800D03*
X75900Y-46800D03*
X74100Y-46800D03*
G54D25*
X79750Y-56000D03*
X76750Y-56000D03*
X84000Y-51250D03*
X84000Y-54250D03*
X79250Y-47000D03*
X82250Y-47000D03*
X75000Y-51750D03*
X75000Y-48750D03*
X84500Y-59000D03*
X87500Y-59000D03*
X77000Y-43750D03*
X80000Y-43750D03*
G54D26*
X85000Y-57500D03*
G54D27*
X85000Y-56500D03*
X86000Y-57500D03*
X86000Y-56500D03*
X87000Y-57500D03*
X87000Y-56500D03*
G54D26*
X84000Y-49000D03*
G54D27*
X84000Y-50000D03*
G54D26*
X77000Y-47000D03*
G54D27*
X78000Y-47000D03*
G54D26*
X75000Y-54000D03*
G54D27*
X75000Y-53000D03*
G54D26*
X82000Y-56000D03*
G54D27*
X81000Y-56000D03*
G54D26*
X86000Y-55000D03*
X87000Y-55000D03*
X85000Y-55000D03*
G54D28*
X79750Y-46000D03*
G54D25*
X79750Y-45000D03*
G54D28*
X77500Y-46000D03*
G54D25*
X77500Y-45000D03*
G54D28*
X72500Y-46000D03*
G54D25*
X72500Y-45000D03*
G54D28*
X82000Y-46000D03*
G54D25*
X82000Y-45000D03*
G54D28*
X87000Y-46850D03*
G54D25*
X87000Y-45850D03*
X87000Y-44850D03*
X87000Y-43850D03*
X84000Y-43850D03*
X84000Y-44850D03*
X84000Y-45850D03*
X84000Y-46850D03*
M02*
