G04 (created by PCBNEW (2013-07-07 BZR 4022)-stable) date 12/17/2014 5:13:16 PM*
%MOIN*%
G04 Gerber Fmt 3.4, Leading zero omitted, Abs format*
%FSLAX34Y34*%
G01*
G70*
G90*
G04 APERTURE LIST*
%ADD10C,0.00590551*%
%ADD11C,0.055*%
%ADD12R,0.06X0.06*%
%ADD13C,0.06*%
%ADD14R,0.055X0.055*%
%ADD15C,0.02*%
%ADD16C,0.01*%
G04 APERTURE END LIST*
G54D10*
G54D11*
X79750Y-56000D03*
X76750Y-56000D03*
X84000Y-51250D03*
X84000Y-54250D03*
X79250Y-47000D03*
X82250Y-47000D03*
X75000Y-51750D03*
X75000Y-48750D03*
X84500Y-59000D03*
X87500Y-59000D03*
X77000Y-43750D03*
X80000Y-43750D03*
G54D12*
X85000Y-57500D03*
G54D13*
X85000Y-56500D03*
X86000Y-57500D03*
X86000Y-56500D03*
X87000Y-57500D03*
X87000Y-56500D03*
G54D12*
X84000Y-49000D03*
G54D13*
X84000Y-50000D03*
G54D12*
X77000Y-47000D03*
G54D13*
X78000Y-47000D03*
G54D12*
X75000Y-54000D03*
G54D13*
X75000Y-53000D03*
G54D12*
X82000Y-56000D03*
G54D13*
X81000Y-56000D03*
G54D12*
X86000Y-55000D03*
X87000Y-55000D03*
X85000Y-55000D03*
G54D14*
X79750Y-46000D03*
G54D11*
X79750Y-45000D03*
G54D14*
X77500Y-46000D03*
G54D11*
X77500Y-45000D03*
G54D14*
X72500Y-46000D03*
G54D11*
X72500Y-45000D03*
G54D14*
X82000Y-46000D03*
G54D11*
X82000Y-45000D03*
G54D14*
X87000Y-46850D03*
G54D11*
X87000Y-45850D03*
X87000Y-44850D03*
X87000Y-43850D03*
X84000Y-43850D03*
X84000Y-44850D03*
X84000Y-45850D03*
X84000Y-46850D03*
G54D15*
X85750Y-54400D03*
G54D16*
X84000Y-51250D02*
X84000Y-50000D01*
X79250Y-47000D02*
X78000Y-47000D01*
X75000Y-51750D02*
X75000Y-53000D01*
X87500Y-59000D02*
X87500Y-58000D01*
X87500Y-58000D02*
X87000Y-57500D01*
X84000Y-55000D02*
X83500Y-55500D01*
X77250Y-55500D02*
X76750Y-56000D01*
X83500Y-55500D02*
X77250Y-55500D01*
X87700Y-51300D02*
X87700Y-50500D01*
X84000Y-55000D02*
X87700Y-51300D01*
X87000Y-44850D02*
X87100Y-44850D01*
X87100Y-44850D02*
X87700Y-45450D01*
X87700Y-45450D02*
X87700Y-50500D01*
X87500Y-50250D02*
X87500Y-50750D01*
X87500Y-50750D02*
X84000Y-54250D01*
X87000Y-45850D02*
X87500Y-46350D01*
X87500Y-46350D02*
X87500Y-50250D01*
X82250Y-47000D02*
X82850Y-47000D01*
X82850Y-47000D02*
X84000Y-45850D01*
X84000Y-44850D02*
X83950Y-44850D01*
X75000Y-47800D02*
X75000Y-48750D01*
X76300Y-46500D02*
X75000Y-47800D01*
X82300Y-46500D02*
X76300Y-46500D01*
X83950Y-44850D02*
X82300Y-46500D01*
X85500Y-57000D02*
X85000Y-57500D01*
X85500Y-54650D02*
X85500Y-57000D01*
X85750Y-54400D02*
X85500Y-54650D01*
X79750Y-56000D02*
X81000Y-56000D01*
X79750Y-45000D02*
X79750Y-44000D01*
X79750Y-44000D02*
X80000Y-43750D01*
M02*
