G04 (created by PCBNEW (2013-07-07 BZR 4022)-stable) date 12/11/2014 2:45:24 AM*
%MOIN*%
G04 Gerber Fmt 3.4, Leading zero omitted, Abs format*
%FSLAX34Y34*%
G01*
G70*
G90*
G04 APERTURE LIST*
%ADD10C,0.00590551*%
%ADD11C,0.055*%
%ADD12R,0.06X0.06*%
%ADD13C,0.06*%
%ADD14R,0.055X0.055*%
%ADD15C,0.02*%
%ADD16C,0.01*%
G04 APERTURE END LIST*
G54D10*
G54D11*
X78750Y-55500D03*
X75750Y-55500D03*
X82500Y-51250D03*
X82500Y-54250D03*
X78250Y-47500D03*
X81250Y-47500D03*
X74500Y-51750D03*
X74500Y-48750D03*
X83500Y-59000D03*
X86500Y-59000D03*
X76000Y-43750D03*
X79000Y-43750D03*
G54D12*
X84000Y-57500D03*
G54D13*
X84000Y-56500D03*
X85000Y-57500D03*
X85000Y-56500D03*
X86000Y-57500D03*
X86000Y-56500D03*
G54D12*
X82500Y-49000D03*
G54D13*
X82500Y-50000D03*
G54D12*
X76000Y-47500D03*
G54D13*
X77000Y-47500D03*
G54D12*
X74500Y-54000D03*
G54D13*
X74500Y-53000D03*
G54D12*
X81000Y-55500D03*
G54D13*
X80000Y-55500D03*
G54D12*
X85000Y-55000D03*
X86000Y-55000D03*
X84000Y-55000D03*
G54D14*
X78750Y-46000D03*
G54D11*
X78750Y-45000D03*
G54D14*
X76500Y-46000D03*
G54D11*
X76500Y-45000D03*
G54D14*
X71500Y-46000D03*
G54D11*
X71500Y-45000D03*
G54D14*
X81000Y-46000D03*
G54D11*
X81000Y-45000D03*
G54D14*
X86000Y-46850D03*
G54D11*
X86000Y-45850D03*
X86000Y-44850D03*
X86000Y-43850D03*
X83000Y-43850D03*
X83000Y-44850D03*
X83000Y-45850D03*
X83000Y-46850D03*
G54D15*
X84750Y-54400D03*
G54D16*
X82500Y-51250D02*
X82500Y-50000D01*
X78250Y-47500D02*
X77000Y-47500D01*
X74500Y-51750D02*
X74500Y-53000D01*
X86500Y-59000D02*
X86500Y-58000D01*
X86500Y-58000D02*
X86000Y-57500D01*
X86000Y-44850D02*
X86100Y-44850D01*
X86700Y-50750D02*
X86000Y-51450D01*
X86700Y-45450D02*
X86700Y-50750D01*
X86100Y-44850D02*
X86700Y-45450D01*
X86000Y-51450D02*
X82450Y-55000D01*
X82450Y-55000D02*
X76250Y-55000D01*
X76250Y-55000D02*
X75750Y-55500D01*
X86000Y-45850D02*
X86500Y-46350D01*
X86200Y-50550D02*
X82500Y-54250D01*
X86500Y-46350D02*
X86500Y-50250D01*
X86500Y-50250D02*
X86200Y-50550D01*
X81250Y-47500D02*
X83000Y-45750D01*
X83000Y-44750D02*
X83000Y-45050D01*
X74500Y-47400D02*
X74500Y-48750D01*
X75150Y-46750D02*
X74500Y-47400D01*
X81300Y-46750D02*
X75150Y-46750D01*
X83000Y-45050D02*
X81300Y-46750D01*
X84500Y-57000D02*
X84000Y-57500D01*
X84500Y-54650D02*
X84500Y-57000D01*
X84750Y-54400D02*
X84500Y-54650D01*
X80000Y-55500D02*
X78750Y-55500D01*
X78750Y-45000D02*
X78750Y-44000D01*
X78750Y-44000D02*
X79000Y-43750D01*
M02*
