G04 (created by PCBNEW (2013-07-07 BZR 4022)-stable) date 12/17/2014 5:13:16 PM*
%MOIN*%
G04 Gerber Fmt 3.4, Leading zero omitted, Abs format*
%FSLAX34Y34*%
G01*
G70*
G90*
G04 APERTURE LIST*
%ADD10C,0.00590551*%
%ADD11C,0.011811*%
G04 APERTURE END LIST*
G54D10*
G54D11*
X78079Y-51682D02*
X78051Y-51710D01*
X77967Y-51739D01*
X77911Y-51739D01*
X77826Y-51710D01*
X77770Y-51654D01*
X77742Y-51598D01*
X77714Y-51485D01*
X77714Y-51401D01*
X77742Y-51289D01*
X77770Y-51232D01*
X77826Y-51176D01*
X77911Y-51148D01*
X77967Y-51148D01*
X78051Y-51176D01*
X78079Y-51204D01*
X78332Y-51148D02*
X78332Y-51626D01*
X78361Y-51682D01*
X78389Y-51710D01*
X78445Y-51739D01*
X78557Y-51739D01*
X78614Y-51710D01*
X78642Y-51682D01*
X78670Y-51626D01*
X78670Y-51148D01*
X78867Y-51148D02*
X79204Y-51148D01*
X79035Y-51739D02*
X79035Y-51148D01*
X79964Y-51148D02*
X80076Y-51148D01*
X80132Y-51176D01*
X80188Y-51232D01*
X80217Y-51345D01*
X80217Y-51542D01*
X80188Y-51654D01*
X80132Y-51710D01*
X80076Y-51739D01*
X79964Y-51739D01*
X79907Y-51710D01*
X79851Y-51654D01*
X79823Y-51542D01*
X79823Y-51345D01*
X79851Y-51232D01*
X79907Y-51176D01*
X79964Y-51148D01*
X80470Y-51148D02*
X80470Y-51626D01*
X80498Y-51682D01*
X80526Y-51710D01*
X80582Y-51739D01*
X80695Y-51739D01*
X80751Y-51710D01*
X80779Y-51682D01*
X80807Y-51626D01*
X80807Y-51148D01*
X81004Y-51148D02*
X81341Y-51148D01*
X81173Y-51739D02*
X81173Y-51148D01*
M02*
