G04 (created by PCBNEW (2013-07-07 BZR 4022)-stable) date 12/16/2014 6:17:28 PM*
%MOIN*%
G04 Gerber Fmt 3.4, Leading zero omitted, Abs format*
%FSLAX34Y34*%
G01*
G70*
G90*
G04 APERTURE LIST*
%ADD10C,0.00590551*%
%ADD11R,0.0906X0.0197*%
%ADD12R,0.0984X0.0787*%
%ADD13R,0.144X0.08*%
%ADD14R,0.04X0.08*%
%ADD15C,0.055*%
%ADD16R,0.06X0.06*%
%ADD17C,0.06*%
%ADD18R,0.055X0.055*%
%ADD19C,0.02*%
%ADD20C,0.0216535*%
%ADD21C,0.01*%
G04 APERTURE END LIST*
G54D10*
G54D11*
X72908Y-50870D03*
X72908Y-51185D03*
X72908Y-51500D03*
X72908Y-51815D03*
X72908Y-52130D03*
G54D12*
X72869Y-49748D03*
X70704Y-49748D03*
X72869Y-53252D03*
X70704Y-53252D03*
G54D13*
X74000Y-44200D03*
G54D14*
X74000Y-46800D03*
X74900Y-46800D03*
X73100Y-46800D03*
G54D15*
X78750Y-56000D03*
X75750Y-56000D03*
X83000Y-51250D03*
X83000Y-54250D03*
X78250Y-47000D03*
X81250Y-47000D03*
X74000Y-51750D03*
X74000Y-48750D03*
X83500Y-59000D03*
X86500Y-59000D03*
X76000Y-43750D03*
X79000Y-43750D03*
G54D16*
X84000Y-57500D03*
G54D17*
X84000Y-56500D03*
X85000Y-57500D03*
X85000Y-56500D03*
X86000Y-57500D03*
X86000Y-56500D03*
G54D16*
X83000Y-49000D03*
G54D17*
X83000Y-50000D03*
G54D16*
X76000Y-47000D03*
G54D17*
X77000Y-47000D03*
G54D16*
X74000Y-54000D03*
G54D17*
X74000Y-53000D03*
G54D16*
X81000Y-56000D03*
G54D17*
X80000Y-56000D03*
G54D16*
X85000Y-55000D03*
X86000Y-55000D03*
X84000Y-55000D03*
G54D18*
X78750Y-46000D03*
G54D15*
X78750Y-45000D03*
G54D18*
X76500Y-46000D03*
G54D15*
X76500Y-45000D03*
G54D18*
X71500Y-46000D03*
G54D15*
X71500Y-45000D03*
G54D18*
X81000Y-46000D03*
G54D15*
X81000Y-45000D03*
G54D18*
X86000Y-46850D03*
G54D15*
X86000Y-45850D03*
X86000Y-44850D03*
X86000Y-43850D03*
X83000Y-43850D03*
X83000Y-44850D03*
X83000Y-45850D03*
X83000Y-46850D03*
G54D19*
X84750Y-54400D03*
G54D20*
X72858Y-52130D02*
X72858Y-53213D01*
X72858Y-53213D02*
X72819Y-53252D01*
X72908Y-50870D02*
X73130Y-50870D01*
X73100Y-48700D02*
X73100Y-46800D01*
X73600Y-49200D02*
X73100Y-48700D01*
X73600Y-50400D02*
X73600Y-49200D01*
X73130Y-50870D02*
X73600Y-50400D01*
X73100Y-46800D02*
X72300Y-46800D01*
X72300Y-46800D02*
X71500Y-46000D01*
G54D21*
X86000Y-46850D02*
X85950Y-46850D01*
X85250Y-47550D02*
X85250Y-47700D01*
X85950Y-46850D02*
X85250Y-47550D01*
X86000Y-57500D02*
X85500Y-57000D01*
X85500Y-57000D02*
X85500Y-54650D01*
X85500Y-54650D02*
X85250Y-54400D01*
X85250Y-54400D02*
X85250Y-47700D01*
X83000Y-43850D02*
X85000Y-45850D01*
X85000Y-45850D02*
X85000Y-55000D01*
X85000Y-56500D02*
X85000Y-55000D01*
X83000Y-45850D02*
X83900Y-45850D01*
X83900Y-45850D02*
X84500Y-46450D01*
X84500Y-57000D02*
X85000Y-57500D01*
X84500Y-46450D02*
X84500Y-57000D01*
X83000Y-44850D02*
X83604Y-44850D01*
X83604Y-44850D02*
X83754Y-45000D01*
X84750Y-45995D02*
X84750Y-54400D01*
X83754Y-45000D02*
X84750Y-45995D01*
G54D20*
X84000Y-55000D02*
X84000Y-47850D01*
X84000Y-47850D02*
X83000Y-46850D01*
X83000Y-46850D02*
X82950Y-46850D01*
X81000Y-46000D02*
X82100Y-46000D01*
X82950Y-46850D02*
X82100Y-46000D01*
X78750Y-46000D02*
X81000Y-46000D01*
X84000Y-56500D02*
X83450Y-56500D01*
X83150Y-58650D02*
X83500Y-59000D01*
X83150Y-56800D02*
X83150Y-58650D01*
X83450Y-56500D02*
X83150Y-56800D01*
X84000Y-55000D02*
X84000Y-56500D01*
X76500Y-46000D02*
X78750Y-46000D01*
X74900Y-46800D02*
X74900Y-46700D01*
X75600Y-46000D02*
X76500Y-46000D01*
X74900Y-46700D02*
X75600Y-46000D01*
G54D10*
G36*
X86730Y-59730D02*
X81550Y-59730D01*
X81550Y-56250D01*
X81550Y-56112D01*
X81487Y-56050D01*
X81050Y-56050D01*
X81050Y-56487D01*
X81112Y-56550D01*
X81349Y-56550D01*
X81441Y-56512D01*
X81511Y-56441D01*
X81549Y-56349D01*
X81550Y-56250D01*
X81550Y-59730D01*
X73950Y-59730D01*
X73950Y-54487D01*
X73950Y-54050D01*
X73512Y-54050D01*
X73450Y-54112D01*
X73449Y-54349D01*
X73487Y-54441D01*
X73558Y-54511D01*
X73650Y-54549D01*
X73749Y-54550D01*
X73887Y-54550D01*
X73950Y-54487D01*
X73950Y-59730D01*
X72858Y-59730D01*
X72819Y-59730D01*
X72819Y-53833D01*
X72819Y-53302D01*
X72819Y-53202D01*
X72819Y-52671D01*
X72756Y-52608D01*
X72327Y-52608D01*
X72235Y-52646D01*
X72165Y-52716D01*
X72127Y-52808D01*
X72126Y-52908D01*
X72127Y-53139D01*
X72189Y-53202D01*
X72819Y-53202D01*
X72819Y-53302D01*
X72189Y-53302D01*
X72127Y-53364D01*
X72126Y-53595D01*
X72127Y-53695D01*
X72165Y-53787D01*
X72235Y-53857D01*
X72327Y-53895D01*
X72756Y-53895D01*
X72819Y-53833D01*
X72819Y-59730D01*
X71446Y-59730D01*
X71446Y-53595D01*
X71446Y-52908D01*
X71446Y-50091D01*
X71446Y-49404D01*
X71445Y-49304D01*
X71407Y-49212D01*
X71337Y-49142D01*
X71245Y-49104D01*
X70816Y-49104D01*
X70754Y-49167D01*
X70754Y-49698D01*
X71383Y-49698D01*
X71446Y-49635D01*
X71446Y-49404D01*
X71446Y-50091D01*
X71446Y-49860D01*
X71383Y-49798D01*
X70754Y-49798D01*
X70754Y-50329D01*
X70816Y-50391D01*
X71245Y-50391D01*
X71337Y-50353D01*
X71407Y-50283D01*
X71445Y-50191D01*
X71446Y-50091D01*
X71446Y-52908D01*
X71445Y-52808D01*
X71407Y-52716D01*
X71337Y-52646D01*
X71245Y-52608D01*
X70816Y-52608D01*
X70754Y-52671D01*
X70754Y-53202D01*
X71383Y-53202D01*
X71446Y-53139D01*
X71446Y-52908D01*
X71446Y-53595D01*
X71446Y-53364D01*
X71383Y-53302D01*
X70754Y-53302D01*
X70754Y-53833D01*
X70816Y-53895D01*
X71245Y-53895D01*
X71337Y-53857D01*
X71407Y-53787D01*
X71445Y-53695D01*
X71446Y-53595D01*
X71446Y-59730D01*
X70269Y-59730D01*
X70269Y-53895D01*
X70591Y-53895D01*
X70654Y-53833D01*
X70654Y-53302D01*
X70646Y-53302D01*
X70646Y-53202D01*
X70654Y-53202D01*
X70654Y-52671D01*
X70591Y-52608D01*
X70269Y-52608D01*
X70269Y-51500D01*
X70269Y-50391D01*
X70591Y-50391D01*
X70654Y-50329D01*
X70654Y-49798D01*
X70646Y-49798D01*
X70646Y-49698D01*
X70654Y-49698D01*
X70654Y-49167D01*
X70591Y-49104D01*
X70269Y-49104D01*
X70269Y-43269D01*
X75774Y-43269D01*
X75727Y-43289D01*
X75702Y-43382D01*
X76000Y-43679D01*
X76297Y-43382D01*
X76272Y-43289D01*
X76216Y-43269D01*
X78787Y-43269D01*
X78703Y-43304D01*
X78555Y-43452D01*
X78475Y-43645D01*
X78474Y-43853D01*
X78554Y-44047D01*
X78702Y-44194D01*
X78895Y-44274D01*
X79103Y-44275D01*
X79297Y-44195D01*
X79444Y-44047D01*
X79524Y-43854D01*
X79525Y-43646D01*
X79445Y-43453D01*
X79297Y-43305D01*
X79212Y-43269D01*
X86730Y-43269D01*
X86730Y-58527D01*
X86604Y-58475D01*
X86554Y-58475D01*
X86554Y-56581D01*
X86550Y-56487D01*
X86550Y-55250D01*
X86550Y-54749D01*
X86549Y-54650D01*
X86529Y-54601D01*
X86529Y-43925D01*
X86518Y-43717D01*
X86460Y-43577D01*
X86367Y-43552D01*
X86297Y-43623D01*
X86297Y-43482D01*
X86272Y-43389D01*
X86075Y-43320D01*
X85867Y-43331D01*
X85727Y-43389D01*
X85702Y-43482D01*
X86000Y-43779D01*
X86297Y-43482D01*
X86297Y-43623D01*
X86070Y-43850D01*
X86367Y-44147D01*
X86460Y-44122D01*
X86529Y-43925D01*
X86529Y-54601D01*
X86511Y-54558D01*
X86441Y-54487D01*
X86349Y-54449D01*
X86112Y-54450D01*
X86050Y-54512D01*
X86050Y-54950D01*
X86487Y-54950D01*
X86550Y-54887D01*
X86550Y-54749D01*
X86550Y-55250D01*
X86550Y-55112D01*
X86487Y-55050D01*
X86050Y-55050D01*
X86050Y-55487D01*
X86112Y-55550D01*
X86349Y-55550D01*
X86441Y-55512D01*
X86511Y-55441D01*
X86549Y-55349D01*
X86550Y-55250D01*
X86550Y-56487D01*
X86543Y-56363D01*
X86481Y-56212D01*
X86385Y-56184D01*
X86070Y-56500D01*
X86385Y-56815D01*
X86481Y-56787D01*
X86554Y-56581D01*
X86554Y-58475D01*
X86550Y-58475D01*
X86550Y-57391D01*
X86466Y-57188D01*
X86311Y-57034D01*
X86236Y-57002D01*
X86287Y-56981D01*
X86315Y-56885D01*
X86000Y-56570D01*
X85994Y-56576D01*
X85923Y-56505D01*
X85929Y-56500D01*
X85923Y-56494D01*
X85994Y-56423D01*
X86000Y-56429D01*
X86315Y-56114D01*
X86287Y-56018D01*
X86081Y-55945D01*
X85863Y-55956D01*
X85800Y-55982D01*
X85800Y-55550D01*
X85887Y-55550D01*
X85950Y-55487D01*
X85950Y-55050D01*
X85942Y-55050D01*
X85942Y-54950D01*
X85950Y-54950D01*
X85950Y-54512D01*
X85887Y-54450D01*
X85720Y-54449D01*
X85712Y-54437D01*
X85712Y-54437D01*
X85550Y-54275D01*
X85550Y-47700D01*
X85550Y-47674D01*
X85849Y-47375D01*
X86324Y-47375D01*
X86416Y-47337D01*
X86486Y-47266D01*
X86524Y-47174D01*
X86525Y-47075D01*
X86525Y-46525D01*
X86487Y-46433D01*
X86416Y-46363D01*
X86324Y-46325D01*
X86225Y-46324D01*
X86225Y-46324D01*
X86297Y-46295D01*
X86444Y-46147D01*
X86524Y-45954D01*
X86525Y-45746D01*
X86445Y-45553D01*
X86297Y-45405D01*
X86164Y-45349D01*
X86297Y-45295D01*
X86444Y-45147D01*
X86524Y-44954D01*
X86525Y-44746D01*
X86445Y-44553D01*
X86297Y-44405D01*
X86171Y-44352D01*
X86272Y-44310D01*
X86297Y-44217D01*
X86000Y-43920D01*
X85929Y-43991D01*
X85929Y-43850D01*
X85632Y-43552D01*
X85539Y-43577D01*
X85470Y-43774D01*
X85481Y-43982D01*
X85539Y-44122D01*
X85632Y-44147D01*
X85929Y-43850D01*
X85929Y-43991D01*
X85702Y-44217D01*
X85727Y-44310D01*
X85837Y-44349D01*
X85703Y-44404D01*
X85555Y-44552D01*
X85475Y-44745D01*
X85474Y-44953D01*
X85554Y-45147D01*
X85702Y-45294D01*
X85835Y-45350D01*
X85703Y-45404D01*
X85555Y-45552D01*
X85475Y-45745D01*
X85474Y-45953D01*
X85554Y-46147D01*
X85702Y-46294D01*
X85774Y-46324D01*
X85675Y-46324D01*
X85583Y-46362D01*
X85513Y-46433D01*
X85475Y-46525D01*
X85474Y-46624D01*
X85474Y-46900D01*
X85300Y-47075D01*
X85300Y-45850D01*
X85299Y-45849D01*
X85277Y-45735D01*
X85212Y-45637D01*
X85212Y-45637D01*
X83524Y-43950D01*
X83525Y-43746D01*
X83445Y-43553D01*
X83297Y-43405D01*
X83104Y-43325D01*
X82896Y-43324D01*
X82703Y-43404D01*
X82555Y-43552D01*
X82475Y-43745D01*
X82474Y-43953D01*
X82554Y-44147D01*
X82702Y-44294D01*
X82835Y-44350D01*
X82703Y-44404D01*
X82555Y-44552D01*
X82475Y-44745D01*
X82474Y-44953D01*
X82554Y-45147D01*
X82702Y-45294D01*
X82835Y-45350D01*
X82703Y-45404D01*
X82555Y-45552D01*
X82475Y-45745D01*
X82474Y-45868D01*
X82353Y-45746D01*
X82237Y-45669D01*
X82100Y-45641D01*
X81529Y-45641D01*
X81529Y-45075D01*
X81518Y-44867D01*
X81460Y-44727D01*
X81367Y-44702D01*
X81297Y-44773D01*
X81297Y-44632D01*
X81272Y-44539D01*
X81075Y-44470D01*
X80867Y-44481D01*
X80727Y-44539D01*
X80702Y-44632D01*
X81000Y-44929D01*
X81297Y-44632D01*
X81297Y-44773D01*
X81070Y-45000D01*
X81367Y-45297D01*
X81460Y-45272D01*
X81529Y-45075D01*
X81529Y-45641D01*
X81511Y-45641D01*
X81487Y-45583D01*
X81416Y-45513D01*
X81324Y-45475D01*
X81237Y-45474D01*
X81272Y-45460D01*
X81297Y-45367D01*
X81000Y-45070D01*
X80929Y-45141D01*
X80929Y-45000D01*
X80632Y-44702D01*
X80539Y-44727D01*
X80470Y-44924D01*
X80481Y-45132D01*
X80539Y-45272D01*
X80632Y-45297D01*
X80929Y-45000D01*
X80929Y-45141D01*
X80702Y-45367D01*
X80727Y-45460D01*
X80768Y-45474D01*
X80675Y-45474D01*
X80583Y-45512D01*
X80513Y-45583D01*
X80488Y-45641D01*
X79261Y-45641D01*
X79237Y-45583D01*
X79166Y-45513D01*
X79074Y-45475D01*
X78975Y-45474D01*
X78975Y-45474D01*
X79047Y-45445D01*
X79194Y-45297D01*
X79274Y-45104D01*
X79275Y-44896D01*
X79195Y-44703D01*
X79047Y-44555D01*
X78854Y-44475D01*
X78646Y-44474D01*
X78453Y-44554D01*
X78305Y-44702D01*
X78225Y-44895D01*
X78224Y-45103D01*
X78304Y-45297D01*
X78452Y-45444D01*
X78524Y-45474D01*
X78425Y-45474D01*
X78333Y-45512D01*
X78263Y-45583D01*
X78238Y-45641D01*
X77029Y-45641D01*
X77029Y-45075D01*
X77018Y-44867D01*
X76960Y-44727D01*
X76867Y-44702D01*
X76797Y-44773D01*
X76797Y-44632D01*
X76772Y-44539D01*
X76575Y-44470D01*
X76529Y-44472D01*
X76529Y-43825D01*
X76518Y-43617D01*
X76460Y-43477D01*
X76367Y-43452D01*
X76070Y-43750D01*
X76367Y-44047D01*
X76460Y-44022D01*
X76529Y-43825D01*
X76529Y-44472D01*
X76367Y-44481D01*
X76297Y-44510D01*
X76297Y-44117D01*
X76000Y-43820D01*
X75929Y-43891D01*
X75929Y-43750D01*
X75632Y-43452D01*
X75539Y-43477D01*
X75470Y-43674D01*
X75481Y-43882D01*
X75539Y-44022D01*
X75632Y-44047D01*
X75929Y-43750D01*
X75929Y-43891D01*
X75702Y-44117D01*
X75727Y-44210D01*
X75924Y-44279D01*
X76132Y-44268D01*
X76272Y-44210D01*
X76297Y-44117D01*
X76297Y-44510D01*
X76227Y-44539D01*
X76202Y-44632D01*
X76500Y-44929D01*
X76797Y-44632D01*
X76797Y-44773D01*
X76570Y-45000D01*
X76867Y-45297D01*
X76960Y-45272D01*
X77029Y-45075D01*
X77029Y-45641D01*
X77011Y-45641D01*
X76987Y-45583D01*
X76916Y-45513D01*
X76824Y-45475D01*
X76737Y-45474D01*
X76772Y-45460D01*
X76797Y-45367D01*
X76500Y-45070D01*
X76429Y-45141D01*
X76429Y-45000D01*
X76132Y-44702D01*
X76039Y-44727D01*
X75970Y-44924D01*
X75981Y-45132D01*
X76039Y-45272D01*
X76132Y-45297D01*
X76429Y-45000D01*
X76429Y-45141D01*
X76202Y-45367D01*
X76227Y-45460D01*
X76268Y-45474D01*
X76175Y-45474D01*
X76083Y-45512D01*
X76013Y-45583D01*
X75988Y-45641D01*
X75600Y-45641D01*
X75462Y-45669D01*
X75346Y-45746D01*
X74970Y-46123D01*
X74970Y-44550D01*
X74970Y-43849D01*
X74969Y-43750D01*
X74931Y-43658D01*
X74861Y-43587D01*
X74769Y-43549D01*
X74112Y-43550D01*
X74050Y-43612D01*
X74050Y-44150D01*
X74907Y-44150D01*
X74970Y-44087D01*
X74970Y-43849D01*
X74970Y-44550D01*
X74970Y-44312D01*
X74907Y-44250D01*
X74050Y-44250D01*
X74050Y-44787D01*
X74112Y-44850D01*
X74769Y-44850D01*
X74861Y-44812D01*
X74931Y-44741D01*
X74969Y-44649D01*
X74970Y-44550D01*
X74970Y-46123D01*
X74943Y-46149D01*
X74650Y-46149D01*
X74558Y-46187D01*
X74488Y-46258D01*
X74450Y-46350D01*
X74450Y-46400D01*
X74449Y-46350D01*
X74411Y-46258D01*
X74341Y-46187D01*
X74249Y-46149D01*
X74112Y-46150D01*
X74050Y-46212D01*
X74050Y-46750D01*
X74057Y-46750D01*
X74057Y-46850D01*
X74050Y-46850D01*
X74050Y-47387D01*
X74112Y-47450D01*
X74249Y-47450D01*
X74341Y-47412D01*
X74411Y-47341D01*
X74449Y-47249D01*
X74449Y-47249D01*
X74449Y-47249D01*
X74487Y-47341D01*
X74558Y-47411D01*
X74650Y-47449D01*
X74749Y-47450D01*
X75149Y-47450D01*
X75241Y-47412D01*
X75311Y-47341D01*
X75349Y-47249D01*
X75350Y-47150D01*
X75350Y-46756D01*
X75450Y-46656D01*
X75449Y-46749D01*
X75450Y-46887D01*
X75512Y-46950D01*
X75950Y-46950D01*
X75950Y-46512D01*
X75887Y-46450D01*
X75656Y-46449D01*
X75748Y-46358D01*
X75988Y-46358D01*
X76012Y-46416D01*
X76079Y-46483D01*
X76050Y-46512D01*
X76050Y-46950D01*
X76057Y-46950D01*
X76057Y-47050D01*
X76050Y-47050D01*
X76050Y-47057D01*
X75950Y-47057D01*
X75950Y-47050D01*
X75512Y-47050D01*
X75450Y-47112D01*
X75449Y-47250D01*
X75450Y-47349D01*
X75488Y-47441D01*
X75526Y-47480D01*
X74750Y-47480D01*
X74646Y-47500D01*
X74559Y-47559D01*
X74500Y-47646D01*
X74480Y-47750D01*
X74480Y-48537D01*
X74445Y-48453D01*
X74297Y-48305D01*
X74104Y-48225D01*
X73896Y-48224D01*
X73703Y-48304D01*
X73555Y-48452D01*
X73497Y-48590D01*
X73458Y-48551D01*
X73458Y-47395D01*
X73511Y-47341D01*
X73549Y-47249D01*
X73550Y-47199D01*
X73550Y-47249D01*
X73588Y-47341D01*
X73658Y-47412D01*
X73750Y-47450D01*
X73887Y-47450D01*
X73950Y-47387D01*
X73950Y-46850D01*
X73942Y-46850D01*
X73942Y-46750D01*
X73950Y-46750D01*
X73950Y-46212D01*
X73950Y-44787D01*
X73950Y-44250D01*
X73950Y-44150D01*
X73950Y-43612D01*
X73887Y-43550D01*
X73230Y-43549D01*
X73138Y-43587D01*
X73068Y-43658D01*
X73030Y-43750D01*
X73029Y-43849D01*
X73030Y-44087D01*
X73092Y-44150D01*
X73950Y-44150D01*
X73950Y-44250D01*
X73092Y-44250D01*
X73030Y-44312D01*
X73029Y-44550D01*
X73030Y-44649D01*
X73068Y-44741D01*
X73138Y-44812D01*
X73230Y-44850D01*
X73887Y-44850D01*
X73950Y-44787D01*
X73950Y-46212D01*
X73887Y-46150D01*
X73750Y-46149D01*
X73658Y-46187D01*
X73588Y-46258D01*
X73550Y-46350D01*
X73550Y-46350D01*
X73512Y-46258D01*
X73441Y-46188D01*
X73349Y-46150D01*
X73250Y-46149D01*
X72850Y-46149D01*
X72758Y-46187D01*
X72688Y-46258D01*
X72650Y-46350D01*
X72649Y-46441D01*
X72448Y-46441D01*
X72029Y-46023D01*
X72029Y-45075D01*
X72018Y-44867D01*
X71960Y-44727D01*
X71867Y-44702D01*
X71797Y-44773D01*
X71797Y-44632D01*
X71772Y-44539D01*
X71575Y-44470D01*
X71367Y-44481D01*
X71227Y-44539D01*
X71202Y-44632D01*
X71500Y-44929D01*
X71797Y-44632D01*
X71797Y-44773D01*
X71570Y-45000D01*
X71867Y-45297D01*
X71960Y-45272D01*
X72029Y-45075D01*
X72029Y-46023D01*
X72025Y-46018D01*
X72025Y-45675D01*
X71987Y-45583D01*
X71916Y-45513D01*
X71824Y-45475D01*
X71737Y-45474D01*
X71772Y-45460D01*
X71797Y-45367D01*
X71500Y-45070D01*
X71429Y-45141D01*
X71429Y-45000D01*
X71132Y-44702D01*
X71039Y-44727D01*
X70970Y-44924D01*
X70981Y-45132D01*
X71039Y-45272D01*
X71132Y-45297D01*
X71429Y-45000D01*
X71429Y-45141D01*
X71202Y-45367D01*
X71227Y-45460D01*
X71268Y-45474D01*
X71175Y-45474D01*
X71083Y-45512D01*
X71013Y-45583D01*
X70975Y-45675D01*
X70974Y-45774D01*
X70974Y-46324D01*
X71012Y-46416D01*
X71083Y-46486D01*
X71175Y-46524D01*
X71274Y-46525D01*
X71518Y-46525D01*
X72046Y-47053D01*
X72046Y-47053D01*
X72162Y-47130D01*
X72299Y-47158D01*
X72300Y-47158D01*
X72649Y-47158D01*
X72649Y-47249D01*
X72687Y-47341D01*
X72741Y-47395D01*
X72741Y-48700D01*
X72769Y-48837D01*
X72846Y-48953D01*
X72997Y-49104D01*
X72981Y-49104D01*
X72919Y-49167D01*
X72919Y-49698D01*
X72926Y-49698D01*
X72926Y-49798D01*
X72919Y-49798D01*
X72919Y-50329D01*
X72981Y-50391D01*
X73101Y-50391D01*
X72981Y-50511D01*
X72908Y-50511D01*
X72859Y-50521D01*
X72819Y-50521D01*
X72819Y-50329D01*
X72819Y-49798D01*
X72819Y-49698D01*
X72819Y-49167D01*
X72756Y-49104D01*
X72327Y-49104D01*
X72235Y-49142D01*
X72165Y-49212D01*
X72127Y-49304D01*
X72126Y-49404D01*
X72127Y-49635D01*
X72189Y-49698D01*
X72819Y-49698D01*
X72819Y-49798D01*
X72189Y-49798D01*
X72127Y-49860D01*
X72126Y-50091D01*
X72127Y-50191D01*
X72165Y-50283D01*
X72235Y-50353D01*
X72327Y-50391D01*
X72756Y-50391D01*
X72819Y-50329D01*
X72819Y-50521D01*
X72405Y-50521D01*
X72313Y-50559D01*
X72312Y-50560D01*
X72312Y-50549D01*
X72247Y-50392D01*
X72127Y-50272D01*
X71970Y-50207D01*
X71800Y-50206D01*
X71643Y-50271D01*
X71523Y-50391D01*
X71458Y-50548D01*
X71457Y-50718D01*
X71522Y-50875D01*
X71642Y-50995D01*
X71799Y-51060D01*
X71969Y-51061D01*
X72126Y-50996D01*
X72204Y-50917D01*
X72204Y-51018D01*
X72208Y-51027D01*
X72205Y-51036D01*
X72204Y-51136D01*
X72204Y-51333D01*
X72208Y-51342D01*
X72205Y-51351D01*
X72204Y-51451D01*
X72204Y-51648D01*
X72208Y-51657D01*
X72205Y-51666D01*
X72204Y-51766D01*
X72204Y-51963D01*
X72208Y-51972D01*
X72205Y-51981D01*
X72205Y-52018D01*
X72266Y-52079D01*
X72205Y-52079D01*
X72205Y-52082D01*
X72127Y-52004D01*
X71970Y-51939D01*
X71800Y-51938D01*
X71643Y-52003D01*
X71523Y-52123D01*
X71458Y-52280D01*
X71457Y-52450D01*
X71522Y-52607D01*
X71642Y-52727D01*
X71799Y-52792D01*
X71969Y-52793D01*
X72126Y-52728D01*
X72246Y-52608D01*
X72311Y-52451D01*
X72311Y-52438D01*
X72313Y-52440D01*
X72405Y-52478D01*
X72795Y-52478D01*
X72858Y-52416D01*
X72858Y-52179D01*
X72850Y-52179D01*
X72850Y-52163D01*
X73410Y-52163D01*
X73502Y-52125D01*
X73547Y-52080D01*
X73548Y-52080D01*
X73568Y-52060D01*
X73702Y-52194D01*
X73895Y-52274D01*
X74103Y-52275D01*
X74297Y-52195D01*
X74444Y-52047D01*
X74480Y-51962D01*
X74480Y-52722D01*
X74466Y-52688D01*
X74311Y-52534D01*
X74109Y-52450D01*
X73891Y-52449D01*
X73688Y-52533D01*
X73610Y-52611D01*
X73610Y-52241D01*
X73548Y-52179D01*
X72958Y-52179D01*
X72958Y-52416D01*
X73020Y-52478D01*
X73410Y-52478D01*
X73502Y-52440D01*
X73572Y-52370D01*
X73610Y-52278D01*
X73610Y-52241D01*
X73610Y-52611D01*
X73539Y-52683D01*
X73502Y-52646D01*
X73410Y-52608D01*
X72981Y-52608D01*
X72919Y-52671D01*
X72919Y-53202D01*
X72926Y-53202D01*
X72926Y-53302D01*
X72919Y-53302D01*
X72919Y-53833D01*
X72981Y-53895D01*
X73410Y-53895D01*
X73449Y-53879D01*
X73450Y-53887D01*
X73512Y-53950D01*
X73950Y-53950D01*
X73950Y-53942D01*
X74050Y-53942D01*
X74050Y-53950D01*
X74057Y-53950D01*
X74057Y-54050D01*
X74050Y-54050D01*
X74050Y-54487D01*
X74112Y-54550D01*
X74250Y-54550D01*
X74349Y-54549D01*
X74441Y-54511D01*
X74480Y-54473D01*
X74480Y-55250D01*
X74500Y-55353D01*
X74559Y-55440D01*
X74646Y-55499D01*
X74750Y-55519D01*
X75537Y-55519D01*
X75453Y-55554D01*
X75305Y-55702D01*
X75225Y-55895D01*
X75224Y-56103D01*
X75304Y-56297D01*
X75452Y-56444D01*
X75645Y-56524D01*
X75853Y-56525D01*
X76047Y-56445D01*
X76194Y-56297D01*
X76274Y-56104D01*
X76275Y-55896D01*
X76195Y-55703D01*
X76047Y-55555D01*
X75962Y-55519D01*
X76250Y-55519D01*
X78537Y-55519D01*
X78453Y-55554D01*
X78305Y-55702D01*
X78225Y-55895D01*
X78224Y-56103D01*
X78304Y-56297D01*
X78452Y-56444D01*
X78645Y-56524D01*
X78853Y-56525D01*
X79047Y-56445D01*
X79194Y-56297D01*
X79274Y-56104D01*
X79275Y-55896D01*
X79195Y-55703D01*
X79047Y-55555D01*
X78962Y-55519D01*
X79722Y-55519D01*
X79688Y-55533D01*
X79534Y-55688D01*
X79450Y-55890D01*
X79449Y-56108D01*
X79533Y-56311D01*
X79688Y-56465D01*
X79890Y-56549D01*
X80108Y-56550D01*
X80311Y-56466D01*
X80450Y-56327D01*
X80450Y-56349D01*
X80488Y-56441D01*
X80558Y-56512D01*
X80650Y-56550D01*
X80887Y-56550D01*
X80950Y-56487D01*
X80950Y-56050D01*
X80942Y-56050D01*
X80942Y-55950D01*
X80950Y-55950D01*
X80950Y-55942D01*
X81050Y-55942D01*
X81050Y-55950D01*
X81487Y-55950D01*
X81550Y-55887D01*
X81550Y-55749D01*
X81549Y-55650D01*
X81511Y-55558D01*
X81473Y-55519D01*
X82250Y-55519D01*
X82353Y-55499D01*
X82440Y-55440D01*
X82499Y-55353D01*
X82519Y-55250D01*
X82519Y-54462D01*
X82554Y-54547D01*
X82702Y-54694D01*
X82895Y-54774D01*
X83103Y-54775D01*
X83297Y-54695D01*
X83444Y-54547D01*
X83524Y-54354D01*
X83525Y-54146D01*
X83445Y-53953D01*
X83297Y-53805D01*
X83104Y-53725D01*
X82896Y-53724D01*
X82703Y-53804D01*
X82555Y-53952D01*
X82519Y-54037D01*
X82519Y-51462D01*
X82554Y-51547D01*
X82702Y-51694D01*
X82895Y-51774D01*
X83103Y-51775D01*
X83297Y-51695D01*
X83444Y-51547D01*
X83524Y-51354D01*
X83525Y-51146D01*
X83445Y-50953D01*
X83297Y-50805D01*
X83104Y-50725D01*
X82896Y-50724D01*
X82703Y-50804D01*
X82555Y-50952D01*
X82519Y-51037D01*
X82519Y-50277D01*
X82533Y-50311D01*
X82688Y-50465D01*
X82890Y-50549D01*
X83108Y-50550D01*
X83311Y-50466D01*
X83465Y-50311D01*
X83549Y-50109D01*
X83550Y-49891D01*
X83466Y-49688D01*
X83327Y-49549D01*
X83349Y-49549D01*
X83441Y-49511D01*
X83512Y-49441D01*
X83550Y-49349D01*
X83550Y-48650D01*
X83512Y-48558D01*
X83441Y-48488D01*
X83349Y-48450D01*
X83250Y-48449D01*
X83112Y-48450D01*
X83050Y-48512D01*
X83050Y-48950D01*
X83487Y-48950D01*
X83550Y-48887D01*
X83550Y-48650D01*
X83550Y-49349D01*
X83550Y-49112D01*
X83487Y-49050D01*
X83050Y-49050D01*
X83050Y-49057D01*
X82950Y-49057D01*
X82950Y-49050D01*
X82942Y-49050D01*
X82942Y-48950D01*
X82950Y-48950D01*
X82950Y-48512D01*
X82887Y-48450D01*
X82749Y-48449D01*
X82650Y-48450D01*
X82558Y-48488D01*
X82519Y-48526D01*
X82519Y-47750D01*
X82499Y-47646D01*
X82440Y-47559D01*
X82353Y-47500D01*
X82250Y-47480D01*
X81462Y-47480D01*
X81547Y-47445D01*
X81694Y-47297D01*
X81774Y-47104D01*
X81775Y-46896D01*
X81695Y-46703D01*
X81547Y-46555D01*
X81400Y-46493D01*
X81416Y-46487D01*
X81486Y-46416D01*
X81511Y-46358D01*
X81951Y-46358D01*
X82474Y-46881D01*
X82474Y-46953D01*
X82554Y-47147D01*
X82702Y-47294D01*
X82895Y-47374D01*
X83018Y-47375D01*
X83641Y-47998D01*
X83641Y-54453D01*
X83558Y-54487D01*
X83488Y-54558D01*
X83450Y-54650D01*
X83449Y-54749D01*
X83449Y-55349D01*
X83487Y-55441D01*
X83558Y-55511D01*
X83641Y-55546D01*
X83641Y-56080D01*
X83580Y-56141D01*
X83450Y-56141D01*
X83312Y-56169D01*
X83196Y-56246D01*
X82896Y-56546D01*
X82819Y-56662D01*
X82791Y-56800D01*
X82791Y-58650D01*
X82819Y-58787D01*
X82896Y-58903D01*
X82975Y-58981D01*
X82974Y-59103D01*
X83054Y-59297D01*
X83202Y-59444D01*
X83395Y-59524D01*
X83603Y-59525D01*
X83797Y-59445D01*
X83944Y-59297D01*
X84024Y-59104D01*
X84025Y-58896D01*
X83945Y-58703D01*
X83797Y-58555D01*
X83604Y-58475D01*
X83508Y-58475D01*
X83508Y-57961D01*
X83558Y-58011D01*
X83650Y-58049D01*
X83749Y-58050D01*
X84349Y-58050D01*
X84441Y-58012D01*
X84511Y-57941D01*
X84549Y-57849D01*
X84549Y-57827D01*
X84688Y-57965D01*
X84890Y-58049D01*
X85108Y-58050D01*
X85311Y-57966D01*
X85465Y-57811D01*
X85499Y-57730D01*
X85533Y-57811D01*
X85688Y-57965D01*
X85890Y-58049D01*
X86108Y-58050D01*
X86311Y-57966D01*
X86465Y-57811D01*
X86549Y-57609D01*
X86550Y-57391D01*
X86550Y-58475D01*
X86396Y-58474D01*
X86203Y-58554D01*
X86055Y-58702D01*
X85975Y-58895D01*
X85974Y-59103D01*
X86054Y-59297D01*
X86202Y-59444D01*
X86395Y-59524D01*
X86603Y-59525D01*
X86730Y-59472D01*
X86730Y-59730D01*
X86730Y-59730D01*
G37*
G54D21*
X86730Y-59730D02*
X81550Y-59730D01*
X81550Y-56250D01*
X81550Y-56112D01*
X81487Y-56050D01*
X81050Y-56050D01*
X81050Y-56487D01*
X81112Y-56550D01*
X81349Y-56550D01*
X81441Y-56512D01*
X81511Y-56441D01*
X81549Y-56349D01*
X81550Y-56250D01*
X81550Y-59730D01*
X73950Y-59730D01*
X73950Y-54487D01*
X73950Y-54050D01*
X73512Y-54050D01*
X73450Y-54112D01*
X73449Y-54349D01*
X73487Y-54441D01*
X73558Y-54511D01*
X73650Y-54549D01*
X73749Y-54550D01*
X73887Y-54550D01*
X73950Y-54487D01*
X73950Y-59730D01*
X72858Y-59730D01*
X72819Y-59730D01*
X72819Y-53833D01*
X72819Y-53302D01*
X72819Y-53202D01*
X72819Y-52671D01*
X72756Y-52608D01*
X72327Y-52608D01*
X72235Y-52646D01*
X72165Y-52716D01*
X72127Y-52808D01*
X72126Y-52908D01*
X72127Y-53139D01*
X72189Y-53202D01*
X72819Y-53202D01*
X72819Y-53302D01*
X72189Y-53302D01*
X72127Y-53364D01*
X72126Y-53595D01*
X72127Y-53695D01*
X72165Y-53787D01*
X72235Y-53857D01*
X72327Y-53895D01*
X72756Y-53895D01*
X72819Y-53833D01*
X72819Y-59730D01*
X71446Y-59730D01*
X71446Y-53595D01*
X71446Y-52908D01*
X71446Y-50091D01*
X71446Y-49404D01*
X71445Y-49304D01*
X71407Y-49212D01*
X71337Y-49142D01*
X71245Y-49104D01*
X70816Y-49104D01*
X70754Y-49167D01*
X70754Y-49698D01*
X71383Y-49698D01*
X71446Y-49635D01*
X71446Y-49404D01*
X71446Y-50091D01*
X71446Y-49860D01*
X71383Y-49798D01*
X70754Y-49798D01*
X70754Y-50329D01*
X70816Y-50391D01*
X71245Y-50391D01*
X71337Y-50353D01*
X71407Y-50283D01*
X71445Y-50191D01*
X71446Y-50091D01*
X71446Y-52908D01*
X71445Y-52808D01*
X71407Y-52716D01*
X71337Y-52646D01*
X71245Y-52608D01*
X70816Y-52608D01*
X70754Y-52671D01*
X70754Y-53202D01*
X71383Y-53202D01*
X71446Y-53139D01*
X71446Y-52908D01*
X71446Y-53595D01*
X71446Y-53364D01*
X71383Y-53302D01*
X70754Y-53302D01*
X70754Y-53833D01*
X70816Y-53895D01*
X71245Y-53895D01*
X71337Y-53857D01*
X71407Y-53787D01*
X71445Y-53695D01*
X71446Y-53595D01*
X71446Y-59730D01*
X70269Y-59730D01*
X70269Y-53895D01*
X70591Y-53895D01*
X70654Y-53833D01*
X70654Y-53302D01*
X70646Y-53302D01*
X70646Y-53202D01*
X70654Y-53202D01*
X70654Y-52671D01*
X70591Y-52608D01*
X70269Y-52608D01*
X70269Y-51500D01*
X70269Y-50391D01*
X70591Y-50391D01*
X70654Y-50329D01*
X70654Y-49798D01*
X70646Y-49798D01*
X70646Y-49698D01*
X70654Y-49698D01*
X70654Y-49167D01*
X70591Y-49104D01*
X70269Y-49104D01*
X70269Y-43269D01*
X75774Y-43269D01*
X75727Y-43289D01*
X75702Y-43382D01*
X76000Y-43679D01*
X76297Y-43382D01*
X76272Y-43289D01*
X76216Y-43269D01*
X78787Y-43269D01*
X78703Y-43304D01*
X78555Y-43452D01*
X78475Y-43645D01*
X78474Y-43853D01*
X78554Y-44047D01*
X78702Y-44194D01*
X78895Y-44274D01*
X79103Y-44275D01*
X79297Y-44195D01*
X79444Y-44047D01*
X79524Y-43854D01*
X79525Y-43646D01*
X79445Y-43453D01*
X79297Y-43305D01*
X79212Y-43269D01*
X86730Y-43269D01*
X86730Y-58527D01*
X86604Y-58475D01*
X86554Y-58475D01*
X86554Y-56581D01*
X86550Y-56487D01*
X86550Y-55250D01*
X86550Y-54749D01*
X86549Y-54650D01*
X86529Y-54601D01*
X86529Y-43925D01*
X86518Y-43717D01*
X86460Y-43577D01*
X86367Y-43552D01*
X86297Y-43623D01*
X86297Y-43482D01*
X86272Y-43389D01*
X86075Y-43320D01*
X85867Y-43331D01*
X85727Y-43389D01*
X85702Y-43482D01*
X86000Y-43779D01*
X86297Y-43482D01*
X86297Y-43623D01*
X86070Y-43850D01*
X86367Y-44147D01*
X86460Y-44122D01*
X86529Y-43925D01*
X86529Y-54601D01*
X86511Y-54558D01*
X86441Y-54487D01*
X86349Y-54449D01*
X86112Y-54450D01*
X86050Y-54512D01*
X86050Y-54950D01*
X86487Y-54950D01*
X86550Y-54887D01*
X86550Y-54749D01*
X86550Y-55250D01*
X86550Y-55112D01*
X86487Y-55050D01*
X86050Y-55050D01*
X86050Y-55487D01*
X86112Y-55550D01*
X86349Y-55550D01*
X86441Y-55512D01*
X86511Y-55441D01*
X86549Y-55349D01*
X86550Y-55250D01*
X86550Y-56487D01*
X86543Y-56363D01*
X86481Y-56212D01*
X86385Y-56184D01*
X86070Y-56500D01*
X86385Y-56815D01*
X86481Y-56787D01*
X86554Y-56581D01*
X86554Y-58475D01*
X86550Y-58475D01*
X86550Y-57391D01*
X86466Y-57188D01*
X86311Y-57034D01*
X86236Y-57002D01*
X86287Y-56981D01*
X86315Y-56885D01*
X86000Y-56570D01*
X85994Y-56576D01*
X85923Y-56505D01*
X85929Y-56500D01*
X85923Y-56494D01*
X85994Y-56423D01*
X86000Y-56429D01*
X86315Y-56114D01*
X86287Y-56018D01*
X86081Y-55945D01*
X85863Y-55956D01*
X85800Y-55982D01*
X85800Y-55550D01*
X85887Y-55550D01*
X85950Y-55487D01*
X85950Y-55050D01*
X85942Y-55050D01*
X85942Y-54950D01*
X85950Y-54950D01*
X85950Y-54512D01*
X85887Y-54450D01*
X85720Y-54449D01*
X85712Y-54437D01*
X85712Y-54437D01*
X85550Y-54275D01*
X85550Y-47700D01*
X85550Y-47674D01*
X85849Y-47375D01*
X86324Y-47375D01*
X86416Y-47337D01*
X86486Y-47266D01*
X86524Y-47174D01*
X86525Y-47075D01*
X86525Y-46525D01*
X86487Y-46433D01*
X86416Y-46363D01*
X86324Y-46325D01*
X86225Y-46324D01*
X86225Y-46324D01*
X86297Y-46295D01*
X86444Y-46147D01*
X86524Y-45954D01*
X86525Y-45746D01*
X86445Y-45553D01*
X86297Y-45405D01*
X86164Y-45349D01*
X86297Y-45295D01*
X86444Y-45147D01*
X86524Y-44954D01*
X86525Y-44746D01*
X86445Y-44553D01*
X86297Y-44405D01*
X86171Y-44352D01*
X86272Y-44310D01*
X86297Y-44217D01*
X86000Y-43920D01*
X85929Y-43991D01*
X85929Y-43850D01*
X85632Y-43552D01*
X85539Y-43577D01*
X85470Y-43774D01*
X85481Y-43982D01*
X85539Y-44122D01*
X85632Y-44147D01*
X85929Y-43850D01*
X85929Y-43991D01*
X85702Y-44217D01*
X85727Y-44310D01*
X85837Y-44349D01*
X85703Y-44404D01*
X85555Y-44552D01*
X85475Y-44745D01*
X85474Y-44953D01*
X85554Y-45147D01*
X85702Y-45294D01*
X85835Y-45350D01*
X85703Y-45404D01*
X85555Y-45552D01*
X85475Y-45745D01*
X85474Y-45953D01*
X85554Y-46147D01*
X85702Y-46294D01*
X85774Y-46324D01*
X85675Y-46324D01*
X85583Y-46362D01*
X85513Y-46433D01*
X85475Y-46525D01*
X85474Y-46624D01*
X85474Y-46900D01*
X85300Y-47075D01*
X85300Y-45850D01*
X85299Y-45849D01*
X85277Y-45735D01*
X85212Y-45637D01*
X85212Y-45637D01*
X83524Y-43950D01*
X83525Y-43746D01*
X83445Y-43553D01*
X83297Y-43405D01*
X83104Y-43325D01*
X82896Y-43324D01*
X82703Y-43404D01*
X82555Y-43552D01*
X82475Y-43745D01*
X82474Y-43953D01*
X82554Y-44147D01*
X82702Y-44294D01*
X82835Y-44350D01*
X82703Y-44404D01*
X82555Y-44552D01*
X82475Y-44745D01*
X82474Y-44953D01*
X82554Y-45147D01*
X82702Y-45294D01*
X82835Y-45350D01*
X82703Y-45404D01*
X82555Y-45552D01*
X82475Y-45745D01*
X82474Y-45868D01*
X82353Y-45746D01*
X82237Y-45669D01*
X82100Y-45641D01*
X81529Y-45641D01*
X81529Y-45075D01*
X81518Y-44867D01*
X81460Y-44727D01*
X81367Y-44702D01*
X81297Y-44773D01*
X81297Y-44632D01*
X81272Y-44539D01*
X81075Y-44470D01*
X80867Y-44481D01*
X80727Y-44539D01*
X80702Y-44632D01*
X81000Y-44929D01*
X81297Y-44632D01*
X81297Y-44773D01*
X81070Y-45000D01*
X81367Y-45297D01*
X81460Y-45272D01*
X81529Y-45075D01*
X81529Y-45641D01*
X81511Y-45641D01*
X81487Y-45583D01*
X81416Y-45513D01*
X81324Y-45475D01*
X81237Y-45474D01*
X81272Y-45460D01*
X81297Y-45367D01*
X81000Y-45070D01*
X80929Y-45141D01*
X80929Y-45000D01*
X80632Y-44702D01*
X80539Y-44727D01*
X80470Y-44924D01*
X80481Y-45132D01*
X80539Y-45272D01*
X80632Y-45297D01*
X80929Y-45000D01*
X80929Y-45141D01*
X80702Y-45367D01*
X80727Y-45460D01*
X80768Y-45474D01*
X80675Y-45474D01*
X80583Y-45512D01*
X80513Y-45583D01*
X80488Y-45641D01*
X79261Y-45641D01*
X79237Y-45583D01*
X79166Y-45513D01*
X79074Y-45475D01*
X78975Y-45474D01*
X78975Y-45474D01*
X79047Y-45445D01*
X79194Y-45297D01*
X79274Y-45104D01*
X79275Y-44896D01*
X79195Y-44703D01*
X79047Y-44555D01*
X78854Y-44475D01*
X78646Y-44474D01*
X78453Y-44554D01*
X78305Y-44702D01*
X78225Y-44895D01*
X78224Y-45103D01*
X78304Y-45297D01*
X78452Y-45444D01*
X78524Y-45474D01*
X78425Y-45474D01*
X78333Y-45512D01*
X78263Y-45583D01*
X78238Y-45641D01*
X77029Y-45641D01*
X77029Y-45075D01*
X77018Y-44867D01*
X76960Y-44727D01*
X76867Y-44702D01*
X76797Y-44773D01*
X76797Y-44632D01*
X76772Y-44539D01*
X76575Y-44470D01*
X76529Y-44472D01*
X76529Y-43825D01*
X76518Y-43617D01*
X76460Y-43477D01*
X76367Y-43452D01*
X76070Y-43750D01*
X76367Y-44047D01*
X76460Y-44022D01*
X76529Y-43825D01*
X76529Y-44472D01*
X76367Y-44481D01*
X76297Y-44510D01*
X76297Y-44117D01*
X76000Y-43820D01*
X75929Y-43891D01*
X75929Y-43750D01*
X75632Y-43452D01*
X75539Y-43477D01*
X75470Y-43674D01*
X75481Y-43882D01*
X75539Y-44022D01*
X75632Y-44047D01*
X75929Y-43750D01*
X75929Y-43891D01*
X75702Y-44117D01*
X75727Y-44210D01*
X75924Y-44279D01*
X76132Y-44268D01*
X76272Y-44210D01*
X76297Y-44117D01*
X76297Y-44510D01*
X76227Y-44539D01*
X76202Y-44632D01*
X76500Y-44929D01*
X76797Y-44632D01*
X76797Y-44773D01*
X76570Y-45000D01*
X76867Y-45297D01*
X76960Y-45272D01*
X77029Y-45075D01*
X77029Y-45641D01*
X77011Y-45641D01*
X76987Y-45583D01*
X76916Y-45513D01*
X76824Y-45475D01*
X76737Y-45474D01*
X76772Y-45460D01*
X76797Y-45367D01*
X76500Y-45070D01*
X76429Y-45141D01*
X76429Y-45000D01*
X76132Y-44702D01*
X76039Y-44727D01*
X75970Y-44924D01*
X75981Y-45132D01*
X76039Y-45272D01*
X76132Y-45297D01*
X76429Y-45000D01*
X76429Y-45141D01*
X76202Y-45367D01*
X76227Y-45460D01*
X76268Y-45474D01*
X76175Y-45474D01*
X76083Y-45512D01*
X76013Y-45583D01*
X75988Y-45641D01*
X75600Y-45641D01*
X75462Y-45669D01*
X75346Y-45746D01*
X74970Y-46123D01*
X74970Y-44550D01*
X74970Y-43849D01*
X74969Y-43750D01*
X74931Y-43658D01*
X74861Y-43587D01*
X74769Y-43549D01*
X74112Y-43550D01*
X74050Y-43612D01*
X74050Y-44150D01*
X74907Y-44150D01*
X74970Y-44087D01*
X74970Y-43849D01*
X74970Y-44550D01*
X74970Y-44312D01*
X74907Y-44250D01*
X74050Y-44250D01*
X74050Y-44787D01*
X74112Y-44850D01*
X74769Y-44850D01*
X74861Y-44812D01*
X74931Y-44741D01*
X74969Y-44649D01*
X74970Y-44550D01*
X74970Y-46123D01*
X74943Y-46149D01*
X74650Y-46149D01*
X74558Y-46187D01*
X74488Y-46258D01*
X74450Y-46350D01*
X74450Y-46400D01*
X74449Y-46350D01*
X74411Y-46258D01*
X74341Y-46187D01*
X74249Y-46149D01*
X74112Y-46150D01*
X74050Y-46212D01*
X74050Y-46750D01*
X74057Y-46750D01*
X74057Y-46850D01*
X74050Y-46850D01*
X74050Y-47387D01*
X74112Y-47450D01*
X74249Y-47450D01*
X74341Y-47412D01*
X74411Y-47341D01*
X74449Y-47249D01*
X74449Y-47249D01*
X74449Y-47249D01*
X74487Y-47341D01*
X74558Y-47411D01*
X74650Y-47449D01*
X74749Y-47450D01*
X75149Y-47450D01*
X75241Y-47412D01*
X75311Y-47341D01*
X75349Y-47249D01*
X75350Y-47150D01*
X75350Y-46756D01*
X75450Y-46656D01*
X75449Y-46749D01*
X75450Y-46887D01*
X75512Y-46950D01*
X75950Y-46950D01*
X75950Y-46512D01*
X75887Y-46450D01*
X75656Y-46449D01*
X75748Y-46358D01*
X75988Y-46358D01*
X76012Y-46416D01*
X76079Y-46483D01*
X76050Y-46512D01*
X76050Y-46950D01*
X76057Y-46950D01*
X76057Y-47050D01*
X76050Y-47050D01*
X76050Y-47057D01*
X75950Y-47057D01*
X75950Y-47050D01*
X75512Y-47050D01*
X75450Y-47112D01*
X75449Y-47250D01*
X75450Y-47349D01*
X75488Y-47441D01*
X75526Y-47480D01*
X74750Y-47480D01*
X74646Y-47500D01*
X74559Y-47559D01*
X74500Y-47646D01*
X74480Y-47750D01*
X74480Y-48537D01*
X74445Y-48453D01*
X74297Y-48305D01*
X74104Y-48225D01*
X73896Y-48224D01*
X73703Y-48304D01*
X73555Y-48452D01*
X73497Y-48590D01*
X73458Y-48551D01*
X73458Y-47395D01*
X73511Y-47341D01*
X73549Y-47249D01*
X73550Y-47199D01*
X73550Y-47249D01*
X73588Y-47341D01*
X73658Y-47412D01*
X73750Y-47450D01*
X73887Y-47450D01*
X73950Y-47387D01*
X73950Y-46850D01*
X73942Y-46850D01*
X73942Y-46750D01*
X73950Y-46750D01*
X73950Y-46212D01*
X73950Y-44787D01*
X73950Y-44250D01*
X73950Y-44150D01*
X73950Y-43612D01*
X73887Y-43550D01*
X73230Y-43549D01*
X73138Y-43587D01*
X73068Y-43658D01*
X73030Y-43750D01*
X73029Y-43849D01*
X73030Y-44087D01*
X73092Y-44150D01*
X73950Y-44150D01*
X73950Y-44250D01*
X73092Y-44250D01*
X73030Y-44312D01*
X73029Y-44550D01*
X73030Y-44649D01*
X73068Y-44741D01*
X73138Y-44812D01*
X73230Y-44850D01*
X73887Y-44850D01*
X73950Y-44787D01*
X73950Y-46212D01*
X73887Y-46150D01*
X73750Y-46149D01*
X73658Y-46187D01*
X73588Y-46258D01*
X73550Y-46350D01*
X73550Y-46350D01*
X73512Y-46258D01*
X73441Y-46188D01*
X73349Y-46150D01*
X73250Y-46149D01*
X72850Y-46149D01*
X72758Y-46187D01*
X72688Y-46258D01*
X72650Y-46350D01*
X72649Y-46441D01*
X72448Y-46441D01*
X72029Y-46023D01*
X72029Y-45075D01*
X72018Y-44867D01*
X71960Y-44727D01*
X71867Y-44702D01*
X71797Y-44773D01*
X71797Y-44632D01*
X71772Y-44539D01*
X71575Y-44470D01*
X71367Y-44481D01*
X71227Y-44539D01*
X71202Y-44632D01*
X71500Y-44929D01*
X71797Y-44632D01*
X71797Y-44773D01*
X71570Y-45000D01*
X71867Y-45297D01*
X71960Y-45272D01*
X72029Y-45075D01*
X72029Y-46023D01*
X72025Y-46018D01*
X72025Y-45675D01*
X71987Y-45583D01*
X71916Y-45513D01*
X71824Y-45475D01*
X71737Y-45474D01*
X71772Y-45460D01*
X71797Y-45367D01*
X71500Y-45070D01*
X71429Y-45141D01*
X71429Y-45000D01*
X71132Y-44702D01*
X71039Y-44727D01*
X70970Y-44924D01*
X70981Y-45132D01*
X71039Y-45272D01*
X71132Y-45297D01*
X71429Y-45000D01*
X71429Y-45141D01*
X71202Y-45367D01*
X71227Y-45460D01*
X71268Y-45474D01*
X71175Y-45474D01*
X71083Y-45512D01*
X71013Y-45583D01*
X70975Y-45675D01*
X70974Y-45774D01*
X70974Y-46324D01*
X71012Y-46416D01*
X71083Y-46486D01*
X71175Y-46524D01*
X71274Y-46525D01*
X71518Y-46525D01*
X72046Y-47053D01*
X72046Y-47053D01*
X72162Y-47130D01*
X72299Y-47158D01*
X72300Y-47158D01*
X72649Y-47158D01*
X72649Y-47249D01*
X72687Y-47341D01*
X72741Y-47395D01*
X72741Y-48700D01*
X72769Y-48837D01*
X72846Y-48953D01*
X72997Y-49104D01*
X72981Y-49104D01*
X72919Y-49167D01*
X72919Y-49698D01*
X72926Y-49698D01*
X72926Y-49798D01*
X72919Y-49798D01*
X72919Y-50329D01*
X72981Y-50391D01*
X73101Y-50391D01*
X72981Y-50511D01*
X72908Y-50511D01*
X72859Y-50521D01*
X72819Y-50521D01*
X72819Y-50329D01*
X72819Y-49798D01*
X72819Y-49698D01*
X72819Y-49167D01*
X72756Y-49104D01*
X72327Y-49104D01*
X72235Y-49142D01*
X72165Y-49212D01*
X72127Y-49304D01*
X72126Y-49404D01*
X72127Y-49635D01*
X72189Y-49698D01*
X72819Y-49698D01*
X72819Y-49798D01*
X72189Y-49798D01*
X72127Y-49860D01*
X72126Y-50091D01*
X72127Y-50191D01*
X72165Y-50283D01*
X72235Y-50353D01*
X72327Y-50391D01*
X72756Y-50391D01*
X72819Y-50329D01*
X72819Y-50521D01*
X72405Y-50521D01*
X72313Y-50559D01*
X72312Y-50560D01*
X72312Y-50549D01*
X72247Y-50392D01*
X72127Y-50272D01*
X71970Y-50207D01*
X71800Y-50206D01*
X71643Y-50271D01*
X71523Y-50391D01*
X71458Y-50548D01*
X71457Y-50718D01*
X71522Y-50875D01*
X71642Y-50995D01*
X71799Y-51060D01*
X71969Y-51061D01*
X72126Y-50996D01*
X72204Y-50917D01*
X72204Y-51018D01*
X72208Y-51027D01*
X72205Y-51036D01*
X72204Y-51136D01*
X72204Y-51333D01*
X72208Y-51342D01*
X72205Y-51351D01*
X72204Y-51451D01*
X72204Y-51648D01*
X72208Y-51657D01*
X72205Y-51666D01*
X72204Y-51766D01*
X72204Y-51963D01*
X72208Y-51972D01*
X72205Y-51981D01*
X72205Y-52018D01*
X72266Y-52079D01*
X72205Y-52079D01*
X72205Y-52082D01*
X72127Y-52004D01*
X71970Y-51939D01*
X71800Y-51938D01*
X71643Y-52003D01*
X71523Y-52123D01*
X71458Y-52280D01*
X71457Y-52450D01*
X71522Y-52607D01*
X71642Y-52727D01*
X71799Y-52792D01*
X71969Y-52793D01*
X72126Y-52728D01*
X72246Y-52608D01*
X72311Y-52451D01*
X72311Y-52438D01*
X72313Y-52440D01*
X72405Y-52478D01*
X72795Y-52478D01*
X72858Y-52416D01*
X72858Y-52179D01*
X72850Y-52179D01*
X72850Y-52163D01*
X73410Y-52163D01*
X73502Y-52125D01*
X73547Y-52080D01*
X73548Y-52080D01*
X73568Y-52060D01*
X73702Y-52194D01*
X73895Y-52274D01*
X74103Y-52275D01*
X74297Y-52195D01*
X74444Y-52047D01*
X74480Y-51962D01*
X74480Y-52722D01*
X74466Y-52688D01*
X74311Y-52534D01*
X74109Y-52450D01*
X73891Y-52449D01*
X73688Y-52533D01*
X73610Y-52611D01*
X73610Y-52241D01*
X73548Y-52179D01*
X72958Y-52179D01*
X72958Y-52416D01*
X73020Y-52478D01*
X73410Y-52478D01*
X73502Y-52440D01*
X73572Y-52370D01*
X73610Y-52278D01*
X73610Y-52241D01*
X73610Y-52611D01*
X73539Y-52683D01*
X73502Y-52646D01*
X73410Y-52608D01*
X72981Y-52608D01*
X72919Y-52671D01*
X72919Y-53202D01*
X72926Y-53202D01*
X72926Y-53302D01*
X72919Y-53302D01*
X72919Y-53833D01*
X72981Y-53895D01*
X73410Y-53895D01*
X73449Y-53879D01*
X73450Y-53887D01*
X73512Y-53950D01*
X73950Y-53950D01*
X73950Y-53942D01*
X74050Y-53942D01*
X74050Y-53950D01*
X74057Y-53950D01*
X74057Y-54050D01*
X74050Y-54050D01*
X74050Y-54487D01*
X74112Y-54550D01*
X74250Y-54550D01*
X74349Y-54549D01*
X74441Y-54511D01*
X74480Y-54473D01*
X74480Y-55250D01*
X74500Y-55353D01*
X74559Y-55440D01*
X74646Y-55499D01*
X74750Y-55519D01*
X75537Y-55519D01*
X75453Y-55554D01*
X75305Y-55702D01*
X75225Y-55895D01*
X75224Y-56103D01*
X75304Y-56297D01*
X75452Y-56444D01*
X75645Y-56524D01*
X75853Y-56525D01*
X76047Y-56445D01*
X76194Y-56297D01*
X76274Y-56104D01*
X76275Y-55896D01*
X76195Y-55703D01*
X76047Y-55555D01*
X75962Y-55519D01*
X76250Y-55519D01*
X78537Y-55519D01*
X78453Y-55554D01*
X78305Y-55702D01*
X78225Y-55895D01*
X78224Y-56103D01*
X78304Y-56297D01*
X78452Y-56444D01*
X78645Y-56524D01*
X78853Y-56525D01*
X79047Y-56445D01*
X79194Y-56297D01*
X79274Y-56104D01*
X79275Y-55896D01*
X79195Y-55703D01*
X79047Y-55555D01*
X78962Y-55519D01*
X79722Y-55519D01*
X79688Y-55533D01*
X79534Y-55688D01*
X79450Y-55890D01*
X79449Y-56108D01*
X79533Y-56311D01*
X79688Y-56465D01*
X79890Y-56549D01*
X80108Y-56550D01*
X80311Y-56466D01*
X80450Y-56327D01*
X80450Y-56349D01*
X80488Y-56441D01*
X80558Y-56512D01*
X80650Y-56550D01*
X80887Y-56550D01*
X80950Y-56487D01*
X80950Y-56050D01*
X80942Y-56050D01*
X80942Y-55950D01*
X80950Y-55950D01*
X80950Y-55942D01*
X81050Y-55942D01*
X81050Y-55950D01*
X81487Y-55950D01*
X81550Y-55887D01*
X81550Y-55749D01*
X81549Y-55650D01*
X81511Y-55558D01*
X81473Y-55519D01*
X82250Y-55519D01*
X82353Y-55499D01*
X82440Y-55440D01*
X82499Y-55353D01*
X82519Y-55250D01*
X82519Y-54462D01*
X82554Y-54547D01*
X82702Y-54694D01*
X82895Y-54774D01*
X83103Y-54775D01*
X83297Y-54695D01*
X83444Y-54547D01*
X83524Y-54354D01*
X83525Y-54146D01*
X83445Y-53953D01*
X83297Y-53805D01*
X83104Y-53725D01*
X82896Y-53724D01*
X82703Y-53804D01*
X82555Y-53952D01*
X82519Y-54037D01*
X82519Y-51462D01*
X82554Y-51547D01*
X82702Y-51694D01*
X82895Y-51774D01*
X83103Y-51775D01*
X83297Y-51695D01*
X83444Y-51547D01*
X83524Y-51354D01*
X83525Y-51146D01*
X83445Y-50953D01*
X83297Y-50805D01*
X83104Y-50725D01*
X82896Y-50724D01*
X82703Y-50804D01*
X82555Y-50952D01*
X82519Y-51037D01*
X82519Y-50277D01*
X82533Y-50311D01*
X82688Y-50465D01*
X82890Y-50549D01*
X83108Y-50550D01*
X83311Y-50466D01*
X83465Y-50311D01*
X83549Y-50109D01*
X83550Y-49891D01*
X83466Y-49688D01*
X83327Y-49549D01*
X83349Y-49549D01*
X83441Y-49511D01*
X83512Y-49441D01*
X83550Y-49349D01*
X83550Y-48650D01*
X83512Y-48558D01*
X83441Y-48488D01*
X83349Y-48450D01*
X83250Y-48449D01*
X83112Y-48450D01*
X83050Y-48512D01*
X83050Y-48950D01*
X83487Y-48950D01*
X83550Y-48887D01*
X83550Y-48650D01*
X83550Y-49349D01*
X83550Y-49112D01*
X83487Y-49050D01*
X83050Y-49050D01*
X83050Y-49057D01*
X82950Y-49057D01*
X82950Y-49050D01*
X82942Y-49050D01*
X82942Y-48950D01*
X82950Y-48950D01*
X82950Y-48512D01*
X82887Y-48450D01*
X82749Y-48449D01*
X82650Y-48450D01*
X82558Y-48488D01*
X82519Y-48526D01*
X82519Y-47750D01*
X82499Y-47646D01*
X82440Y-47559D01*
X82353Y-47500D01*
X82250Y-47480D01*
X81462Y-47480D01*
X81547Y-47445D01*
X81694Y-47297D01*
X81774Y-47104D01*
X81775Y-46896D01*
X81695Y-46703D01*
X81547Y-46555D01*
X81400Y-46493D01*
X81416Y-46487D01*
X81486Y-46416D01*
X81511Y-46358D01*
X81951Y-46358D01*
X82474Y-46881D01*
X82474Y-46953D01*
X82554Y-47147D01*
X82702Y-47294D01*
X82895Y-47374D01*
X83018Y-47375D01*
X83641Y-47998D01*
X83641Y-54453D01*
X83558Y-54487D01*
X83488Y-54558D01*
X83450Y-54650D01*
X83449Y-54749D01*
X83449Y-55349D01*
X83487Y-55441D01*
X83558Y-55511D01*
X83641Y-55546D01*
X83641Y-56080D01*
X83580Y-56141D01*
X83450Y-56141D01*
X83312Y-56169D01*
X83196Y-56246D01*
X82896Y-56546D01*
X82819Y-56662D01*
X82791Y-56800D01*
X82791Y-58650D01*
X82819Y-58787D01*
X82896Y-58903D01*
X82975Y-58981D01*
X82974Y-59103D01*
X83054Y-59297D01*
X83202Y-59444D01*
X83395Y-59524D01*
X83603Y-59525D01*
X83797Y-59445D01*
X83944Y-59297D01*
X84024Y-59104D01*
X84025Y-58896D01*
X83945Y-58703D01*
X83797Y-58555D01*
X83604Y-58475D01*
X83508Y-58475D01*
X83508Y-57961D01*
X83558Y-58011D01*
X83650Y-58049D01*
X83749Y-58050D01*
X84349Y-58050D01*
X84441Y-58012D01*
X84511Y-57941D01*
X84549Y-57849D01*
X84549Y-57827D01*
X84688Y-57965D01*
X84890Y-58049D01*
X85108Y-58050D01*
X85311Y-57966D01*
X85465Y-57811D01*
X85499Y-57730D01*
X85533Y-57811D01*
X85688Y-57965D01*
X85890Y-58049D01*
X86108Y-58050D01*
X86311Y-57966D01*
X86465Y-57811D01*
X86549Y-57609D01*
X86550Y-57391D01*
X86550Y-58475D01*
X86396Y-58474D01*
X86203Y-58554D01*
X86055Y-58702D01*
X85975Y-58895D01*
X85974Y-59103D01*
X86054Y-59297D01*
X86202Y-59444D01*
X86395Y-59524D01*
X86603Y-59525D01*
X86730Y-59472D01*
X86730Y-59730D01*
M02*
