G04 (created by PCBNEW (2013-07-07 BZR 4022)-stable) date 12/16/2014 6:17:28 PM*
%MOIN*%
G04 Gerber Fmt 3.4, Leading zero omitted, Abs format*
%FSLAX34Y34*%
G01*
G70*
G90*
G04 APERTURE LIST*
%ADD10C,0.00590551*%
%ADD11C,0.019685*%
%ADD12R,0.0906X0.0197*%
%ADD13R,0.0984X0.0787*%
%ADD14C,0.0354*%
%ADD15R,0.144X0.08*%
%ADD16R,0.04X0.08*%
%ADD17C,0.055*%
%ADD18R,0.06X0.06*%
%ADD19C,0.06*%
%ADD20R,0.055X0.055*%
G04 APERTURE END LIST*
G54D10*
G54D11*
X72820Y-54637D02*
X72820Y-55425D01*
X71442Y-55031D02*
X72820Y-55031D01*
X71835Y-55818D02*
X71835Y-56475D01*
X71442Y-55687D02*
X72820Y-56146D01*
X71442Y-56606D01*
X71507Y-57000D02*
X71442Y-57196D01*
X71442Y-57524D01*
X71507Y-57656D01*
X71573Y-57721D01*
X71704Y-57787D01*
X71835Y-57787D01*
X71967Y-57721D01*
X72032Y-57656D01*
X72098Y-57524D01*
X72164Y-57262D01*
X72229Y-57131D01*
X72295Y-57065D01*
X72426Y-57000D01*
X72557Y-57000D01*
X72688Y-57065D01*
X72754Y-57131D01*
X72820Y-57262D01*
X72820Y-57590D01*
X72754Y-57787D01*
X71442Y-58377D02*
X72820Y-58377D01*
X72164Y-58377D02*
X72164Y-59165D01*
X71442Y-59165D02*
X72820Y-59165D01*
G54D12*
X72908Y-50870D03*
X72908Y-51185D03*
X72908Y-51500D03*
X72908Y-51815D03*
X72908Y-52130D03*
G54D13*
X72869Y-49748D03*
X70704Y-49748D03*
X72869Y-53252D03*
X70704Y-53252D03*
G54D14*
X71885Y-50634D03*
X71885Y-52366D03*
G54D15*
X74000Y-44200D03*
G54D16*
X74000Y-46800D03*
X74900Y-46800D03*
X73100Y-46800D03*
G54D17*
X78750Y-56000D03*
X75750Y-56000D03*
X83000Y-51250D03*
X83000Y-54250D03*
X78250Y-47000D03*
X81250Y-47000D03*
X74000Y-51750D03*
X74000Y-48750D03*
X83500Y-59000D03*
X86500Y-59000D03*
X76000Y-43750D03*
X79000Y-43750D03*
G54D18*
X84000Y-57500D03*
G54D19*
X84000Y-56500D03*
X85000Y-57500D03*
X85000Y-56500D03*
X86000Y-57500D03*
X86000Y-56500D03*
G54D18*
X83000Y-49000D03*
G54D19*
X83000Y-50000D03*
G54D18*
X76000Y-47000D03*
G54D19*
X77000Y-47000D03*
G54D18*
X74000Y-54000D03*
G54D19*
X74000Y-53000D03*
G54D18*
X81000Y-56000D03*
G54D19*
X80000Y-56000D03*
G54D18*
X85000Y-55000D03*
X86000Y-55000D03*
X84000Y-55000D03*
G54D20*
X78750Y-46000D03*
G54D17*
X78750Y-45000D03*
G54D20*
X76500Y-46000D03*
G54D17*
X76500Y-45000D03*
G54D20*
X71500Y-46000D03*
G54D17*
X71500Y-45000D03*
G54D20*
X81000Y-46000D03*
G54D17*
X81000Y-45000D03*
G54D20*
X86000Y-46850D03*
G54D17*
X86000Y-45850D03*
X86000Y-44850D03*
X86000Y-43850D03*
X83000Y-43850D03*
X83000Y-44850D03*
X83000Y-45850D03*
X83000Y-46850D03*
M02*
