G04 (created by PCBNEW (2013-07-07 BZR 4022)-stable) date 12/11/2014 3:56:36 AM*
%MOIN*%
G04 Gerber Fmt 3.4, Leading zero omitted, Abs format*
%FSLAX34Y34*%
G01*
G70*
G90*
G04 APERTURE LIST*
%ADD10C,0.00590551*%
%ADD11C,0.055*%
%ADD12R,0.06X0.06*%
%ADD13C,0.06*%
%ADD14C,0.01*%
G04 APERTURE END LIST*
G54D10*
G54D11*
X81814Y-56511D03*
X81814Y-54511D03*
X78814Y-56511D03*
X78814Y-54511D03*
X83070Y-54011D03*
X83070Y-57011D03*
X77559Y-57011D03*
X77559Y-54011D03*
G54D12*
X81314Y-57874D03*
G54D13*
X80314Y-57874D03*
X79314Y-57874D03*
G54D11*
X79814Y-53149D03*
X80814Y-53149D03*
G54D10*
G36*
X83391Y-58194D02*
X82340Y-58194D01*
X82340Y-56407D01*
X82340Y-54407D01*
X82260Y-54214D01*
X82112Y-54066D01*
X81919Y-53986D01*
X81710Y-53986D01*
X81517Y-54066D01*
X81370Y-54214D01*
X81344Y-54274D01*
X81290Y-54406D01*
X81289Y-54615D01*
X81369Y-54808D01*
X81517Y-54956D01*
X81710Y-55036D01*
X81918Y-55036D01*
X82111Y-54957D01*
X82259Y-54809D01*
X82339Y-54616D01*
X82340Y-54407D01*
X82340Y-56407D01*
X82260Y-56214D01*
X82112Y-56066D01*
X81919Y-55986D01*
X81710Y-55986D01*
X81517Y-56066D01*
X81370Y-56214D01*
X81290Y-56406D01*
X81289Y-56615D01*
X81369Y-56808D01*
X81517Y-56956D01*
X81710Y-57036D01*
X81918Y-57036D01*
X82111Y-56957D01*
X82259Y-56809D01*
X82339Y-56616D01*
X82340Y-56407D01*
X82340Y-58194D01*
X81864Y-58194D01*
X81865Y-58124D01*
X81865Y-57623D01*
X81864Y-57524D01*
X81826Y-57432D01*
X81756Y-57361D01*
X81664Y-57323D01*
X81427Y-57324D01*
X81364Y-57386D01*
X81364Y-57824D01*
X81802Y-57824D01*
X81864Y-57761D01*
X81865Y-57623D01*
X81865Y-58124D01*
X81864Y-57986D01*
X81802Y-57924D01*
X81364Y-57924D01*
X81364Y-57931D01*
X81264Y-57931D01*
X81264Y-57924D01*
X81257Y-57924D01*
X81257Y-57824D01*
X81264Y-57824D01*
X81264Y-57386D01*
X81202Y-57324D01*
X81112Y-57323D01*
X81112Y-53517D01*
X80814Y-53220D01*
X80517Y-53517D01*
X80542Y-53610D01*
X80739Y-53679D01*
X80947Y-53668D01*
X81087Y-53610D01*
X81112Y-53517D01*
X81112Y-57323D01*
X80965Y-57323D01*
X80873Y-57361D01*
X80803Y-57432D01*
X80765Y-57524D01*
X80764Y-57546D01*
X80626Y-57408D01*
X80424Y-57324D01*
X80206Y-57323D01*
X80003Y-57407D01*
X79848Y-57562D01*
X79814Y-57643D01*
X79781Y-57562D01*
X79626Y-57408D01*
X79424Y-57324D01*
X79340Y-57324D01*
X79340Y-56407D01*
X79340Y-54407D01*
X79260Y-54214D01*
X79112Y-54066D01*
X78919Y-53986D01*
X78710Y-53986D01*
X78517Y-54066D01*
X78370Y-54214D01*
X78290Y-54406D01*
X78289Y-54615D01*
X78369Y-54808D01*
X78517Y-54956D01*
X78710Y-55036D01*
X78918Y-55036D01*
X79111Y-54957D01*
X79259Y-54809D01*
X79339Y-54616D01*
X79340Y-54407D01*
X79340Y-56407D01*
X79260Y-56214D01*
X79112Y-56066D01*
X78919Y-55986D01*
X78710Y-55986D01*
X78517Y-56066D01*
X78370Y-56214D01*
X78290Y-56406D01*
X78289Y-56615D01*
X78369Y-56808D01*
X78517Y-56956D01*
X78710Y-57036D01*
X78918Y-57036D01*
X79111Y-56957D01*
X79259Y-56809D01*
X79339Y-56616D01*
X79340Y-56407D01*
X79340Y-57324D01*
X79206Y-57323D01*
X79003Y-57407D01*
X78848Y-57562D01*
X78765Y-57764D01*
X78764Y-57982D01*
X78848Y-58185D01*
X78858Y-58194D01*
X77238Y-58194D01*
X77238Y-57433D01*
X77261Y-57456D01*
X77454Y-57536D01*
X77663Y-57536D01*
X77856Y-57457D01*
X78003Y-57309D01*
X78083Y-57116D01*
X78084Y-56907D01*
X78004Y-56714D01*
X77856Y-56566D01*
X77663Y-56486D01*
X77455Y-56486D01*
X77262Y-56566D01*
X77238Y-56590D01*
X77238Y-54433D01*
X77261Y-54456D01*
X77454Y-54536D01*
X77663Y-54536D01*
X77856Y-54457D01*
X78003Y-54309D01*
X78083Y-54116D01*
X78084Y-53907D01*
X78004Y-53714D01*
X77856Y-53566D01*
X77663Y-53486D01*
X77455Y-53486D01*
X77262Y-53566D01*
X77238Y-53590D01*
X77238Y-52828D01*
X79393Y-52828D01*
X79370Y-52851D01*
X79290Y-53044D01*
X79289Y-53253D01*
X79369Y-53446D01*
X79517Y-53594D01*
X79710Y-53674D01*
X79918Y-53674D01*
X80111Y-53594D01*
X80259Y-53447D01*
X80312Y-53320D01*
X80354Y-53422D01*
X80447Y-53446D01*
X80744Y-53149D01*
X80738Y-53144D01*
X80809Y-53073D01*
X80814Y-53078D01*
X80820Y-53073D01*
X80891Y-53144D01*
X80885Y-53149D01*
X81182Y-53446D01*
X81275Y-53422D01*
X81344Y-53225D01*
X81333Y-53016D01*
X81275Y-52876D01*
X81182Y-52852D01*
X81206Y-52828D01*
X83391Y-52828D01*
X83391Y-53620D01*
X83367Y-53644D01*
X83343Y-53551D01*
X83146Y-53481D01*
X82938Y-53493D01*
X82798Y-53551D01*
X82773Y-53644D01*
X83070Y-53941D01*
X83076Y-53935D01*
X83147Y-54006D01*
X83141Y-54011D01*
X83147Y-54017D01*
X83076Y-54088D01*
X83070Y-54082D01*
X83000Y-54153D01*
X83000Y-54011D01*
X82703Y-53714D01*
X82610Y-53739D01*
X82540Y-53936D01*
X82552Y-54144D01*
X82610Y-54284D01*
X82703Y-54308D01*
X83000Y-54011D01*
X83000Y-54153D01*
X82773Y-54379D01*
X82798Y-54472D01*
X82995Y-54541D01*
X83203Y-54530D01*
X83343Y-54472D01*
X83367Y-54379D01*
X83367Y-54379D01*
X83391Y-54403D01*
X83391Y-56590D01*
X83368Y-56566D01*
X83367Y-56566D01*
X83175Y-56486D01*
X82966Y-56486D01*
X82773Y-56566D01*
X82626Y-56714D01*
X82545Y-56906D01*
X82545Y-57115D01*
X82625Y-57308D01*
X82773Y-57456D01*
X82965Y-57536D01*
X83174Y-57536D01*
X83367Y-57457D01*
X83391Y-57433D01*
X83391Y-58194D01*
X83391Y-58194D01*
G37*
G54D14*
X83391Y-58194D02*
X82340Y-58194D01*
X82340Y-56407D01*
X82340Y-54407D01*
X82260Y-54214D01*
X82112Y-54066D01*
X81919Y-53986D01*
X81710Y-53986D01*
X81517Y-54066D01*
X81370Y-54214D01*
X81344Y-54274D01*
X81290Y-54406D01*
X81289Y-54615D01*
X81369Y-54808D01*
X81517Y-54956D01*
X81710Y-55036D01*
X81918Y-55036D01*
X82111Y-54957D01*
X82259Y-54809D01*
X82339Y-54616D01*
X82340Y-54407D01*
X82340Y-56407D01*
X82260Y-56214D01*
X82112Y-56066D01*
X81919Y-55986D01*
X81710Y-55986D01*
X81517Y-56066D01*
X81370Y-56214D01*
X81290Y-56406D01*
X81289Y-56615D01*
X81369Y-56808D01*
X81517Y-56956D01*
X81710Y-57036D01*
X81918Y-57036D01*
X82111Y-56957D01*
X82259Y-56809D01*
X82339Y-56616D01*
X82340Y-56407D01*
X82340Y-58194D01*
X81864Y-58194D01*
X81865Y-58124D01*
X81865Y-57623D01*
X81864Y-57524D01*
X81826Y-57432D01*
X81756Y-57361D01*
X81664Y-57323D01*
X81427Y-57324D01*
X81364Y-57386D01*
X81364Y-57824D01*
X81802Y-57824D01*
X81864Y-57761D01*
X81865Y-57623D01*
X81865Y-58124D01*
X81864Y-57986D01*
X81802Y-57924D01*
X81364Y-57924D01*
X81364Y-57931D01*
X81264Y-57931D01*
X81264Y-57924D01*
X81257Y-57924D01*
X81257Y-57824D01*
X81264Y-57824D01*
X81264Y-57386D01*
X81202Y-57324D01*
X81112Y-57323D01*
X81112Y-53517D01*
X80814Y-53220D01*
X80517Y-53517D01*
X80542Y-53610D01*
X80739Y-53679D01*
X80947Y-53668D01*
X81087Y-53610D01*
X81112Y-53517D01*
X81112Y-57323D01*
X80965Y-57323D01*
X80873Y-57361D01*
X80803Y-57432D01*
X80765Y-57524D01*
X80764Y-57546D01*
X80626Y-57408D01*
X80424Y-57324D01*
X80206Y-57323D01*
X80003Y-57407D01*
X79848Y-57562D01*
X79814Y-57643D01*
X79781Y-57562D01*
X79626Y-57408D01*
X79424Y-57324D01*
X79340Y-57324D01*
X79340Y-56407D01*
X79340Y-54407D01*
X79260Y-54214D01*
X79112Y-54066D01*
X78919Y-53986D01*
X78710Y-53986D01*
X78517Y-54066D01*
X78370Y-54214D01*
X78290Y-54406D01*
X78289Y-54615D01*
X78369Y-54808D01*
X78517Y-54956D01*
X78710Y-55036D01*
X78918Y-55036D01*
X79111Y-54957D01*
X79259Y-54809D01*
X79339Y-54616D01*
X79340Y-54407D01*
X79340Y-56407D01*
X79260Y-56214D01*
X79112Y-56066D01*
X78919Y-55986D01*
X78710Y-55986D01*
X78517Y-56066D01*
X78370Y-56214D01*
X78290Y-56406D01*
X78289Y-56615D01*
X78369Y-56808D01*
X78517Y-56956D01*
X78710Y-57036D01*
X78918Y-57036D01*
X79111Y-56957D01*
X79259Y-56809D01*
X79339Y-56616D01*
X79340Y-56407D01*
X79340Y-57324D01*
X79206Y-57323D01*
X79003Y-57407D01*
X78848Y-57562D01*
X78765Y-57764D01*
X78764Y-57982D01*
X78848Y-58185D01*
X78858Y-58194D01*
X77238Y-58194D01*
X77238Y-57433D01*
X77261Y-57456D01*
X77454Y-57536D01*
X77663Y-57536D01*
X77856Y-57457D01*
X78003Y-57309D01*
X78083Y-57116D01*
X78084Y-56907D01*
X78004Y-56714D01*
X77856Y-56566D01*
X77663Y-56486D01*
X77455Y-56486D01*
X77262Y-56566D01*
X77238Y-56590D01*
X77238Y-54433D01*
X77261Y-54456D01*
X77454Y-54536D01*
X77663Y-54536D01*
X77856Y-54457D01*
X78003Y-54309D01*
X78083Y-54116D01*
X78084Y-53907D01*
X78004Y-53714D01*
X77856Y-53566D01*
X77663Y-53486D01*
X77455Y-53486D01*
X77262Y-53566D01*
X77238Y-53590D01*
X77238Y-52828D01*
X79393Y-52828D01*
X79370Y-52851D01*
X79290Y-53044D01*
X79289Y-53253D01*
X79369Y-53446D01*
X79517Y-53594D01*
X79710Y-53674D01*
X79918Y-53674D01*
X80111Y-53594D01*
X80259Y-53447D01*
X80312Y-53320D01*
X80354Y-53422D01*
X80447Y-53446D01*
X80744Y-53149D01*
X80738Y-53144D01*
X80809Y-53073D01*
X80814Y-53078D01*
X80820Y-53073D01*
X80891Y-53144D01*
X80885Y-53149D01*
X81182Y-53446D01*
X81275Y-53422D01*
X81344Y-53225D01*
X81333Y-53016D01*
X81275Y-52876D01*
X81182Y-52852D01*
X81206Y-52828D01*
X83391Y-52828D01*
X83391Y-53620D01*
X83367Y-53644D01*
X83343Y-53551D01*
X83146Y-53481D01*
X82938Y-53493D01*
X82798Y-53551D01*
X82773Y-53644D01*
X83070Y-53941D01*
X83076Y-53935D01*
X83147Y-54006D01*
X83141Y-54011D01*
X83147Y-54017D01*
X83076Y-54088D01*
X83070Y-54082D01*
X83000Y-54153D01*
X83000Y-54011D01*
X82703Y-53714D01*
X82610Y-53739D01*
X82540Y-53936D01*
X82552Y-54144D01*
X82610Y-54284D01*
X82703Y-54308D01*
X83000Y-54011D01*
X83000Y-54153D01*
X82773Y-54379D01*
X82798Y-54472D01*
X82995Y-54541D01*
X83203Y-54530D01*
X83343Y-54472D01*
X83367Y-54379D01*
X83367Y-54379D01*
X83391Y-54403D01*
X83391Y-56590D01*
X83368Y-56566D01*
X83367Y-56566D01*
X83175Y-56486D01*
X82966Y-56486D01*
X82773Y-56566D01*
X82626Y-56714D01*
X82545Y-56906D01*
X82545Y-57115D01*
X82625Y-57308D01*
X82773Y-57456D01*
X82965Y-57536D01*
X83174Y-57536D01*
X83367Y-57457D01*
X83391Y-57433D01*
X83391Y-58194D01*
M02*
